<?xml version="1.0" encoding="UTF-8" standalone="no"?>
<!DOCTYPE svg PUBLIC "-//W3C//DTD SVG 1.1//EN"
 "http://www.w3.org/Graphics/SVG/1.1/DTD/svg11.dtd">
<!-- Generated by graphviz version 2.26.3 (20100126.1600)
 -->
<!-- Title: controllers_diagram Pages: 1 -->
<svg width="1274pt" height="1074pt"
 viewBox="0.00 0.00 1274.00 1074.01" xmlns="http://www.w3.org/2000/svg" xmlns:xlink="http://www.w3.org/1999/xlink">
<g id="graph1" class="graph" transform="scale(1 1) rotate(0) translate(4 1070.01)">
<title>controllers_diagram</title>
<polygon fill="white" stroke="white" points="-4,5 -4,-1070.01 1271,-1070.01 1271,5 -4,5"/>
<!-- _diagram_info -->
<g id="node1" class="node"><title>_diagram_info</title>
<text text-anchor="start" x="1023" y="-78.3" font-family="Times Roman,serif" font-size="13.00">Controllers diagram</text>
<text text-anchor="start" x="1023" y="-61.3" font-family="Times Roman,serif" font-size="13.00">Date: Feb 16 2014 &#45; 18:02</text>
<text text-anchor="start" x="1023" y="-44.3" font-family="Times Roman,serif" font-size="13.00">Migration version: 20140216170221</text>
<text text-anchor="start" x="1023" y="-27.3" font-family="Times Roman,serif" font-size="13.00">Generated by RailRoady 1.1.1</text>
<text text-anchor="start" x="1023" y="-10.3" font-family="Times Roman,serif" font-size="13.00">http://railroady.prestonlee.com</text>
</g>
<!-- ApplicationController -->
<g id="node2" class="node"><title>ApplicationController</title>
<polyline fill="none" stroke="black" points="288.833,-420.959 425.833,-420.959 "/>
<path fill="none" stroke="black" d="M425.833,-420.959C431.833,-420.959 437.833,-426.959 437.833,-432.959"/>
<polyline fill="none" stroke="black" points="437.833,-432.959 437.833,-526.959 "/>
<path fill="none" stroke="black" d="M437.833,-526.959C437.833,-532.959 431.833,-538.959 425.833,-538.959"/>
<polyline fill="none" stroke="black" points="425.833,-538.959 288.833,-538.959 "/>
<path fill="none" stroke="black" d="M288.833,-538.959C282.833,-538.959 276.833,-532.959 276.833,-526.959"/>
<polyline fill="none" stroke="black" points="276.833,-526.959 276.833,-432.959 "/>
<path fill="none" stroke="black" d="M276.833,-432.959C276.833,-426.959 282.833,-420.959 288.833,-420.959"/>
<text text-anchor="middle" x="357.333" y="-522.359" font-family="Times Roman,serif" font-size="14.00">ApplicationController</text>
<polyline fill="none" stroke="black" points="276.833,-512.959 437.833,-512.959 "/>
<polyline fill="none" stroke="black" points="276.833,-488.959 437.833,-488.959 "/>
<polyline fill="none" stroke="black" points="276.833,-464.959 437.833,-464.959 "/>
<text text-anchor="start" x="284.833" y="-448.359" font-family="Times Roman,serif" font-size="14.00">_layout</text>
<text text-anchor="start" x="284.833" y="-430.359" font-family="Times Roman,serif" font-size="14.00">current_user</text>
</g>
<!-- AttemptsController -->
<g id="node3" class="node"><title>AttemptsController</title>
<polyline fill="none" stroke="black" points="536.914,-455.949 661.914,-455.949 "/>
<path fill="none" stroke="black" d="M661.914,-455.949C667.914,-455.949 673.914,-461.949 673.914,-467.949"/>
<polyline fill="none" stroke="black" points="673.914,-467.949 673.914,-599.949 "/>
<path fill="none" stroke="black" d="M673.914,-599.949C673.914,-605.949 667.914,-611.949 661.914,-611.949"/>
<polyline fill="none" stroke="black" points="661.914,-611.949 536.914,-611.949 "/>
<path fill="none" stroke="black" d="M536.914,-611.949C530.914,-611.949 524.914,-605.949 524.914,-599.949"/>
<polyline fill="none" stroke="black" points="524.914,-599.949 524.914,-467.949 "/>
<path fill="none" stroke="black" d="M524.914,-467.949C524.914,-461.949 530.914,-455.949 536.914,-455.949"/>
<text text-anchor="middle" x="599.414" y="-595.349" font-family="Times Roman,serif" font-size="14.00">AttemptsController</text>
<polyline fill="none" stroke="black" points="524.914,-585.949 673.914,-585.949 "/>
<text text-anchor="start" x="532.914" y="-569.349" font-family="Times Roman,serif" font-size="14.00">index</text>
<text text-anchor="start" x="532.914" y="-551.349" font-family="Times Roman,serif" font-size="14.00">new</text>
<text text-anchor="start" x="532.914" y="-533.349" font-family="Times Roman,serif" font-size="14.00">show</text>
<polyline fill="none" stroke="black" points="524.914,-523.949 673.914,-523.949 "/>
<polyline fill="none" stroke="black" points="524.914,-499.949 673.914,-499.949 "/>
<text text-anchor="start" x="532.914" y="-483.349" font-family="Times Roman,serif" font-size="14.00">_layout</text>
<text text-anchor="start" x="532.914" y="-465.349" font-family="Times Roman,serif" font-size="14.00">attempt_params</text>
</g>
<!-- ApplicationController&#45;&gt;AttemptsController -->
<g id="edge2" class="edge"><title>ApplicationController&#45;&gt;AttemptsController</title>
<path fill="none" stroke="black" d="M437.942,-497.937C466.001,-504.194 497.334,-511.183 524.878,-517.326"/>
</g>
<!-- CertificatesController -->
<g id="node4" class="node"><title>CertificatesController</title>
<polyline fill="none" stroke="black" points="353.391,-60.2668 493.391,-60.2668 "/>
<path fill="none" stroke="black" d="M493.391,-60.2668C499.391,-60.2668 505.391,-66.2668 505.391,-72.2668"/>
<polyline fill="none" stroke="black" points="505.391,-72.2668 505.391,-186.267 "/>
<path fill="none" stroke="black" d="M505.391,-186.267C505.391,-192.267 499.391,-198.267 493.391,-198.267"/>
<polyline fill="none" stroke="black" points="493.391,-198.267 353.391,-198.267 "/>
<path fill="none" stroke="black" d="M353.391,-198.267C347.391,-198.267 341.391,-192.267 341.391,-186.267"/>
<polyline fill="none" stroke="black" points="341.391,-186.267 341.391,-72.2668 "/>
<path fill="none" stroke="black" d="M341.391,-72.2668C341.391,-66.2668 347.391,-60.2668 353.391,-60.2668"/>
<text text-anchor="middle" x="423.391" y="-181.667" font-family="Times Roman,serif" font-size="14.00">CertificatesController</text>
<polyline fill="none" stroke="black" points="341.391,-172.267 505.391,-172.267 "/>
<text text-anchor="start" x="349.391" y="-155.667" font-family="Times Roman,serif" font-size="14.00">index</text>
<text text-anchor="start" x="349.391" y="-137.667" font-family="Times Roman,serif" font-size="14.00">show</text>
<polyline fill="none" stroke="black" points="341.391,-128.267 505.391,-128.267 "/>
<polyline fill="none" stroke="black" points="341.391,-104.267 505.391,-104.267 "/>
<text text-anchor="start" x="349.391" y="-87.6668" font-family="Times Roman,serif" font-size="14.00">_layout</text>
<text text-anchor="start" x="349.391" y="-69.6668" font-family="Times Roman,serif" font-size="14.00">certificate_params</text>
</g>
<!-- ApplicationController&#45;&gt;CertificatesController -->
<g id="edge4" class="edge"><title>ApplicationController&#45;&gt;CertificatesController</title>
<path fill="none" stroke="black" d="M368.464,-420.865C380.028,-359.473 398.11,-263.479 410.339,-198.555"/>
</g>
<!-- ChargesController -->
<g id="node5" class="node"><title>ChargesController</title>
<polyline fill="none" stroke="black" points="53.8284,-882.606 171.828,-882.606 "/>
<path fill="none" stroke="black" d="M171.828,-882.606C177.828,-882.606 183.828,-888.606 183.828,-894.606"/>
<polyline fill="none" stroke="black" points="183.828,-894.606 183.828,-990.606 "/>
<path fill="none" stroke="black" d="M183.828,-990.606C183.828,-996.606 177.828,-1002.61 171.828,-1002.61"/>
<polyline fill="none" stroke="black" points="171.828,-1002.61 53.8284,-1002.61 "/>
<path fill="none" stroke="black" d="M53.8284,-1002.61C47.8284,-1002.61 41.8284,-996.606 41.8284,-990.606"/>
<polyline fill="none" stroke="black" points="41.8284,-990.606 41.8284,-894.606 "/>
<path fill="none" stroke="black" d="M41.8284,-894.606C41.8284,-888.606 47.8284,-882.606 53.8284,-882.606"/>
<text text-anchor="middle" x="112.828" y="-986.006" font-family="Times Roman,serif" font-size="14.00">ChargesController</text>
<polyline fill="none" stroke="black" points="41.8284,-976.606 183.828,-976.606 "/>
<text text-anchor="start" x="49.8284" y="-960.006" font-family="Times Roman,serif" font-size="14.00">create</text>
<text text-anchor="start" x="49.8284" y="-942.006" font-family="Times Roman,serif" font-size="14.00">new</text>
<polyline fill="none" stroke="black" points="41.8284,-932.606 183.828,-932.606 "/>
<polyline fill="none" stroke="black" points="41.8284,-908.606 183.828,-908.606 "/>
<text text-anchor="start" x="49.8284" y="-892.006" font-family="Times Roman,serif" font-size="14.00">_layout</text>
</g>
<!-- ApplicationController&#45;&gt;ChargesController -->
<g id="edge6" class="edge"><title>ApplicationController&#45;&gt;ChargesController</title>
<path fill="none" stroke="black" d="M305.163,-539.018C288.214,-559.888 270.152,-584.087 256.023,-607.811 201.924,-698.653 157.394,-813.697 133.02,-882.546"/>
</g>
<!-- ContactController -->
<g id="node6" class="node"><title>ContactController</title>
<polyline fill="none" stroke="black" points="512.69,-680.603 628.69,-680.603 "/>
<path fill="none" stroke="black" d="M628.69,-680.603C634.69,-680.603 640.69,-686.603 640.69,-692.603"/>
<polyline fill="none" stroke="black" points="640.69,-692.603 640.69,-788.603 "/>
<path fill="none" stroke="black" d="M640.69,-788.603C640.69,-794.603 634.69,-800.603 628.69,-800.603"/>
<polyline fill="none" stroke="black" points="628.69,-800.603 512.69,-800.603 "/>
<path fill="none" stroke="black" d="M512.69,-800.603C506.69,-800.603 500.69,-794.603 500.69,-788.603"/>
<polyline fill="none" stroke="black" points="500.69,-788.603 500.69,-692.603 "/>
<path fill="none" stroke="black" d="M500.69,-692.603C500.69,-686.603 506.69,-680.603 512.69,-680.603"/>
<text text-anchor="middle" x="570.69" y="-784.003" font-family="Times Roman,serif" font-size="14.00">ContactController</text>
<polyline fill="none" stroke="black" points="500.69,-774.603 640.69,-774.603 "/>
<text text-anchor="start" x="508.69" y="-758.003" font-family="Times Roman,serif" font-size="14.00">create</text>
<text text-anchor="start" x="508.69" y="-740.003" font-family="Times Roman,serif" font-size="14.00">new</text>
<polyline fill="none" stroke="black" points="500.69,-730.603 640.69,-730.603 "/>
<polyline fill="none" stroke="black" points="500.69,-706.603 640.69,-706.603 "/>
<text text-anchor="start" x="508.69" y="-690.003" font-family="Times Roman,serif" font-size="14.00">_layout</text>
</g>
<!-- ApplicationController&#45;&gt;ContactController -->
<g id="edge8" class="edge"><title>ApplicationController&#45;&gt;ContactController</title>
<path fill="none" stroke="black" d="M405.747,-539.103C440.296,-581.308 486.605,-637.881 521.359,-680.338"/>
</g>
<!-- CoursesController -->
<g id="node7" class="node"><title>CoursesController</title>
<polyline fill="none" stroke="black" points="271.223,-611.011 387.223,-611.011 "/>
<path fill="none" stroke="black" d="M387.223,-611.011C393.223,-611.011 399.223,-617.011 399.223,-623.011"/>
<polyline fill="none" stroke="black" points="399.223,-623.011 399.223,-827.011 "/>
<path fill="none" stroke="black" d="M399.223,-827.011C399.223,-833.011 393.223,-839.011 387.223,-839.011"/>
<polyline fill="none" stroke="black" points="387.223,-839.011 271.223,-839.011 "/>
<path fill="none" stroke="black" d="M271.223,-839.011C265.223,-839.011 259.223,-833.011 259.223,-827.011"/>
<polyline fill="none" stroke="black" points="259.223,-827.011 259.223,-623.011 "/>
<path fill="none" stroke="black" d="M259.223,-623.011C259.223,-617.011 265.223,-611.011 271.223,-611.011"/>
<text text-anchor="middle" x="329.223" y="-822.411" font-family="Times Roman,serif" font-size="14.00">CoursesController</text>
<polyline fill="none" stroke="black" points="259.223,-813.011 399.223,-813.011 "/>
<text text-anchor="start" x="267.223" y="-796.411" font-family="Times Roman,serif" font-size="14.00">create</text>
<text text-anchor="start" x="267.223" y="-778.411" font-family="Times Roman,serif" font-size="14.00">destroy</text>
<text text-anchor="start" x="267.223" y="-760.411" font-family="Times Roman,serif" font-size="14.00">edit</text>
<text text-anchor="start" x="267.223" y="-742.411" font-family="Times Roman,serif" font-size="14.00">index</text>
<text text-anchor="start" x="267.223" y="-724.411" font-family="Times Roman,serif" font-size="14.00">new</text>
<text text-anchor="start" x="267.223" y="-706.411" font-family="Times Roman,serif" font-size="14.00">show</text>
<text text-anchor="start" x="267.223" y="-688.411" font-family="Times Roman,serif" font-size="14.00">update</text>
<polyline fill="none" stroke="black" points="259.223,-679.011 399.223,-679.011 "/>
<polyline fill="none" stroke="black" points="259.223,-655.011 399.223,-655.011 "/>
<text text-anchor="start" x="267.223" y="-638.411" font-family="Times Roman,serif" font-size="14.00">_layout</text>
<text text-anchor="start" x="267.223" y="-620.411" font-family="Times Roman,serif" font-size="14.00">course_params</text>
</g>
<!-- ApplicationController&#45;&gt;CoursesController -->
<g id="edge10" class="edge"><title>ApplicationController&#45;&gt;CoursesController</title>
<path fill="none" stroke="black" d="M350.564,-538.967C348.079,-560.635 345.173,-585.966 342.32,-610.837"/>
</g>
<!-- EmailConfirmationsController -->
<g id="node8" class="node"><title>EmailConfirmationsController</title>
<polyline fill="none" stroke="black" points="13,-338.648 208,-338.648 "/>
<path fill="none" stroke="black" d="M208,-338.648C214,-338.648 220,-344.648 220,-350.648"/>
<polyline fill="none" stroke="black" points="220,-350.648 220,-428.648 "/>
<path fill="none" stroke="black" d="M220,-428.648C220,-434.648 214,-440.648 208,-440.648"/>
<polyline fill="none" stroke="black" points="208,-440.648 13,-440.648 "/>
<path fill="none" stroke="black" d="M13,-440.648C7,-440.648 1,-434.648 1,-428.648"/>
<polyline fill="none" stroke="black" points="1,-428.648 1,-350.648 "/>
<path fill="none" stroke="black" d="M1,-350.648C1,-344.648 7,-338.648 13,-338.648"/>
<text text-anchor="middle" x="110.5" y="-424.048" font-family="Times Roman,serif" font-size="14.00">EmailConfirmationsController</text>
<polyline fill="none" stroke="black" points="1,-414.648 220,-414.648 "/>
<text text-anchor="start" x="9" y="-398.048" font-family="Times Roman,serif" font-size="14.00">new</text>
<polyline fill="none" stroke="black" points="1,-388.648 220,-388.648 "/>
<polyline fill="none" stroke="black" points="1,-364.648 220,-364.648 "/>
<text text-anchor="start" x="9" y="-348.048" font-family="Times Roman,serif" font-size="14.00">_layout</text>
</g>
<!-- ApplicationController&#45;&gt;EmailConfirmationsController -->
<g id="edge12" class="edge"><title>ApplicationController&#45;&gt;EmailConfirmationsController</title>
<path fill="none" stroke="black" d="M276.511,-450.388C258.514,-443.803 239.14,-436.714 220.202,-429.786"/>
</g>
<!-- EventsController -->
<g id="node9" class="node"><title>EventsController</title>
<polyline fill="none" stroke="black" points="787.072,-347.656 896.072,-347.656 "/>
<path fill="none" stroke="black" d="M896.072,-347.656C902.072,-347.656 908.072,-353.656 908.072,-359.656"/>
<polyline fill="none" stroke="black" points="908.072,-359.656 908.072,-437.656 "/>
<path fill="none" stroke="black" d="M908.072,-437.656C908.072,-443.656 902.072,-449.656 896.072,-449.656"/>
<polyline fill="none" stroke="black" points="896.072,-449.656 787.072,-449.656 "/>
<path fill="none" stroke="black" d="M787.072,-449.656C781.072,-449.656 775.072,-443.656 775.072,-437.656"/>
<polyline fill="none" stroke="black" points="775.072,-437.656 775.072,-359.656 "/>
<path fill="none" stroke="black" d="M775.072,-359.656C775.072,-353.656 781.072,-347.656 787.072,-347.656"/>
<text text-anchor="middle" x="841.572" y="-433.056" font-family="Times Roman,serif" font-size="14.00">EventsController</text>
<polyline fill="none" stroke="black" points="775.072,-423.656 908.072,-423.656 "/>
<text text-anchor="start" x="783.072" y="-407.056" font-family="Times Roman,serif" font-size="14.00">create</text>
<polyline fill="none" stroke="black" points="775.072,-397.656 908.072,-397.656 "/>
<polyline fill="none" stroke="black" points="775.072,-373.656 908.072,-373.656 "/>
<text text-anchor="start" x="783.072" y="-357.056" font-family="Times Roman,serif" font-size="14.00">_layout</text>
</g>
<!-- ApplicationController&#45;&gt;EventsController -->
<g id="edge14" class="edge"><title>ApplicationController&#45;&gt;EventsController</title>
<path fill="none" stroke="black" d="M437.839,-466.442C532.236,-450.593 686.95,-424.617 774.917,-409.847"/>
</g>
<!-- PasswordResetsController -->
<g id="node10" class="node"><title>PasswordResetsController</title>
<polyline fill="none" stroke="black" points="26.0111,-54.1205 198.011,-54.1205 "/>
<path fill="none" stroke="black" d="M198.011,-54.1205C204.011,-54.1205 210.011,-60.1205 210.011,-66.1205"/>
<polyline fill="none" stroke="black" points="210.011,-66.1205 210.011,-198.12 "/>
<path fill="none" stroke="black" d="M210.011,-198.12C210.011,-204.12 204.011,-210.12 198.011,-210.12"/>
<polyline fill="none" stroke="black" points="198.011,-210.12 26.0111,-210.12 "/>
<path fill="none" stroke="black" d="M26.0111,-210.12C20.0111,-210.12 14.0111,-204.12 14.0111,-198.12"/>
<polyline fill="none" stroke="black" points="14.0111,-198.12 14.0111,-66.1205 "/>
<path fill="none" stroke="black" d="M14.0111,-66.1205C14.0111,-60.1205 20.0111,-54.1205 26.0111,-54.1205"/>
<text text-anchor="middle" x="112.011" y="-193.52" font-family="Times Roman,serif" font-size="14.00">PasswordResetsController</text>
<polyline fill="none" stroke="black" points="14.0111,-184.12 210.011,-184.12 "/>
<text text-anchor="start" x="22.0111" y="-167.52" font-family="Times Roman,serif" font-size="14.00">create</text>
<text text-anchor="start" x="22.0111" y="-149.52" font-family="Times Roman,serif" font-size="14.00">edit</text>
<text text-anchor="start" x="22.0111" y="-131.52" font-family="Times Roman,serif" font-size="14.00">new</text>
<text text-anchor="start" x="22.0111" y="-113.52" font-family="Times Roman,serif" font-size="14.00">update</text>
<polyline fill="none" stroke="black" points="14.0111,-104.12 210.011,-104.12 "/>
<polyline fill="none" stroke="black" points="14.0111,-80.1205 210.011,-80.1205 "/>
<text text-anchor="start" x="22.0111" y="-63.5205" font-family="Times Roman,serif" font-size="14.00">_layout</text>
</g>
<!-- ApplicationController&#45;&gt;PasswordResetsController -->
<g id="edge16" class="edge"><title>ApplicationController&#45;&gt;PasswordResetsController</title>
<path fill="none" stroke="black" d="M315.718,-420.953C274.844,-362.998 212.238,-274.23 167.221,-210.402"/>
</g>
<!-- QuizzesController -->
<g id="node11" class="node"><title>QuizzesController</title>
<polyline fill="none" stroke="black" points="730.235,-1.5 847.235,-1.5 "/>
<path fill="none" stroke="black" d="M847.235,-1.5C853.235,-1.5 859.235,-7.5 859.235,-13.5"/>
<polyline fill="none" stroke="black" points="859.235,-13.5 859.235,-235.5 "/>
<path fill="none" stroke="black" d="M859.235,-235.5C859.235,-241.5 853.235,-247.5 847.235,-247.5"/>
<polyline fill="none" stroke="black" points="847.235,-247.5 730.235,-247.5 "/>
<path fill="none" stroke="black" d="M730.235,-247.5C724.235,-247.5 718.235,-241.5 718.235,-235.5"/>
<polyline fill="none" stroke="black" points="718.235,-235.5 718.235,-13.5 "/>
<path fill="none" stroke="black" d="M718.235,-13.5C718.235,-7.5 724.235,-1.5 730.235,-1.5"/>
<text text-anchor="middle" x="788.735" y="-230.9" font-family="Times Roman,serif" font-size="14.00">QuizzesController</text>
<polyline fill="none" stroke="black" points="718.235,-221.5 859.235,-221.5 "/>
<text text-anchor="start" x="726.235" y="-204.9" font-family="Times Roman,serif" font-size="14.00">answers</text>
<text text-anchor="start" x="726.235" y="-186.9" font-family="Times Roman,serif" font-size="14.00">create</text>
<text text-anchor="start" x="726.235" y="-168.9" font-family="Times Roman,serif" font-size="14.00">destroy</text>
<text text-anchor="start" x="726.235" y="-150.9" font-family="Times Roman,serif" font-size="14.00">edit</text>
<text text-anchor="start" x="726.235" y="-132.9" font-family="Times Roman,serif" font-size="14.00">index</text>
<text text-anchor="start" x="726.235" y="-114.9" font-family="Times Roman,serif" font-size="14.00">new</text>
<text text-anchor="start" x="726.235" y="-96.9" font-family="Times Roman,serif" font-size="14.00">show</text>
<text text-anchor="start" x="726.235" y="-78.9" font-family="Times Roman,serif" font-size="14.00">update</text>
<polyline fill="none" stroke="black" points="718.235,-69.5 859.235,-69.5 "/>
<polyline fill="none" stroke="black" points="718.235,-45.5 859.235,-45.5 "/>
<text text-anchor="start" x="726.235" y="-28.9" font-family="Times Roman,serif" font-size="14.00">_layout</text>
<text text-anchor="start" x="726.235" y="-10.9" font-family="Times Roman,serif" font-size="14.00">quiz_params</text>
</g>
<!-- ApplicationController&#45;&gt;QuizzesController -->
<g id="edge18" class="edge"><title>ApplicationController&#45;&gt;QuizzesController</title>
<path fill="none" stroke="black" d="M376.864,-420.667C396.023,-370.622 429.681,-300.089 479.615,-254.849 548.028,-192.867 650.223,-157.669 718.143,-139.848"/>
</g>
<!-- ResultsController -->
<g id="node12" class="node"><title>ResultsController</title>
<polyline fill="none" stroke="black" points="494.815,-258.049 605.815,-258.049 "/>
<path fill="none" stroke="black" d="M605.815,-258.049C611.815,-258.049 617.815,-264.049 617.815,-270.049"/>
<polyline fill="none" stroke="black" points="617.815,-270.049 617.815,-384.049 "/>
<path fill="none" stroke="black" d="M617.815,-384.049C617.815,-390.049 611.815,-396.049 605.815,-396.049"/>
<polyline fill="none" stroke="black" points="605.815,-396.049 494.815,-396.049 "/>
<path fill="none" stroke="black" d="M494.815,-396.049C488.815,-396.049 482.815,-390.049 482.815,-384.049"/>
<polyline fill="none" stroke="black" points="482.815,-384.049 482.815,-270.049 "/>
<path fill="none" stroke="black" d="M482.815,-270.049C482.815,-264.049 488.815,-258.049 494.815,-258.049"/>
<text text-anchor="middle" x="550.315" y="-379.449" font-family="Times Roman,serif" font-size="14.00">ResultsController</text>
<polyline fill="none" stroke="black" points="482.815,-370.049 617.815,-370.049 "/>
<text text-anchor="start" x="490.815" y="-353.449" font-family="Times Roman,serif" font-size="14.00">edit</text>
<text text-anchor="start" x="490.815" y="-335.449" font-family="Times Roman,serif" font-size="14.00">result_params</text>
<text text-anchor="start" x="490.815" y="-317.449" font-family="Times Roman,serif" font-size="14.00">update</text>
<polyline fill="none" stroke="black" points="482.815,-308.049 617.815,-308.049 "/>
<polyline fill="none" stroke="black" points="482.815,-284.049 617.815,-284.049 "/>
<text text-anchor="start" x="490.815" y="-267.449" font-family="Times Roman,serif" font-size="14.00">_layout</text>
</g>
<!-- ApplicationController&#45;&gt;ResultsController -->
<g id="edge20" class="edge"><title>ApplicationController&#45;&gt;ResultsController</title>
<path fill="none" stroke="black" d="M431.945,-420.84C448.597,-407.645 466.167,-393.724 482.526,-380.762"/>
</g>
<!-- SessionsController -->
<g id="node13" class="node"><title>SessionsController</title>
<polyline fill="none" stroke="black" points="18.2358,-570.022 138.236,-570.022 "/>
<path fill="none" stroke="black" d="M138.236,-570.022C144.236,-570.022 150.236,-576.022 150.236,-582.022"/>
<polyline fill="none" stroke="black" points="150.236,-582.022 150.236,-696.022 "/>
<path fill="none" stroke="black" d="M150.236,-696.022C150.236,-702.022 144.236,-708.022 138.236,-708.022"/>
<polyline fill="none" stroke="black" points="138.236,-708.022 18.2358,-708.022 "/>
<path fill="none" stroke="black" d="M18.2358,-708.022C12.2358,-708.022 6.23585,-702.022 6.23585,-696.022"/>
<polyline fill="none" stroke="black" points="6.23585,-696.022 6.23585,-582.022 "/>
<path fill="none" stroke="black" d="M6.23585,-582.022C6.23585,-576.022 12.2358,-570.022 18.2358,-570.022"/>
<text text-anchor="middle" x="78.2358" y="-691.422" font-family="Times Roman,serif" font-size="14.00">SessionsController</text>
<polyline fill="none" stroke="black" points="6.23585,-682.022 150.236,-682.022 "/>
<text text-anchor="start" x="14.2358" y="-665.422" font-family="Times Roman,serif" font-size="14.00">create</text>
<text text-anchor="start" x="14.2358" y="-647.422" font-family="Times Roman,serif" font-size="14.00">destroy</text>
<text text-anchor="start" x="14.2358" y="-629.422" font-family="Times Roman,serif" font-size="14.00">new</text>
<polyline fill="none" stroke="black" points="6.23585,-620.022 150.236,-620.022 "/>
<polyline fill="none" stroke="black" points="6.23585,-596.022 150.236,-596.022 "/>
<text text-anchor="start" x="14.2358" y="-579.422" font-family="Times Roman,serif" font-size="14.00">_layout</text>
</g>
<!-- ApplicationController&#45;&gt;SessionsController -->
<g id="edge22" class="edge"><title>ApplicationController&#45;&gt;SessionsController</title>
<path fill="none" stroke="black" d="M276.607,-525.966C236.842,-548.629 189.277,-575.738 150.692,-597.728"/>
</g>
<!-- UsersController -->
<g id="node14" class="node"><title>UsersController</title>
<polyline fill="none" stroke="black" points="781.6,-524.826 907.6,-524.826 "/>
<path fill="none" stroke="black" d="M907.6,-524.826C913.6,-524.826 919.6,-530.826 919.6,-536.826"/>
<polyline fill="none" stroke="black" points="919.6,-536.826 919.6,-794.826 "/>
<path fill="none" stroke="black" d="M919.6,-794.826C919.6,-800.826 913.6,-806.826 907.6,-806.826"/>
<polyline fill="none" stroke="black" points="907.6,-806.826 781.6,-806.826 "/>
<path fill="none" stroke="black" d="M781.6,-806.826C775.6,-806.826 769.6,-800.826 769.6,-794.826"/>
<polyline fill="none" stroke="black" points="769.6,-794.826 769.6,-536.826 "/>
<path fill="none" stroke="black" d="M769.6,-536.826C769.6,-530.826 775.6,-524.826 781.6,-524.826"/>
<text text-anchor="middle" x="844.6" y="-790.226" font-family="Times Roman,serif" font-size="14.00">UsersController</text>
<polyline fill="none" stroke="black" points="769.6,-780.826 919.6,-780.826 "/>
<text text-anchor="start" x="777.6" y="-764.226" font-family="Times Roman,serif" font-size="14.00">create</text>
<text text-anchor="start" x="777.6" y="-746.226" font-family="Times Roman,serif" font-size="14.00">destroy</text>
<text text-anchor="start" x="777.6" y="-728.226" font-family="Times Roman,serif" font-size="14.00">edit</text>
<text text-anchor="start" x="777.6" y="-710.226" font-family="Times Roman,serif" font-size="14.00">index</text>
<text text-anchor="start" x="777.6" y="-692.226" font-family="Times Roman,serif" font-size="14.00">new</text>
<text text-anchor="start" x="777.6" y="-674.226" font-family="Times Roman,serif" font-size="14.00">reconfirm</text>
<text text-anchor="start" x="777.6" y="-656.226" font-family="Times Roman,serif" font-size="14.00">show</text>
<text text-anchor="start" x="777.6" y="-638.226" font-family="Times Roman,serif" font-size="14.00">update</text>
<polyline fill="none" stroke="black" points="769.6,-628.826 919.6,-628.826 "/>
<polyline fill="none" stroke="black" points="769.6,-604.826 919.6,-604.826 "/>
<text text-anchor="start" x="777.6" y="-588.226" font-family="Times Roman,serif" font-size="14.00">_layout</text>
<text text-anchor="start" x="777.6" y="-570.226" font-family="Times Roman,serif" font-size="14.00">set_user</text>
<text text-anchor="start" x="777.6" y="-552.226" font-family="Times Roman,serif" font-size="14.00">user_params</text>
<text text-anchor="start" x="777.6" y="-534.226" font-family="Times Roman,serif" font-size="14.00">user_params_nopw</text>
</g>
<!-- ApplicationController&#45;&gt;UsersController -->
<g id="edge24" class="edge"><title>ApplicationController&#45;&gt;UsersController</title>
<path fill="none" stroke="black" d="M413.713,-539.199C443.26,-566.662 481.6,-597.141 521.714,-615.149 601.303,-650.88 701.758,-661.971 769.308,-665.131"/>
</g>
<!-- VideosController -->
<g id="node15" class="node"><title>VideosController</title>
<polyline fill="none" stroke="black" points="748.391,-836.508 855.391,-836.508 "/>
<path fill="none" stroke="black" d="M855.391,-836.508C861.391,-836.508 867.391,-842.508 867.391,-848.508"/>
<polyline fill="none" stroke="black" points="867.391,-848.508 867.391,-1052.51 "/>
<path fill="none" stroke="black" d="M867.391,-1052.51C867.391,-1058.51 861.391,-1064.51 855.391,-1064.51"/>
<polyline fill="none" stroke="black" points="855.391,-1064.51 748.391,-1064.51 "/>
<path fill="none" stroke="black" d="M748.391,-1064.51C742.391,-1064.51 736.391,-1058.51 736.391,-1052.51"/>
<polyline fill="none" stroke="black" points="736.391,-1052.51 736.391,-848.508 "/>
<path fill="none" stroke="black" d="M736.391,-848.508C736.391,-842.508 742.391,-836.508 748.391,-836.508"/>
<text text-anchor="middle" x="801.891" y="-1047.91" font-family="Times Roman,serif" font-size="14.00">VideosController</text>
<polyline fill="none" stroke="black" points="736.391,-1038.51 867.391,-1038.51 "/>
<text text-anchor="start" x="744.391" y="-1021.91" font-family="Times Roman,serif" font-size="14.00">create</text>
<text text-anchor="start" x="744.391" y="-1003.91" font-family="Times Roman,serif" font-size="14.00">destroy</text>
<text text-anchor="start" x="744.391" y="-985.908" font-family="Times Roman,serif" font-size="14.00">edit</text>
<text text-anchor="start" x="744.391" y="-967.908" font-family="Times Roman,serif" font-size="14.00">index</text>
<text text-anchor="start" x="744.391" y="-949.908" font-family="Times Roman,serif" font-size="14.00">new</text>
<text text-anchor="start" x="744.391" y="-931.908" font-family="Times Roman,serif" font-size="14.00">show</text>
<text text-anchor="start" x="744.391" y="-913.908" font-family="Times Roman,serif" font-size="14.00">update</text>
<polyline fill="none" stroke="black" points="736.391,-904.508 867.391,-904.508 "/>
<polyline fill="none" stroke="black" points="736.391,-880.508 867.391,-880.508 "/>
<text text-anchor="start" x="744.391" y="-863.908" font-family="Times Roman,serif" font-size="14.00">_layout</text>
<text text-anchor="start" x="744.391" y="-845.908" font-family="Times Roman,serif" font-size="14.00">video_params</text>
</g>
<!-- ApplicationController&#45;&gt;VideosController -->
<g id="edge26" class="edge"><title>ApplicationController&#45;&gt;VideosController</title>
<path fill="none" stroke="black" d="M422.383,-538.979C451.62,-564.024 487.247,-592.579 521.714,-615.149 572.699,-648.535 599.665,-635.472 643.89,-677.403 690.696,-721.782 727.872,-783.115 754.374,-836.416"/>
</g>
<!-- WelcomeController -->
<g id="node16" class="node"><title>WelcomeController</title>
<polyline fill="none" stroke="black" points="391.358,-912.032 515.358,-912.032 "/>
<path fill="none" stroke="black" d="M515.358,-912.032C521.358,-912.032 527.358,-918.032 527.358,-924.032"/>
<polyline fill="none" stroke="black" points="527.358,-924.032 527.358,-1020.03 "/>
<path fill="none" stroke="black" d="M527.358,-1020.03C527.358,-1026.03 521.358,-1032.03 515.358,-1032.03"/>
<polyline fill="none" stroke="black" points="515.358,-1032.03 391.358,-1032.03 "/>
<path fill="none" stroke="black" d="M391.358,-1032.03C385.358,-1032.03 379.358,-1026.03 379.358,-1020.03"/>
<polyline fill="none" stroke="black" points="379.358,-1020.03 379.358,-924.032 "/>
<path fill="none" stroke="black" d="M379.358,-924.032C379.358,-918.032 385.358,-912.032 391.358,-912.032"/>
<text text-anchor="middle" x="453.358" y="-1015.43" font-family="Times Roman,serif" font-size="14.00">WelcomeController</text>
<polyline fill="none" stroke="black" points="379.358,-1006.03 527.358,-1006.03 "/>
<text text-anchor="start" x="387.358" y="-989.432" font-family="Times Roman,serif" font-size="14.00">about</text>
<text text-anchor="start" x="387.358" y="-971.432" font-family="Times Roman,serif" font-size="14.00">index</text>
<polyline fill="none" stroke="black" points="379.358,-962.032 527.358,-962.032 "/>
<polyline fill="none" stroke="black" points="379.358,-938.032 527.358,-938.032 "/>
<text text-anchor="start" x="387.358" y="-921.432" font-family="Times Roman,serif" font-size="14.00">_layout</text>
</g>
<!-- ApplicationController&#45;&gt;WelcomeController -->
<g id="edge28" class="edge"><title>ApplicationController&#45;&gt;WelcomeController</title>
<path fill="none" stroke="black" d="M380.951,-539.051C388.752,-560.432 396.852,-584.943 402.423,-607.811 428.081,-713.112 442.107,-838.907 448.646,-911.719"/>
</g>
</g>
</svg>
