<?xml version="1.0" encoding="UTF-8" standalone="no"?>
<!DOCTYPE svg PUBLIC "-//W3C//DTD SVG 1.1//EN"
 "http://www.w3.org/Graphics/SVG/1.1/DTD/svg11.dtd">
<!-- Generated by graphviz version 2.26.3 (20100126.1600)
 -->
<!-- Title: controllers_diagram Pages: 1 -->
<svg width="1157pt" height="925pt"
 viewBox="0.00 0.00 1157.00 925.27" xmlns="http://www.w3.org/2000/svg" xmlns:xlink="http://www.w3.org/1999/xlink">
<g id="graph1" class="graph" transform="scale(1 1) rotate(0) translate(4 921.273)">
<title>controllers_diagram</title>
<polygon fill="white" stroke="white" points="-4,5 -4,-921.273 1154,-921.273 1154,5 -4,5"/>
<!-- _diagram_info -->
<g id="node1" class="node"><title>_diagram_info</title>
<text text-anchor="start" x="906" y="-78.3" font-family="Times Roman,serif" font-size="13.00">Controllers diagram</text>
<text text-anchor="start" x="906" y="-61.3" font-family="Times Roman,serif" font-size="13.00">Date: Dec 17 2013 &#45; 05:05</text>
<text text-anchor="start" x="906" y="-44.3" font-family="Times Roman,serif" font-size="13.00">Migration version: 20131216053748</text>
<text text-anchor="start" x="906" y="-27.3" font-family="Times Roman,serif" font-size="13.00">Generated by RailRoady 1.1.1</text>
<text text-anchor="start" x="906" y="-10.3" font-family="Times Roman,serif" font-size="13.00">http://railroady.prestonlee.com</text>
</g>
<!-- ApplicationController -->
<g id="node2" class="node"><title>ApplicationController</title>
<polyline fill="none" stroke="black" points="337.605,-388.598 474.605,-388.598 "/>
<path fill="none" stroke="black" d="M474.605,-388.598C480.605,-388.598 486.605,-394.598 486.605,-400.598"/>
<polyline fill="none" stroke="black" points="486.605,-400.598 486.605,-480.598 "/>
<path fill="none" stroke="black" d="M486.605,-480.598C486.605,-486.598 480.605,-492.598 474.605,-492.598"/>
<polyline fill="none" stroke="black" points="474.605,-492.598 337.605,-492.598 "/>
<path fill="none" stroke="black" d="M337.605,-492.598C331.605,-492.598 325.605,-486.598 325.605,-480.598"/>
<polyline fill="none" stroke="black" points="325.605,-480.598 325.605,-400.598 "/>
<path fill="none" stroke="black" d="M325.605,-400.598C325.605,-394.598 331.605,-388.598 337.605,-388.598"/>
<text text-anchor="middle" x="406.105" y="-475.998" font-family="Times Roman,serif" font-size="14.00">ApplicationController</text>
<polyline fill="none" stroke="black" points="325.605,-466.598 486.605,-466.598 "/>
<text text-anchor="start" x="333.605" y="-449.998" font-family="Times Roman,serif" font-size="14.00">current_user</text>
<polyline fill="none" stroke="black" points="325.605,-440.598 486.605,-440.598 "/>
<text text-anchor="start" x="333.605" y="-423.998" font-family="Times Roman,serif" font-size="14.00">authorize</text>
<polyline fill="none" stroke="black" points="325.605,-414.598 486.605,-414.598 "/>
<text text-anchor="start" x="333.605" y="-397.998" font-family="Times Roman,serif" font-size="14.00">_layout</text>
</g>
<!-- AttemptsController -->
<g id="node3" class="node"><title>AttemptsController</title>
<polyline fill="none" stroke="black" points="676.406,-720.281 801.406,-720.281 "/>
<path fill="none" stroke="black" d="M801.406,-720.281C807.406,-720.281 813.406,-726.281 813.406,-732.281"/>
<polyline fill="none" stroke="black" points="813.406,-732.281 813.406,-864.281 "/>
<path fill="none" stroke="black" d="M813.406,-864.281C813.406,-870.281 807.406,-876.281 801.406,-876.281"/>
<polyline fill="none" stroke="black" points="801.406,-876.281 676.406,-876.281 "/>
<path fill="none" stroke="black" d="M676.406,-876.281C670.406,-876.281 664.406,-870.281 664.406,-864.281"/>
<polyline fill="none" stroke="black" points="664.406,-864.281 664.406,-732.281 "/>
<path fill="none" stroke="black" d="M664.406,-732.281C664.406,-726.281 670.406,-720.281 676.406,-720.281"/>
<text text-anchor="middle" x="738.906" y="-859.681" font-family="Times Roman,serif" font-size="14.00">AttemptsController</text>
<polyline fill="none" stroke="black" points="664.406,-850.281 813.406,-850.281 "/>
<text text-anchor="start" x="672.406" y="-833.681" font-family="Times Roman,serif" font-size="14.00">index</text>
<text text-anchor="start" x="672.406" y="-815.681" font-family="Times Roman,serif" font-size="14.00">new</text>
<text text-anchor="start" x="672.406" y="-797.681" font-family="Times Roman,serif" font-size="14.00">show</text>
<polyline fill="none" stroke="black" points="664.406,-788.281 813.406,-788.281 "/>
<polyline fill="none" stroke="black" points="664.406,-764.281 813.406,-764.281 "/>
<text text-anchor="start" x="672.406" y="-747.681" font-family="Times Roman,serif" font-size="14.00">_layout</text>
<text text-anchor="start" x="672.406" y="-729.681" font-family="Times Roman,serif" font-size="14.00">attempt_params</text>
</g>
<!-- ApplicationController&#45;&gt;AttemptsController -->
<g id="edge2" class="edge"><title>ApplicationController&#45;&gt;AttemptsController</title>
<path fill="none" stroke="black" d="M454.497,-492.608C510.112,-552.381 601.962,-651.099 666.19,-720.129"/>
</g>
<!-- CertificatesController -->
<g id="node4" class="node"><title>CertificatesController</title>
<polyline fill="none" stroke="black" points="243.147,-13.4198 383.147,-13.4198 "/>
<path fill="none" stroke="black" d="M383.147,-13.4198C389.147,-13.4198 395.147,-19.4198 395.147,-25.4198"/>
<polyline fill="none" stroke="black" points="395.147,-25.4198 395.147,-193.42 "/>
<path fill="none" stroke="black" d="M395.147,-193.42C395.147,-199.42 389.147,-205.42 383.147,-205.42"/>
<polyline fill="none" stroke="black" points="383.147,-205.42 243.147,-205.42 "/>
<path fill="none" stroke="black" d="M243.147,-205.42C237.147,-205.42 231.147,-199.42 231.147,-193.42"/>
<polyline fill="none" stroke="black" points="231.147,-193.42 231.147,-25.4198 "/>
<path fill="none" stroke="black" d="M231.147,-25.4198C231.147,-19.4198 237.147,-13.4198 243.147,-13.4198"/>
<text text-anchor="middle" x="313.147" y="-188.82" font-family="Times Roman,serif" font-size="14.00">CertificatesController</text>
<polyline fill="none" stroke="black" points="231.147,-179.42 395.147,-179.42 "/>
<text text-anchor="start" x="239.147" y="-162.82" font-family="Times Roman,serif" font-size="14.00">create</text>
<text text-anchor="start" x="239.147" y="-144.82" font-family="Times Roman,serif" font-size="14.00">edit</text>
<text text-anchor="start" x="239.147" y="-126.82" font-family="Times Roman,serif" font-size="14.00">index</text>
<text text-anchor="start" x="239.147" y="-108.82" font-family="Times Roman,serif" font-size="14.00">new</text>
<text text-anchor="start" x="239.147" y="-90.8198" font-family="Times Roman,serif" font-size="14.00">show</text>
<polyline fill="none" stroke="black" points="231.147,-81.4198 395.147,-81.4198 "/>
<polyline fill="none" stroke="black" points="231.147,-57.4198 395.147,-57.4198 "/>
<text text-anchor="start" x="239.147" y="-40.8198" font-family="Times Roman,serif" font-size="14.00">_layout</text>
<text text-anchor="start" x="239.147" y="-22.8198" font-family="Times Roman,serif" font-size="14.00">certificate_params</text>
</g>
<!-- ApplicationController&#45;&gt;CertificatesController -->
<g id="edge4" class="edge"><title>ApplicationController&#45;&gt;CertificatesController</title>
<path fill="none" stroke="black" d="M391.478,-388.487C377.75,-339.578 356.878,-265.22 340.131,-205.555"/>
</g>
<!-- ChargesController -->
<g id="node5" class="node"><title>ChargesController</title>
<polyline fill="none" stroke="black" points="253.658,-697.17 371.658,-697.17 "/>
<path fill="none" stroke="black" d="M371.658,-697.17C377.658,-697.17 383.658,-703.17 383.658,-709.17"/>
<polyline fill="none" stroke="black" points="383.658,-709.17 383.658,-805.17 "/>
<path fill="none" stroke="black" d="M383.658,-805.17C383.658,-811.17 377.658,-817.17 371.658,-817.17"/>
<polyline fill="none" stroke="black" points="371.658,-817.17 253.658,-817.17 "/>
<path fill="none" stroke="black" d="M253.658,-817.17C247.658,-817.17 241.658,-811.17 241.658,-805.17"/>
<polyline fill="none" stroke="black" points="241.658,-805.17 241.658,-709.17 "/>
<path fill="none" stroke="black" d="M241.658,-709.17C241.658,-703.17 247.658,-697.17 253.658,-697.17"/>
<text text-anchor="middle" x="312.658" y="-800.57" font-family="Times Roman,serif" font-size="14.00">ChargesController</text>
<polyline fill="none" stroke="black" points="241.658,-791.17 383.658,-791.17 "/>
<text text-anchor="start" x="249.658" y="-774.57" font-family="Times Roman,serif" font-size="14.00">create</text>
<text text-anchor="start" x="249.658" y="-756.57" font-family="Times Roman,serif" font-size="14.00">new</text>
<polyline fill="none" stroke="black" points="241.658,-747.17 383.658,-747.17 "/>
<polyline fill="none" stroke="black" points="241.658,-723.17 383.658,-723.17 "/>
<text text-anchor="start" x="249.658" y="-706.57" font-family="Times Roman,serif" font-size="14.00">_layout</text>
</g>
<!-- ApplicationController&#45;&gt;ChargesController -->
<g id="edge6" class="edge"><title>ApplicationController&#45;&gt;ChargesController</title>
<path fill="none" stroke="black" d="M390.674,-492.873C374.112,-548.983 347.84,-637.983 330.426,-696.976"/>
</g>
<!-- ContactController -->
<g id="node6" class="node"><title>ContactController</title>
<polyline fill="none" stroke="black" points="441.997,-710.397 557.997,-710.397 "/>
<path fill="none" stroke="black" d="M557.997,-710.397C563.997,-710.397 569.997,-716.397 569.997,-722.397"/>
<polyline fill="none" stroke="black" points="569.997,-722.397 569.997,-818.397 "/>
<path fill="none" stroke="black" d="M569.997,-818.397C569.997,-824.397 563.997,-830.397 557.997,-830.397"/>
<polyline fill="none" stroke="black" points="557.997,-830.397 441.997,-830.397 "/>
<path fill="none" stroke="black" d="M441.997,-830.397C435.997,-830.397 429.997,-824.397 429.997,-818.397"/>
<polyline fill="none" stroke="black" points="429.997,-818.397 429.997,-722.397 "/>
<path fill="none" stroke="black" d="M429.997,-722.397C429.997,-716.397 435.997,-710.397 441.997,-710.397"/>
<text text-anchor="middle" x="499.997" y="-813.797" font-family="Times Roman,serif" font-size="14.00">ContactController</text>
<polyline fill="none" stroke="black" points="429.997,-804.397 569.997,-804.397 "/>
<text text-anchor="start" x="437.997" y="-787.797" font-family="Times Roman,serif" font-size="14.00">create</text>
<text text-anchor="start" x="437.997" y="-769.797" font-family="Times Roman,serif" font-size="14.00">new</text>
<polyline fill="none" stroke="black" points="429.997,-760.397 569.997,-760.397 "/>
<polyline fill="none" stroke="black" points="429.997,-736.397 569.997,-736.397 "/>
<text text-anchor="start" x="437.997" y="-719.797" font-family="Times Roman,serif" font-size="14.00">_layout</text>
</g>
<!-- ApplicationController&#45;&gt;ContactController -->
<g id="edge8" class="edge"><title>ApplicationController&#45;&gt;ContactController</title>
<path fill="none" stroke="black" d="M420.982,-492.856C437.814,-551.976 465.179,-648.099 482.882,-710.282"/>
</g>
<!-- CoursesController -->
<g id="node7" class="node"><title>CoursesController</title>
<polyline fill="none" stroke="black" points="19.4755,-687.773 135.476,-687.773 "/>
<path fill="none" stroke="black" d="M135.476,-687.773C141.476,-687.773 147.476,-693.773 147.476,-699.773"/>
<polyline fill="none" stroke="black" points="147.476,-699.773 147.476,-903.773 "/>
<path fill="none" stroke="black" d="M147.476,-903.773C147.476,-909.773 141.476,-915.773 135.476,-915.773"/>
<polyline fill="none" stroke="black" points="135.476,-915.773 19.4755,-915.773 "/>
<path fill="none" stroke="black" d="M19.4755,-915.773C13.4755,-915.773 7.47553,-909.773 7.47553,-903.773"/>
<polyline fill="none" stroke="black" points="7.47553,-903.773 7.47553,-699.773 "/>
<path fill="none" stroke="black" d="M7.47553,-699.773C7.47553,-693.773 13.4755,-687.773 19.4755,-687.773"/>
<text text-anchor="middle" x="77.4755" y="-899.173" font-family="Times Roman,serif" font-size="14.00">CoursesController</text>
<polyline fill="none" stroke="black" points="7.47553,-889.773 147.476,-889.773 "/>
<text text-anchor="start" x="15.4755" y="-873.173" font-family="Times Roman,serif" font-size="14.00">create</text>
<text text-anchor="start" x="15.4755" y="-855.173" font-family="Times Roman,serif" font-size="14.00">destroy</text>
<text text-anchor="start" x="15.4755" y="-837.173" font-family="Times Roman,serif" font-size="14.00">edit</text>
<text text-anchor="start" x="15.4755" y="-819.173" font-family="Times Roman,serif" font-size="14.00">index</text>
<text text-anchor="start" x="15.4755" y="-801.173" font-family="Times Roman,serif" font-size="14.00">new</text>
<text text-anchor="start" x="15.4755" y="-783.173" font-family="Times Roman,serif" font-size="14.00">show</text>
<text text-anchor="start" x="15.4755" y="-765.173" font-family="Times Roman,serif" font-size="14.00">update</text>
<polyline fill="none" stroke="black" points="7.47553,-755.773 147.476,-755.773 "/>
<polyline fill="none" stroke="black" points="7.47553,-731.773 147.476,-731.773 "/>
<text text-anchor="start" x="15.4755" y="-715.173" font-family="Times Roman,serif" font-size="14.00">_layout</text>
<text text-anchor="start" x="15.4755" y="-697.173" font-family="Times Roman,serif" font-size="14.00">course_params</text>
</g>
<!-- ApplicationController&#45;&gt;CoursesController -->
<g id="edge10" class="edge"><title>ApplicationController&#45;&gt;CoursesController</title>
<path fill="none" stroke="black" d="M358.67,-492.73C303.301,-553.582 211.221,-654.782 147.595,-724.709"/>
</g>
<!-- EmailConfirmationsController -->
<g id="node8" class="node"><title>EmailConfirmationsController</title>
<polyline fill="none" stroke="black" points="13,-285.755 208,-285.755 "/>
<path fill="none" stroke="black" d="M208,-285.755C214,-285.755 220,-291.755 220,-297.755"/>
<polyline fill="none" stroke="black" points="220,-297.755 220,-375.755 "/>
<path fill="none" stroke="black" d="M220,-375.755C220,-381.755 214,-387.755 208,-387.755"/>
<polyline fill="none" stroke="black" points="208,-387.755 13,-387.755 "/>
<path fill="none" stroke="black" d="M13,-387.755C7,-387.755 1,-381.755 1,-375.755"/>
<polyline fill="none" stroke="black" points="1,-375.755 1,-297.755 "/>
<path fill="none" stroke="black" d="M1,-297.755C1,-291.755 7,-285.755 13,-285.755"/>
<text text-anchor="middle" x="110.5" y="-371.155" font-family="Times Roman,serif" font-size="14.00">EmailConfirmationsController</text>
<polyline fill="none" stroke="black" points="1,-361.755 220,-361.755 "/>
<text text-anchor="start" x="9" y="-345.155" font-family="Times Roman,serif" font-size="14.00">new</text>
<polyline fill="none" stroke="black" points="1,-335.755 220,-335.755 "/>
<polyline fill="none" stroke="black" points="1,-311.755 220,-311.755 "/>
<text text-anchor="start" x="9" y="-295.155" font-family="Times Roman,serif" font-size="14.00">_layout</text>
</g>
<!-- ApplicationController&#45;&gt;EmailConfirmationsController -->
<g id="edge12" class="edge"><title>ApplicationController&#45;&gt;EmailConfirmationsController</title>
<path fill="none" stroke="black" d="M325.33,-412.222C292.936,-400.843 255.092,-387.549 220.27,-375.316"/>
</g>
<!-- QuizzesController -->
<g id="node9" class="node"><title>QuizzesController</title>
<polyline fill="none" stroke="black" points="650.962,-214.643 767.962,-214.643 "/>
<path fill="none" stroke="black" d="M767.962,-214.643C773.962,-214.643 779.962,-220.643 779.962,-226.643"/>
<polyline fill="none" stroke="black" points="779.962,-226.643 779.962,-448.643 "/>
<path fill="none" stroke="black" d="M779.962,-448.643C779.962,-454.643 773.962,-460.643 767.962,-460.643"/>
<polyline fill="none" stroke="black" points="767.962,-460.643 650.962,-460.643 "/>
<path fill="none" stroke="black" d="M650.962,-460.643C644.962,-460.643 638.962,-454.643 638.962,-448.643"/>
<polyline fill="none" stroke="black" points="638.962,-448.643 638.962,-226.643 "/>
<path fill="none" stroke="black" d="M638.962,-226.643C638.962,-220.643 644.962,-214.643 650.962,-214.643"/>
<text text-anchor="middle" x="709.462" y="-444.043" font-family="Times Roman,serif" font-size="14.00">QuizzesController</text>
<polyline fill="none" stroke="black" points="638.962,-434.643 779.962,-434.643 "/>
<text text-anchor="start" x="646.962" y="-418.043" font-family="Times Roman,serif" font-size="14.00">answers</text>
<text text-anchor="start" x="646.962" y="-400.043" font-family="Times Roman,serif" font-size="14.00">create</text>
<text text-anchor="start" x="646.962" y="-382.043" font-family="Times Roman,serif" font-size="14.00">destroy</text>
<text text-anchor="start" x="646.962" y="-364.043" font-family="Times Roman,serif" font-size="14.00">edit</text>
<text text-anchor="start" x="646.962" y="-346.043" font-family="Times Roman,serif" font-size="14.00">index</text>
<text text-anchor="start" x="646.962" y="-328.043" font-family="Times Roman,serif" font-size="14.00">new</text>
<text text-anchor="start" x="646.962" y="-310.043" font-family="Times Roman,serif" font-size="14.00">show</text>
<text text-anchor="start" x="646.962" y="-292.043" font-family="Times Roman,serif" font-size="14.00">update</text>
<polyline fill="none" stroke="black" points="638.962,-282.643 779.962,-282.643 "/>
<polyline fill="none" stroke="black" points="638.962,-258.643 779.962,-258.643 "/>
<text text-anchor="start" x="646.962" y="-242.043" font-family="Times Roman,serif" font-size="14.00">_layout</text>
<text text-anchor="start" x="646.962" y="-224.043" font-family="Times Roman,serif" font-size="14.00">quiz_params</text>
</g>
<!-- ApplicationController&#45;&gt;QuizzesController -->
<g id="edge14" class="edge"><title>ApplicationController&#45;&gt;QuizzesController</title>
<path fill="none" stroke="black" d="M487,-413.143C534.302,-397.09 593.444,-377.018 638.855,-361.606"/>
</g>
<!-- ResultsController -->
<g id="node10" class="node"><title>ResultsController</title>
<polyline fill="none" stroke="black" points="17.7376,-13.7269 128.738,-13.7269 "/>
<path fill="none" stroke="black" d="M128.738,-13.7269C134.738,-13.7269 140.738,-19.7269 140.738,-25.7269"/>
<polyline fill="none" stroke="black" points="140.738,-25.7269 140.738,-139.727 "/>
<path fill="none" stroke="black" d="M140.738,-139.727C140.738,-145.727 134.738,-151.727 128.738,-151.727"/>
<polyline fill="none" stroke="black" points="128.738,-151.727 17.7376,-151.727 "/>
<path fill="none" stroke="black" d="M17.7376,-151.727C11.7376,-151.727 5.73755,-145.727 5.73755,-139.727"/>
<polyline fill="none" stroke="black" points="5.73755,-139.727 5.73755,-25.7269 "/>
<path fill="none" stroke="black" d="M5.73755,-25.7269C5.73755,-19.7269 11.7376,-13.7269 17.7376,-13.7269"/>
<text text-anchor="middle" x="73.2376" y="-135.127" font-family="Times Roman,serif" font-size="14.00">ResultsController</text>
<polyline fill="none" stroke="black" points="5.73755,-125.727 140.738,-125.727 "/>
<text text-anchor="start" x="13.7376" y="-109.127" font-family="Times Roman,serif" font-size="14.00">edit</text>
<text text-anchor="start" x="13.7376" y="-91.1269" font-family="Times Roman,serif" font-size="14.00">result_params</text>
<text text-anchor="start" x="13.7376" y="-73.1269" font-family="Times Roman,serif" font-size="14.00">update</text>
<polyline fill="none" stroke="black" points="5.73755,-63.7269 140.738,-63.7269 "/>
<polyline fill="none" stroke="black" points="5.73755,-39.7269 140.738,-39.7269 "/>
<text text-anchor="start" x="13.7376" y="-23.1269" font-family="Times Roman,serif" font-size="14.00">_layout</text>
</g>
<!-- ApplicationController&#45;&gt;ResultsController -->
<g id="edge16" class="edge"><title>ApplicationController&#45;&gt;ResultsController</title>
<path fill="none" stroke="black" d="M357.703,-388.56C299.642,-326.139 202.099,-221.267 137.698,-152.03"/>
</g>
<!-- SessionsController -->
<g id="node11" class="node"><title>SessionsController</title>
<polyline fill="none" stroke="black" points="674.671,-9.92115 794.671,-9.92115 "/>
<path fill="none" stroke="black" d="M794.671,-9.92115C800.671,-9.92115 806.671,-15.9211 806.671,-21.9211"/>
<polyline fill="none" stroke="black" points="806.671,-21.9211 806.671,-135.921 "/>
<path fill="none" stroke="black" d="M806.671,-135.921C806.671,-141.921 800.671,-147.921 794.671,-147.921"/>
<polyline fill="none" stroke="black" points="794.671,-147.921 674.671,-147.921 "/>
<path fill="none" stroke="black" d="M674.671,-147.921C668.671,-147.921 662.671,-141.921 662.671,-135.921"/>
<polyline fill="none" stroke="black" points="662.671,-135.921 662.671,-21.9211 "/>
<path fill="none" stroke="black" d="M662.671,-21.9211C662.671,-15.9211 668.671,-9.92115 674.671,-9.92115"/>
<text text-anchor="middle" x="734.671" y="-131.321" font-family="Times Roman,serif" font-size="14.00">SessionsController</text>
<polyline fill="none" stroke="black" points="662.671,-121.921 806.671,-121.921 "/>
<text text-anchor="start" x="670.671" y="-105.321" font-family="Times Roman,serif" font-size="14.00">create</text>
<text text-anchor="start" x="670.671" y="-87.3211" font-family="Times Roman,serif" font-size="14.00">destroy</text>
<text text-anchor="start" x="670.671" y="-69.3211" font-family="Times Roman,serif" font-size="14.00">new</text>
<polyline fill="none" stroke="black" points="662.671,-59.9211 806.671,-59.9211 "/>
<polyline fill="none" stroke="black" points="662.671,-35.9211 806.671,-35.9211 "/>
<text text-anchor="start" x="670.671" y="-19.3211" font-family="Times Roman,serif" font-size="14.00">_layout</text>
</g>
<!-- ApplicationController&#45;&gt;SessionsController -->
<g id="edge18" class="edge"><title>ApplicationController&#45;&gt;SessionsController</title>
<path fill="none" stroke="black" d="M453.53,-388.393C511.021,-325.109 608.098,-218.249 671.787,-148.143"/>
</g>
<!-- UsersController -->
<g id="node12" class="node"><title>UsersController</title>
<polyline fill="none" stroke="black" points="450.401,-1.5 550.401,-1.5 "/>
<path fill="none" stroke="black" d="M550.401,-1.5C556.401,-1.5 562.401,-7.5 562.401,-13.5"/>
<polyline fill="none" stroke="black" points="562.401,-13.5 562.401,-235.5 "/>
<path fill="none" stroke="black" d="M562.401,-235.5C562.401,-241.5 556.401,-247.5 550.401,-247.5"/>
<polyline fill="none" stroke="black" points="550.401,-247.5 450.401,-247.5 "/>
<path fill="none" stroke="black" d="M450.401,-247.5C444.401,-247.5 438.401,-241.5 438.401,-235.5"/>
<polyline fill="none" stroke="black" points="438.401,-235.5 438.401,-13.5 "/>
<path fill="none" stroke="black" d="M438.401,-13.5C438.401,-7.5 444.401,-1.5 450.401,-1.5"/>
<text text-anchor="middle" x="500.401" y="-230.9" font-family="Times Roman,serif" font-size="14.00">UsersController</text>
<polyline fill="none" stroke="black" points="438.401,-221.5 562.401,-221.5 "/>
<text text-anchor="start" x="446.401" y="-204.9" font-family="Times Roman,serif" font-size="14.00">create</text>
<text text-anchor="start" x="446.401" y="-186.9" font-family="Times Roman,serif" font-size="14.00">destroy</text>
<text text-anchor="start" x="446.401" y="-168.9" font-family="Times Roman,serif" font-size="14.00">edit</text>
<text text-anchor="start" x="446.401" y="-150.9" font-family="Times Roman,serif" font-size="14.00">index</text>
<text text-anchor="start" x="446.401" y="-132.9" font-family="Times Roman,serif" font-size="14.00">new</text>
<text text-anchor="start" x="446.401" y="-114.9" font-family="Times Roman,serif" font-size="14.00">show</text>
<text text-anchor="start" x="446.401" y="-96.9" font-family="Times Roman,serif" font-size="14.00">update</text>
<polyline fill="none" stroke="black" points="438.401,-87.5 562.401,-87.5 "/>
<polyline fill="none" stroke="black" points="438.401,-63.5 562.401,-63.5 "/>
<text text-anchor="start" x="446.401" y="-46.9" font-family="Times Roman,serif" font-size="14.00">_layout</text>
<text text-anchor="start" x="446.401" y="-28.9" font-family="Times Roman,serif" font-size="14.00">set_user</text>
<text text-anchor="start" x="446.401" y="-10.9" font-family="Times Roman,serif" font-size="14.00">user_params</text>
</g>
<!-- ApplicationController&#45;&gt;UsersController -->
<g id="edge20" class="edge"><title>ApplicationController&#45;&gt;UsersController</title>
<path fill="none" stroke="black" d="M421.676,-388.401C433.08,-350.174 449.044,-296.657 463.619,-247.801"/>
</g>
<!-- VideosController -->
<g id="node13" class="node"><title>VideosController</title>
<polyline fill="none" stroke="black" points="49.0777,-429.85 156.078,-429.85 "/>
<path fill="none" stroke="black" d="M156.078,-429.85C162.078,-429.85 168.078,-435.85 168.078,-441.85"/>
<polyline fill="none" stroke="black" points="168.078,-441.85 168.078,-645.85 "/>
<path fill="none" stroke="black" d="M168.078,-645.85C168.078,-651.85 162.078,-657.85 156.078,-657.85"/>
<polyline fill="none" stroke="black" points="156.078,-657.85 49.0777,-657.85 "/>
<path fill="none" stroke="black" d="M49.0777,-657.85C43.0777,-657.85 37.0777,-651.85 37.0777,-645.85"/>
<polyline fill="none" stroke="black" points="37.0777,-645.85 37.0777,-441.85 "/>
<path fill="none" stroke="black" d="M37.0777,-441.85C37.0777,-435.85 43.0777,-429.85 49.0777,-429.85"/>
<text text-anchor="middle" x="102.578" y="-641.25" font-family="Times Roman,serif" font-size="14.00">VideosController</text>
<polyline fill="none" stroke="black" points="37.0777,-631.85 168.078,-631.85 "/>
<text text-anchor="start" x="45.0777" y="-615.25" font-family="Times Roman,serif" font-size="14.00">create</text>
<text text-anchor="start" x="45.0777" y="-597.25" font-family="Times Roman,serif" font-size="14.00">destroy</text>
<text text-anchor="start" x="45.0777" y="-579.25" font-family="Times Roman,serif" font-size="14.00">edit</text>
<text text-anchor="start" x="45.0777" y="-561.25" font-family="Times Roman,serif" font-size="14.00">index</text>
<text text-anchor="start" x="45.0777" y="-543.25" font-family="Times Roman,serif" font-size="14.00">new</text>
<text text-anchor="start" x="45.0777" y="-525.25" font-family="Times Roman,serif" font-size="14.00">show</text>
<text text-anchor="start" x="45.0777" y="-507.25" font-family="Times Roman,serif" font-size="14.00">update</text>
<polyline fill="none" stroke="black" points="37.0777,-497.85 168.078,-497.85 "/>
<polyline fill="none" stroke="black" points="37.0777,-473.85 168.078,-473.85 "/>
<text text-anchor="start" x="45.0777" y="-457.25" font-family="Times Roman,serif" font-size="14.00">_layout</text>
<text text-anchor="start" x="45.0777" y="-439.25" font-family="Times Roman,serif" font-size="14.00">video_params</text>
</g>
<!-- ApplicationController&#45;&gt;VideosController -->
<g id="edge22" class="edge"><title>ApplicationController&#45;&gt;VideosController</title>
<path fill="none" stroke="black" d="M325.562,-467.996C276.386,-484.725 214.308,-505.842 168.147,-521.545"/>
</g>
<!-- WelcomeController -->
<g id="node14" class="node"><title>WelcomeController</title>
<polyline fill="none" stroke="black" points="640.1,-484.589 764.1,-484.589 "/>
<path fill="none" stroke="black" d="M764.1,-484.589C770.1,-484.589 776.1,-490.589 776.1,-496.589"/>
<polyline fill="none" stroke="black" points="776.1,-496.589 776.1,-592.589 "/>
<path fill="none" stroke="black" d="M776.1,-592.589C776.1,-598.589 770.1,-604.589 764.1,-604.589"/>
<polyline fill="none" stroke="black" points="764.1,-604.589 640.1,-604.589 "/>
<path fill="none" stroke="black" d="M640.1,-604.589C634.1,-604.589 628.1,-598.589 628.1,-592.589"/>
<polyline fill="none" stroke="black" points="628.1,-592.589 628.1,-496.589 "/>
<path fill="none" stroke="black" d="M628.1,-496.589C628.1,-490.589 634.1,-484.589 640.1,-484.589"/>
<text text-anchor="middle" x="702.1" y="-587.989" font-family="Times Roman,serif" font-size="14.00">WelcomeController</text>
<polyline fill="none" stroke="black" points="628.1,-578.589 776.1,-578.589 "/>
<text text-anchor="start" x="636.1" y="-561.989" font-family="Times Roman,serif" font-size="14.00">about</text>
<text text-anchor="start" x="636.1" y="-543.989" font-family="Times Roman,serif" font-size="14.00">index</text>
<polyline fill="none" stroke="black" points="628.1,-534.589 776.1,-534.589 "/>
<polyline fill="none" stroke="black" points="628.1,-510.589 776.1,-510.589 "/>
<text text-anchor="start" x="636.1" y="-493.989" font-family="Times Roman,serif" font-size="14.00">_layout</text>
</g>
<!-- ApplicationController&#45;&gt;WelcomeController -->
<g id="edge24" class="edge"><title>ApplicationController&#45;&gt;WelcomeController</title>
<path fill="none" stroke="black" d="M486.987,-469.014C530.977,-484.469 585.005,-503.45 627.909,-518.524"/>
</g>
</g>
</svg>
