<?xml version="1.0" encoding="UTF-8" standalone="no"?>
<!DOCTYPE svg PUBLIC "-//W3C//DTD SVG 1.1//EN"
 "http://www.w3.org/Graphics/SVG/1.1/DTD/svg11.dtd">
<!-- Generated by graphviz version 2.26.3 (20100126.1600)
 -->
<!-- Title: controllers_diagram Pages: 1 -->
<svg width="1088pt" height="977pt"
 viewBox="0.00 0.00 1088.00 977.48" xmlns="http://www.w3.org/2000/svg" xmlns:xlink="http://www.w3.org/1999/xlink">
<g id="graph1" class="graph" transform="scale(1 1) rotate(0) translate(4 973.478)">
<title>controllers_diagram</title>
<polygon fill="white" stroke="white" points="-4,5 -4,-973.478 1085,-973.478 1085,5 -4,5"/>
<!-- _diagram_info -->
<g id="node1" class="node"><title>_diagram_info</title>
<text text-anchor="start" x="837" y="-147.3" font-family="Times Roman,serif" font-size="13.00">Controllers diagram</text>
<text text-anchor="start" x="837" y="-130.3" font-family="Times Roman,serif" font-size="13.00">Date: Dec 13 2013 &#45; 04:07</text>
<text text-anchor="start" x="837" y="-113.3" font-family="Times Roman,serif" font-size="13.00">Migration version: 20131213002843</text>
<text text-anchor="start" x="837" y="-96.3" font-family="Times Roman,serif" font-size="13.00">Generated by RailRoady 1.1.1</text>
<text text-anchor="start" x="837" y="-79.3" font-family="Times Roman,serif" font-size="13.00">http://railroady.prestonlee.com</text>
</g>
<!-- ApplicationController -->
<g id="node2" class="node"><title>ApplicationController</title>
<polyline fill="none" stroke="black" points="290.636,-447.232 427.636,-447.232 "/>
<path fill="none" stroke="black" d="M427.636,-447.232C433.636,-447.232 439.636,-453.232 439.636,-459.232"/>
<polyline fill="none" stroke="black" points="439.636,-459.232 439.636,-539.232 "/>
<path fill="none" stroke="black" d="M439.636,-539.232C439.636,-545.232 433.636,-551.232 427.636,-551.232"/>
<polyline fill="none" stroke="black" points="427.636,-551.232 290.636,-551.232 "/>
<path fill="none" stroke="black" d="M290.636,-551.232C284.636,-551.232 278.636,-545.232 278.636,-539.232"/>
<polyline fill="none" stroke="black" points="278.636,-539.232 278.636,-459.232 "/>
<path fill="none" stroke="black" d="M278.636,-459.232C278.636,-453.232 284.636,-447.232 290.636,-447.232"/>
<text text-anchor="middle" x="359.136" y="-534.632" font-family="Times Roman,serif" font-size="14.00">ApplicationController</text>
<polyline fill="none" stroke="black" points="278.636,-525.232 439.636,-525.232 "/>
<text text-anchor="start" x="286.636" y="-508.632" font-family="Times Roman,serif" font-size="14.00">current_user</text>
<polyline fill="none" stroke="black" points="278.636,-499.232 439.636,-499.232 "/>
<text text-anchor="start" x="286.636" y="-482.632" font-family="Times Roman,serif" font-size="14.00">authorize</text>
<polyline fill="none" stroke="black" points="278.636,-473.232 439.636,-473.232 "/>
<text text-anchor="start" x="286.636" y="-456.632" font-family="Times Roman,serif" font-size="14.00">_layout</text>
</g>
<!-- CertificatesController -->
<g id="node3" class="node"><title>CertificatesController</title>
<polyline fill="none" stroke="black" points="593.171,-505.3 733.171,-505.3 "/>
<path fill="none" stroke="black" d="M733.171,-505.3C739.171,-505.3 745.171,-511.3 745.171,-517.3"/>
<polyline fill="none" stroke="black" points="745.171,-517.3 745.171,-685.3 "/>
<path fill="none" stroke="black" d="M745.171,-685.3C745.171,-691.3 739.171,-697.3 733.171,-697.3"/>
<polyline fill="none" stroke="black" points="733.171,-697.3 593.171,-697.3 "/>
<path fill="none" stroke="black" d="M593.171,-697.3C587.171,-697.3 581.171,-691.3 581.171,-685.3"/>
<polyline fill="none" stroke="black" points="581.171,-685.3 581.171,-517.3 "/>
<path fill="none" stroke="black" d="M581.171,-517.3C581.171,-511.3 587.171,-505.3 593.171,-505.3"/>
<text text-anchor="middle" x="663.171" y="-680.7" font-family="Times Roman,serif" font-size="14.00">CertificatesController</text>
<polyline fill="none" stroke="black" points="581.171,-671.3 745.171,-671.3 "/>
<text text-anchor="start" x="589.171" y="-654.7" font-family="Times Roman,serif" font-size="14.00">create</text>
<text text-anchor="start" x="589.171" y="-636.7" font-family="Times Roman,serif" font-size="14.00">edit</text>
<text text-anchor="start" x="589.171" y="-618.7" font-family="Times Roman,serif" font-size="14.00">index</text>
<text text-anchor="start" x="589.171" y="-600.7" font-family="Times Roman,serif" font-size="14.00">new</text>
<text text-anchor="start" x="589.171" y="-582.7" font-family="Times Roman,serif" font-size="14.00">show</text>
<polyline fill="none" stroke="black" points="581.171,-573.3 745.171,-573.3 "/>
<polyline fill="none" stroke="black" points="581.171,-549.3 745.171,-549.3 "/>
<text text-anchor="start" x="589.171" y="-532.7" font-family="Times Roman,serif" font-size="14.00">_layout</text>
<text text-anchor="start" x="589.171" y="-514.7" font-family="Times Roman,serif" font-size="14.00">certificate_params</text>
</g>
<!-- ApplicationController&#45;&gt;CertificatesController -->
<g id="edge2" class="edge"><title>ApplicationController&#45;&gt;CertificatesController</title>
<path fill="none" stroke="black" d="M439.814,-526.317C483.443,-540.963 537.21,-559.013 581.058,-573.734"/>
</g>
<!-- ContactController -->
<g id="node4" class="node"><title>ContactController</title>
<polyline fill="none" stroke="black" points="306.468,-79.6294 422.468,-79.6294 "/>
<path fill="none" stroke="black" d="M422.468,-79.6294C428.468,-79.6294 434.468,-85.6294 434.468,-91.6294"/>
<polyline fill="none" stroke="black" points="434.468,-91.6294 434.468,-187.629 "/>
<path fill="none" stroke="black" d="M434.468,-187.629C434.468,-193.629 428.468,-199.629 422.468,-199.629"/>
<polyline fill="none" stroke="black" points="422.468,-199.629 306.468,-199.629 "/>
<path fill="none" stroke="black" d="M306.468,-199.629C300.468,-199.629 294.468,-193.629 294.468,-187.629"/>
<polyline fill="none" stroke="black" points="294.468,-187.629 294.468,-91.6294 "/>
<path fill="none" stroke="black" d="M294.468,-91.6294C294.468,-85.6294 300.468,-79.6294 306.468,-79.6294"/>
<text text-anchor="middle" x="364.468" y="-183.029" font-family="Times Roman,serif" font-size="14.00">ContactController</text>
<polyline fill="none" stroke="black" points="294.468,-173.629 434.468,-173.629 "/>
<text text-anchor="start" x="302.468" y="-157.029" font-family="Times Roman,serif" font-size="14.00">create</text>
<text text-anchor="start" x="302.468" y="-139.029" font-family="Times Roman,serif" font-size="14.00">new</text>
<polyline fill="none" stroke="black" points="294.468,-129.629 434.468,-129.629 "/>
<polyline fill="none" stroke="black" points="294.468,-105.629 434.468,-105.629 "/>
<text text-anchor="start" x="302.468" y="-89.0294" font-family="Times Roman,serif" font-size="14.00">_layout</text>
</g>
<!-- ApplicationController&#45;&gt;ContactController -->
<g id="edge4" class="edge"><title>ApplicationController&#45;&gt;ContactController</title>
<path fill="none" stroke="black" d="M359.912,-446.943C360.885,-381.297 362.551,-268.93 363.576,-199.786"/>
</g>
<!-- CoursesController -->
<g id="node5" class="node"><title>CoursesController</title>
<polyline fill="none" stroke="black" points="13.6756,-717.364 129.676,-717.364 "/>
<path fill="none" stroke="black" d="M129.676,-717.364C135.676,-717.364 141.676,-723.364 141.676,-729.364"/>
<polyline fill="none" stroke="black" points="141.676,-729.364 141.676,-933.364 "/>
<path fill="none" stroke="black" d="M141.676,-933.364C141.676,-939.364 135.676,-945.364 129.676,-945.364"/>
<polyline fill="none" stroke="black" points="129.676,-945.364 13.6756,-945.364 "/>
<path fill="none" stroke="black" d="M13.6756,-945.364C7.67562,-945.364 1.67562,-939.364 1.67562,-933.364"/>
<polyline fill="none" stroke="black" points="1.67562,-933.364 1.67562,-729.364 "/>
<path fill="none" stroke="black" d="M1.67562,-729.364C1.67562,-723.364 7.67562,-717.364 13.6756,-717.364"/>
<text text-anchor="middle" x="71.6756" y="-928.764" font-family="Times Roman,serif" font-size="14.00">CoursesController</text>
<polyline fill="none" stroke="black" points="1.67562,-919.364 141.676,-919.364 "/>
<text text-anchor="start" x="9.67562" y="-902.764" font-family="Times Roman,serif" font-size="14.00">create</text>
<text text-anchor="start" x="9.67562" y="-884.764" font-family="Times Roman,serif" font-size="14.00">destroy</text>
<text text-anchor="start" x="9.67562" y="-866.764" font-family="Times Roman,serif" font-size="14.00">edit</text>
<text text-anchor="start" x="9.67562" y="-848.764" font-family="Times Roman,serif" font-size="14.00">index</text>
<text text-anchor="start" x="9.67562" y="-830.764" font-family="Times Roman,serif" font-size="14.00">new</text>
<text text-anchor="start" x="9.67562" y="-812.764" font-family="Times Roman,serif" font-size="14.00">show</text>
<text text-anchor="start" x="9.67562" y="-794.764" font-family="Times Roman,serif" font-size="14.00">update</text>
<polyline fill="none" stroke="black" points="1.67562,-785.364 141.676,-785.364 "/>
<polyline fill="none" stroke="black" points="1.67562,-761.364 141.676,-761.364 "/>
<text text-anchor="start" x="9.67562" y="-744.764" font-family="Times Roman,serif" font-size="14.00">_layout</text>
<text text-anchor="start" x="9.67562" y="-726.764" font-family="Times Roman,serif" font-size="14.00">course_params</text>
</g>
<!-- ApplicationController&#45;&gt;CoursesController -->
<g id="edge6" class="edge"><title>ApplicationController&#45;&gt;CoursesController</title>
<path fill="none" stroke="black" d="M313.905,-551.493C267.736,-604.836 195.442,-688.365 141.838,-750.298"/>
</g>
<!-- EmailConfirmationsController -->
<g id="node6" class="node"><title>EmailConfirmationsController</title>
<polyline fill="none" stroke="black" points="569.111,-826.515 764.111,-826.515 "/>
<path fill="none" stroke="black" d="M764.111,-826.515C770.111,-826.515 776.111,-832.515 776.111,-838.515"/>
<polyline fill="none" stroke="black" points="776.111,-838.515 776.111,-916.515 "/>
<path fill="none" stroke="black" d="M776.111,-916.515C776.111,-922.515 770.111,-928.515 764.111,-928.515"/>
<polyline fill="none" stroke="black" points="764.111,-928.515 569.111,-928.515 "/>
<path fill="none" stroke="black" d="M569.111,-928.515C563.111,-928.515 557.111,-922.515 557.111,-916.515"/>
<polyline fill="none" stroke="black" points="557.111,-916.515 557.111,-838.515 "/>
<path fill="none" stroke="black" d="M557.111,-838.515C557.111,-832.515 563.111,-826.515 569.111,-826.515"/>
<text text-anchor="middle" x="666.611" y="-911.915" font-family="Times Roman,serif" font-size="14.00">EmailConfirmationsController</text>
<polyline fill="none" stroke="black" points="557.111,-902.515 776.111,-902.515 "/>
<text text-anchor="start" x="565.111" y="-885.915" font-family="Times Roman,serif" font-size="14.00">new</text>
<polyline fill="none" stroke="black" points="557.111,-876.515 776.111,-876.515 "/>
<polyline fill="none" stroke="black" points="557.111,-852.515 776.111,-852.515 "/>
<text text-anchor="start" x="565.111" y="-835.915" font-family="Times Roman,serif" font-size="14.00">_layout</text>
</g>
<!-- ApplicationController&#45;&gt;EmailConfirmationsController -->
<g id="edge8" class="edge"><title>ApplicationController&#45;&gt;EmailConfirmationsController</title>
<path fill="none" stroke="black" d="M401.567,-551.434C460.544,-623.994 566.627,-754.507 625.107,-826.454"/>
</g>
<!-- QuizzesController -->
<g id="node7" class="node"><title>QuizzesController</title>
<polyline fill="none" stroke="black" points="303.361,-721.978 420.361,-721.978 "/>
<path fill="none" stroke="black" d="M420.361,-721.978C426.361,-721.978 432.361,-727.978 432.361,-733.978"/>
<polyline fill="none" stroke="black" points="432.361,-733.978 432.361,-955.978 "/>
<path fill="none" stroke="black" d="M432.361,-955.978C432.361,-961.978 426.361,-967.978 420.361,-967.978"/>
<polyline fill="none" stroke="black" points="420.361,-967.978 303.361,-967.978 "/>
<path fill="none" stroke="black" d="M303.361,-967.978C297.361,-967.978 291.361,-961.978 291.361,-955.978"/>
<polyline fill="none" stroke="black" points="291.361,-955.978 291.361,-733.978 "/>
<path fill="none" stroke="black" d="M291.361,-733.978C291.361,-727.978 297.361,-721.978 303.361,-721.978"/>
<text text-anchor="middle" x="361.861" y="-951.378" font-family="Times Roman,serif" font-size="14.00">QuizzesController</text>
<polyline fill="none" stroke="black" points="291.361,-941.978 432.361,-941.978 "/>
<text text-anchor="start" x="299.361" y="-925.378" font-family="Times Roman,serif" font-size="14.00">answers</text>
<text text-anchor="start" x="299.361" y="-907.378" font-family="Times Roman,serif" font-size="14.00">create</text>
<text text-anchor="start" x="299.361" y="-889.378" font-family="Times Roman,serif" font-size="14.00">destroy</text>
<text text-anchor="start" x="299.361" y="-871.378" font-family="Times Roman,serif" font-size="14.00">edit</text>
<text text-anchor="start" x="299.361" y="-853.378" font-family="Times Roman,serif" font-size="14.00">index</text>
<text text-anchor="start" x="299.361" y="-835.378" font-family="Times Roman,serif" font-size="14.00">new</text>
<text text-anchor="start" x="299.361" y="-817.378" font-family="Times Roman,serif" font-size="14.00">show</text>
<text text-anchor="start" x="299.361" y="-799.378" font-family="Times Roman,serif" font-size="14.00">update</text>
<polyline fill="none" stroke="black" points="291.361,-789.978 432.361,-789.978 "/>
<polyline fill="none" stroke="black" points="291.361,-765.978 432.361,-765.978 "/>
<text text-anchor="start" x="299.361" y="-749.378" font-family="Times Roman,serif" font-size="14.00">_layout</text>
<text text-anchor="start" x="299.361" y="-731.378" font-family="Times Roman,serif" font-size="14.00">quiz_params</text>
</g>
<!-- ApplicationController&#45;&gt;QuizzesController -->
<g id="edge10" class="edge"><title>ApplicationController&#45;&gt;QuizzesController</title>
<path fill="none" stroke="black" d="M359.547,-551.368C359.902,-596.361 360.428,-663.146 360.889,-721.659"/>
</g>
<!-- SessionsController -->
<g id="node8" class="node"><title>SessionsController</title>
<polyline fill="none" stroke="black" points="13,-398.583 133,-398.583 "/>
<path fill="none" stroke="black" d="M133,-398.583C139,-398.583 145,-404.583 145,-410.583"/>
<polyline fill="none" stroke="black" points="145,-410.583 145,-524.583 "/>
<path fill="none" stroke="black" d="M145,-524.583C145,-530.583 139,-536.583 133,-536.583"/>
<polyline fill="none" stroke="black" points="133,-536.583 13,-536.583 "/>
<path fill="none" stroke="black" d="M13,-536.583C7,-536.583 1,-530.583 1,-524.583"/>
<polyline fill="none" stroke="black" points="1,-524.583 1,-410.583 "/>
<path fill="none" stroke="black" d="M1,-410.583C1,-404.583 7,-398.583 13,-398.583"/>
<text text-anchor="middle" x="73" y="-519.983" font-family="Times Roman,serif" font-size="14.00">SessionsController</text>
<polyline fill="none" stroke="black" points="1,-510.583 145,-510.583 "/>
<text text-anchor="start" x="9" y="-493.983" font-family="Times Roman,serif" font-size="14.00">create</text>
<text text-anchor="start" x="9" y="-475.983" font-family="Times Roman,serif" font-size="14.00">destroy</text>
<text text-anchor="start" x="9" y="-457.983" font-family="Times Roman,serif" font-size="14.00">new</text>
<polyline fill="none" stroke="black" points="1,-448.583 145,-448.583 "/>
<polyline fill="none" stroke="black" points="1,-424.583 145,-424.583 "/>
<text text-anchor="start" x="9" y="-407.983" font-family="Times Roman,serif" font-size="14.00">_layout</text>
</g>
<!-- ApplicationController&#45;&gt;SessionsController -->
<g id="edge12" class="edge"><title>ApplicationController&#45;&gt;SessionsController</title>
<path fill="none" stroke="black" d="M278.289,-490.29C236.477,-485.665 185.861,-480.067 145.351,-475.586"/>
</g>
<!-- UsersController -->
<g id="node9" class="node"><title>UsersController</title>
<polyline fill="none" stroke="black" points="608.618,-241.332 708.618,-241.332 "/>
<path fill="none" stroke="black" d="M708.618,-241.332C714.618,-241.332 720.618,-247.332 720.618,-253.332"/>
<polyline fill="none" stroke="black" points="720.618,-253.332 720.618,-475.332 "/>
<path fill="none" stroke="black" d="M720.618,-475.332C720.618,-481.332 714.618,-487.332 708.618,-487.332"/>
<polyline fill="none" stroke="black" points="708.618,-487.332 608.618,-487.332 "/>
<path fill="none" stroke="black" d="M608.618,-487.332C602.618,-487.332 596.618,-481.332 596.618,-475.332"/>
<polyline fill="none" stroke="black" points="596.618,-475.332 596.618,-253.332 "/>
<path fill="none" stroke="black" d="M596.618,-253.332C596.618,-247.332 602.618,-241.332 608.618,-241.332"/>
<text text-anchor="middle" x="658.618" y="-470.732" font-family="Times Roman,serif" font-size="14.00">UsersController</text>
<polyline fill="none" stroke="black" points="596.618,-461.332 720.618,-461.332 "/>
<text text-anchor="start" x="604.618" y="-444.732" font-family="Times Roman,serif" font-size="14.00">create</text>
<text text-anchor="start" x="604.618" y="-426.732" font-family="Times Roman,serif" font-size="14.00">destroy</text>
<text text-anchor="start" x="604.618" y="-408.732" font-family="Times Roman,serif" font-size="14.00">edit</text>
<text text-anchor="start" x="604.618" y="-390.732" font-family="Times Roman,serif" font-size="14.00">index</text>
<text text-anchor="start" x="604.618" y="-372.732" font-family="Times Roman,serif" font-size="14.00">new</text>
<text text-anchor="start" x="604.618" y="-354.732" font-family="Times Roman,serif" font-size="14.00">show</text>
<text text-anchor="start" x="604.618" y="-336.732" font-family="Times Roman,serif" font-size="14.00">update</text>
<polyline fill="none" stroke="black" points="596.618,-327.332 720.618,-327.332 "/>
<polyline fill="none" stroke="black" points="596.618,-303.332 720.618,-303.332 "/>
<text text-anchor="start" x="604.618" y="-286.732" font-family="Times Roman,serif" font-size="14.00">_layout</text>
<text text-anchor="start" x="604.618" y="-268.732" font-family="Times Roman,serif" font-size="14.00">set_user</text>
<text text-anchor="start" x="604.618" y="-250.732" font-family="Times Roman,serif" font-size="14.00">user_params</text>
</g>
<!-- ApplicationController&#45;&gt;UsersController -->
<g id="edge14" class="edge"><title>ApplicationController&#45;&gt;UsersController</title>
<path fill="none" stroke="black" d="M439.786,-462.904C488.988,-440.741 550.936,-412.837 596.352,-392.38"/>
</g>
<!-- VideosController -->
<g id="node10" class="node"><title>VideosController</title>
<polyline fill="none" stroke="black" points="23.4474,-1.5 130.447,-1.5 "/>
<path fill="none" stroke="black" d="M130.447,-1.5C136.447,-1.5 142.447,-7.5 142.447,-13.5"/>
<polyline fill="none" stroke="black" points="142.447,-13.5 142.447,-217.5 "/>
<path fill="none" stroke="black" d="M142.447,-217.5C142.447,-223.5 136.447,-229.5 130.447,-229.5"/>
<polyline fill="none" stroke="black" points="130.447,-229.5 23.4474,-229.5 "/>
<path fill="none" stroke="black" d="M23.4474,-229.5C17.4474,-229.5 11.4474,-223.5 11.4474,-217.5"/>
<polyline fill="none" stroke="black" points="11.4474,-217.5 11.4474,-13.5 "/>
<path fill="none" stroke="black" d="M11.4474,-13.5C11.4474,-7.5 17.4474,-1.5 23.4474,-1.5"/>
<text text-anchor="middle" x="76.9474" y="-212.9" font-family="Times Roman,serif" font-size="14.00">VideosController</text>
<polyline fill="none" stroke="black" points="11.4474,-203.5 142.447,-203.5 "/>
<text text-anchor="start" x="19.4474" y="-186.9" font-family="Times Roman,serif" font-size="14.00">create</text>
<text text-anchor="start" x="19.4474" y="-168.9" font-family="Times Roman,serif" font-size="14.00">destroy</text>
<text text-anchor="start" x="19.4474" y="-150.9" font-family="Times Roman,serif" font-size="14.00">edit</text>
<text text-anchor="start" x="19.4474" y="-132.9" font-family="Times Roman,serif" font-size="14.00">index</text>
<text text-anchor="start" x="19.4474" y="-114.9" font-family="Times Roman,serif" font-size="14.00">new</text>
<text text-anchor="start" x="19.4474" y="-96.9" font-family="Times Roman,serif" font-size="14.00">show</text>
<text text-anchor="start" x="19.4474" y="-78.9" font-family="Times Roman,serif" font-size="14.00">update</text>
<polyline fill="none" stroke="black" points="11.4474,-69.5 142.447,-69.5 "/>
<polyline fill="none" stroke="black" points="11.4474,-45.5 142.447,-45.5 "/>
<text text-anchor="start" x="19.4474" y="-28.9" font-family="Times Roman,serif" font-size="14.00">_layout</text>
<text text-anchor="start" x="19.4474" y="-10.9" font-family="Times Roman,serif" font-size="14.00">video_params</text>
</g>
<!-- ApplicationController&#45;&gt;VideosController -->
<g id="edge16" class="edge"><title>ApplicationController&#45;&gt;VideosController</title>
<path fill="none" stroke="black" d="M320.786,-447.081C275.05,-384.888 197.856,-279.916 142.57,-204.736"/>
</g>
<!-- WelcomeController -->
<g id="node11" class="node"><title>WelcomeController</title>
<polyline fill="none" stroke="black" points="602.072,-24.4493 726.072,-24.4493 "/>
<path fill="none" stroke="black" d="M726.072,-24.4493C732.072,-24.4493 738.072,-30.4493 738.072,-36.4493"/>
<polyline fill="none" stroke="black" points="738.072,-36.4493 738.072,-132.449 "/>
<path fill="none" stroke="black" d="M738.072,-132.449C738.072,-138.449 732.072,-144.449 726.072,-144.449"/>
<polyline fill="none" stroke="black" points="726.072,-144.449 602.072,-144.449 "/>
<path fill="none" stroke="black" d="M602.072,-144.449C596.072,-144.449 590.072,-138.449 590.072,-132.449"/>
<polyline fill="none" stroke="black" points="590.072,-132.449 590.072,-36.4493 "/>
<path fill="none" stroke="black" d="M590.072,-36.4493C590.072,-30.4493 596.072,-24.4493 602.072,-24.4493"/>
<text text-anchor="middle" x="664.072" y="-127.849" font-family="Times Roman,serif" font-size="14.00">WelcomeController</text>
<polyline fill="none" stroke="black" points="590.072,-118.449 738.072,-118.449 "/>
<text text-anchor="start" x="598.072" y="-101.849" font-family="Times Roman,serif" font-size="14.00">about</text>
<text text-anchor="start" x="598.072" y="-83.8493" font-family="Times Roman,serif" font-size="14.00">index</text>
<polyline fill="none" stroke="black" points="590.072,-74.4493 738.072,-74.4493 "/>
<polyline fill="none" stroke="black" points="590.072,-50.4493 738.072,-50.4493 "/>
<text text-anchor="start" x="598.072" y="-33.8493" font-family="Times Roman,serif" font-size="14.00">_layout</text>
</g>
<!-- ApplicationController&#45;&gt;WelcomeController -->
<g id="edge18" class="edge"><title>ApplicationController&#45;&gt;WelcomeController</title>
<path fill="none" stroke="black" d="M397.448,-447.12C454.074,-370.096 559.855,-226.21 619.749,-144.74"/>
</g>
</g>
</svg>
