<?xml version="1.0" encoding="UTF-8" standalone="no"?>
<!DOCTYPE svg PUBLIC "-//W3C//DTD SVG 1.1//EN"
 "http://www.w3.org/Graphics/SVG/1.1/DTD/svg11.dtd">
<!-- Generated by graphviz version 2.26.3 (20100126.1600)
 -->
<!-- Title: controllers_diagram Pages: 1 -->
<svg width="1157pt" height="935pt"
 viewBox="0.00 0.00 1157.00 934.76" xmlns="http://www.w3.org/2000/svg" xmlns:xlink="http://www.w3.org/1999/xlink">
<g id="graph1" class="graph" transform="scale(1 1) rotate(0) translate(4 930.763)">
<title>controllers_diagram</title>
<polygon fill="white" stroke="white" points="-4,5 -4,-930.763 1154,-930.763 1154,5 -4,5"/>
<!-- _diagram_info -->
<g id="node1" class="node"><title>_diagram_info</title>
<text text-anchor="start" x="906" y="-78.3" font-family="Times Roman,serif" font-size="13.00">Controllers diagram</text>
<text text-anchor="start" x="906" y="-61.3" font-family="Times Roman,serif" font-size="13.00">Date: Dec 20 2013 &#45; 05:00</text>
<text text-anchor="start" x="906" y="-44.3" font-family="Times Roman,serif" font-size="13.00">Migration version: 20131219191749</text>
<text text-anchor="start" x="906" y="-27.3" font-family="Times Roman,serif" font-size="13.00">Generated by RailRoady 1.1.1</text>
<text text-anchor="start" x="906" y="-10.3" font-family="Times Roman,serif" font-size="13.00">http://railroady.prestonlee.com</text>
</g>
<!-- ApplicationController -->
<g id="node2" class="node"><title>ApplicationController</title>
<polyline fill="none" stroke="black" points="342.183,-396.374 479.183,-396.374 "/>
<path fill="none" stroke="black" d="M479.183,-396.374C485.183,-396.374 491.183,-402.374 491.183,-408.374"/>
<polyline fill="none" stroke="black" points="491.183,-408.374 491.183,-488.374 "/>
<path fill="none" stroke="black" d="M491.183,-488.374C491.183,-494.374 485.183,-500.374 479.183,-500.374"/>
<polyline fill="none" stroke="black" points="479.183,-500.374 342.183,-500.374 "/>
<path fill="none" stroke="black" d="M342.183,-500.374C336.183,-500.374 330.183,-494.374 330.183,-488.374"/>
<polyline fill="none" stroke="black" points="330.183,-488.374 330.183,-408.374 "/>
<path fill="none" stroke="black" d="M330.183,-408.374C330.183,-402.374 336.183,-396.374 342.183,-396.374"/>
<text text-anchor="middle" x="410.683" y="-483.774" font-family="Times Roman,serif" font-size="14.00">ApplicationController</text>
<polyline fill="none" stroke="black" points="330.183,-474.374 491.183,-474.374 "/>
<text text-anchor="start" x="338.183" y="-457.774" font-family="Times Roman,serif" font-size="14.00">current_user</text>
<polyline fill="none" stroke="black" points="330.183,-448.374 491.183,-448.374 "/>
<text text-anchor="start" x="338.183" y="-431.774" font-family="Times Roman,serif" font-size="14.00">authorize</text>
<polyline fill="none" stroke="black" points="330.183,-422.374 491.183,-422.374 "/>
<text text-anchor="start" x="338.183" y="-405.774" font-family="Times Roman,serif" font-size="14.00">_layout</text>
</g>
<!-- AttemptsController -->
<g id="node3" class="node"><title>AttemptsController</title>
<polyline fill="none" stroke="black" points="682.405,-732.011 807.405,-732.011 "/>
<path fill="none" stroke="black" d="M807.405,-732.011C813.405,-732.011 819.405,-738.011 819.405,-744.011"/>
<polyline fill="none" stroke="black" points="819.405,-744.011 819.405,-876.011 "/>
<path fill="none" stroke="black" d="M819.405,-876.011C819.405,-882.011 813.405,-888.011 807.405,-888.011"/>
<polyline fill="none" stroke="black" points="807.405,-888.011 682.405,-888.011 "/>
<path fill="none" stroke="black" d="M682.405,-888.011C676.405,-888.011 670.405,-882.011 670.405,-876.011"/>
<polyline fill="none" stroke="black" points="670.405,-876.011 670.405,-744.011 "/>
<path fill="none" stroke="black" d="M670.405,-744.011C670.405,-738.011 676.405,-732.011 682.405,-732.011"/>
<text text-anchor="middle" x="744.905" y="-871.411" font-family="Times Roman,serif" font-size="14.00">AttemptsController</text>
<polyline fill="none" stroke="black" points="670.405,-862.011 819.405,-862.011 "/>
<text text-anchor="start" x="678.405" y="-845.411" font-family="Times Roman,serif" font-size="14.00">index</text>
<text text-anchor="start" x="678.405" y="-827.411" font-family="Times Roman,serif" font-size="14.00">new</text>
<text text-anchor="start" x="678.405" y="-809.411" font-family="Times Roman,serif" font-size="14.00">show</text>
<polyline fill="none" stroke="black" points="670.405,-800.011 819.405,-800.011 "/>
<polyline fill="none" stroke="black" points="670.405,-776.011 819.405,-776.011 "/>
<text text-anchor="start" x="678.405" y="-759.411" font-family="Times Roman,serif" font-size="14.00">_layout</text>
<text text-anchor="start" x="678.405" y="-741.411" font-family="Times Roman,serif" font-size="14.00">attempt_params</text>
</g>
<!-- ApplicationController&#45;&gt;AttemptsController -->
<g id="edge2" class="edge"><title>ApplicationController&#45;&gt;AttemptsController</title>
<path fill="none" stroke="black" d="M458.925,-500.573C514.965,-561.209 607.982,-661.856 672.656,-731.835"/>
</g>
<!-- CertificatesController -->
<g id="node4" class="node"><title>CertificatesController</title>
<polyline fill="none" stroke="black" points="244.423,-51.8233 384.423,-51.8233 "/>
<path fill="none" stroke="black" d="M384.423,-51.8233C390.423,-51.8233 396.423,-57.8233 396.423,-63.8233"/>
<polyline fill="none" stroke="black" points="396.423,-63.8233 396.423,-177.823 "/>
<path fill="none" stroke="black" d="M396.423,-177.823C396.423,-183.823 390.423,-189.823 384.423,-189.823"/>
<polyline fill="none" stroke="black" points="384.423,-189.823 244.423,-189.823 "/>
<path fill="none" stroke="black" d="M244.423,-189.823C238.423,-189.823 232.423,-183.823 232.423,-177.823"/>
<polyline fill="none" stroke="black" points="232.423,-177.823 232.423,-63.8233 "/>
<path fill="none" stroke="black" d="M232.423,-63.8233C232.423,-57.8233 238.423,-51.8233 244.423,-51.8233"/>
<text text-anchor="middle" x="314.423" y="-173.223" font-family="Times Roman,serif" font-size="14.00">CertificatesController</text>
<polyline fill="none" stroke="black" points="232.423,-163.823 396.423,-163.823 "/>
<text text-anchor="start" x="240.423" y="-147.223" font-family="Times Roman,serif" font-size="14.00">index</text>
<text text-anchor="start" x="240.423" y="-129.223" font-family="Times Roman,serif" font-size="14.00">show</text>
<polyline fill="none" stroke="black" points="232.423,-119.823 396.423,-119.823 "/>
<polyline fill="none" stroke="black" points="232.423,-95.8233 396.423,-95.8233 "/>
<text text-anchor="start" x="240.423" y="-79.2233" font-family="Times Roman,serif" font-size="14.00">_layout</text>
<text text-anchor="start" x="240.423" y="-61.2233" font-family="Times Roman,serif" font-size="14.00">certificate_params</text>
</g>
<!-- ApplicationController&#45;&gt;CertificatesController -->
<g id="edge4" class="edge"><title>ApplicationController&#45;&gt;CertificatesController</title>
<path fill="none" stroke="black" d="M395.324,-396.11C378.922,-340.299 352.851,-251.586 334.756,-190.012"/>
</g>
<!-- ChargesController -->
<g id="node5" class="node"><title>ChargesController</title>
<polyline fill="none" stroke="black" points="255.521,-711.681 373.521,-711.681 "/>
<path fill="none" stroke="black" d="M373.521,-711.681C379.521,-711.681 385.521,-717.681 385.521,-723.681"/>
<polyline fill="none" stroke="black" points="385.521,-723.681 385.521,-819.681 "/>
<path fill="none" stroke="black" d="M385.521,-819.681C385.521,-825.681 379.521,-831.681 373.521,-831.681"/>
<polyline fill="none" stroke="black" points="373.521,-831.681 255.521,-831.681 "/>
<path fill="none" stroke="black" d="M255.521,-831.681C249.521,-831.681 243.521,-825.681 243.521,-819.681"/>
<polyline fill="none" stroke="black" points="243.521,-819.681 243.521,-723.681 "/>
<path fill="none" stroke="black" d="M243.521,-723.681C243.521,-717.681 249.521,-711.681 255.521,-711.681"/>
<text text-anchor="middle" x="314.521" y="-815.081" font-family="Times Roman,serif" font-size="14.00">ChargesController</text>
<polyline fill="none" stroke="black" points="243.521,-805.681 385.521,-805.681 "/>
<text text-anchor="start" x="251.521" y="-789.081" font-family="Times Roman,serif" font-size="14.00">create</text>
<text text-anchor="start" x="251.521" y="-771.081" font-family="Times Roman,serif" font-size="14.00">new</text>
<polyline fill="none" stroke="black" points="243.521,-761.681 385.521,-761.681 "/>
<polyline fill="none" stroke="black" points="243.521,-737.681 385.521,-737.681 "/>
<text text-anchor="start" x="251.521" y="-721.081" font-family="Times Roman,serif" font-size="14.00">_layout</text>
</g>
<!-- ApplicationController&#45;&gt;ChargesController -->
<g id="edge6" class="edge"><title>ApplicationController&#45;&gt;ChargesController</title>
<path fill="none" stroke="black" d="M395.126,-500.678C377.983,-558.314 350.456,-650.864 332.428,-711.476"/>
</g>
<!-- ContactController -->
<g id="node6" class="node"><title>ContactController</title>
<polyline fill="none" stroke="black" points="449.055,-716.344 565.055,-716.344 "/>
<path fill="none" stroke="black" d="M565.055,-716.344C571.055,-716.344 577.055,-722.344 577.055,-728.344"/>
<polyline fill="none" stroke="black" points="577.055,-728.344 577.055,-824.344 "/>
<path fill="none" stroke="black" d="M577.055,-824.344C577.055,-830.344 571.055,-836.344 565.055,-836.344"/>
<polyline fill="none" stroke="black" points="565.055,-836.344 449.055,-836.344 "/>
<path fill="none" stroke="black" d="M449.055,-836.344C443.055,-836.344 437.055,-830.344 437.055,-824.344"/>
<polyline fill="none" stroke="black" points="437.055,-824.344 437.055,-728.344 "/>
<path fill="none" stroke="black" d="M437.055,-728.344C437.055,-722.344 443.055,-716.344 449.055,-716.344"/>
<text text-anchor="middle" x="507.055" y="-819.744" font-family="Times Roman,serif" font-size="14.00">ContactController</text>
<polyline fill="none" stroke="black" points="437.055,-810.344 577.055,-810.344 "/>
<text text-anchor="start" x="445.055" y="-793.744" font-family="Times Roman,serif" font-size="14.00">create</text>
<text text-anchor="start" x="445.055" y="-775.744" font-family="Times Roman,serif" font-size="14.00">new</text>
<polyline fill="none" stroke="black" points="437.055,-766.344 577.055,-766.344 "/>
<polyline fill="none" stroke="black" points="437.055,-742.344 577.055,-742.344 "/>
<text text-anchor="start" x="445.055" y="-725.744" font-family="Times Roman,serif" font-size="14.00">_layout</text>
</g>
<!-- ApplicationController&#45;&gt;ContactController -->
<g id="edge8" class="edge"><title>ApplicationController&#45;&gt;ContactController</title>
<path fill="none" stroke="black" d="M426.06,-500.704C443.304,-559.39 471.225,-654.408 489.362,-716.132"/>
</g>
<!-- CoursesController -->
<g id="node7" class="node"><title>CoursesController</title>
<polyline fill="none" stroke="black" points="19.9087,-697.263 135.909,-697.263 "/>
<path fill="none" stroke="black" d="M135.909,-697.263C141.909,-697.263 147.909,-703.263 147.909,-709.263"/>
<polyline fill="none" stroke="black" points="147.909,-709.263 147.909,-913.263 "/>
<path fill="none" stroke="black" d="M147.909,-913.263C147.909,-919.263 141.909,-925.263 135.909,-925.263"/>
<polyline fill="none" stroke="black" points="135.909,-925.263 19.9087,-925.263 "/>
<path fill="none" stroke="black" d="M19.9087,-925.263C13.9087,-925.263 7.90867,-919.263 7.90867,-913.263"/>
<polyline fill="none" stroke="black" points="7.90867,-913.263 7.90867,-709.263 "/>
<path fill="none" stroke="black" d="M7.90867,-709.263C7.90867,-703.263 13.9087,-697.263 19.9087,-697.263"/>
<text text-anchor="middle" x="77.9087" y="-908.663" font-family="Times Roman,serif" font-size="14.00">CoursesController</text>
<polyline fill="none" stroke="black" points="7.90867,-899.263 147.909,-899.263 "/>
<text text-anchor="start" x="15.9087" y="-882.663" font-family="Times Roman,serif" font-size="14.00">create</text>
<text text-anchor="start" x="15.9087" y="-864.663" font-family="Times Roman,serif" font-size="14.00">destroy</text>
<text text-anchor="start" x="15.9087" y="-846.663" font-family="Times Roman,serif" font-size="14.00">edit</text>
<text text-anchor="start" x="15.9087" y="-828.663" font-family="Times Roman,serif" font-size="14.00">index</text>
<text text-anchor="start" x="15.9087" y="-810.663" font-family="Times Roman,serif" font-size="14.00">new</text>
<text text-anchor="start" x="15.9087" y="-792.663" font-family="Times Roman,serif" font-size="14.00">show</text>
<text text-anchor="start" x="15.9087" y="-774.663" font-family="Times Roman,serif" font-size="14.00">update</text>
<polyline fill="none" stroke="black" points="7.90867,-765.263 147.909,-765.263 "/>
<polyline fill="none" stroke="black" points="7.90867,-741.263 147.909,-741.263 "/>
<text text-anchor="start" x="15.9087" y="-724.663" font-family="Times Roman,serif" font-size="14.00">_layout</text>
<text text-anchor="start" x="15.9087" y="-706.663" font-family="Times Roman,serif" font-size="14.00">course_params</text>
</g>
<!-- ApplicationController&#45;&gt;CoursesController -->
<g id="edge10" class="edge"><title>ApplicationController&#45;&gt;CoursesController</title>
<path fill="none" stroke="black" d="M362.65,-500.753C306.313,-562.189 212.442,-664.554 147.984,-734.846"/>
</g>
<!-- EmailConfirmationsController -->
<g id="node8" class="node"><title>EmailConfirmationsController</title>
<polyline fill="none" stroke="black" points="13,-291.3 208,-291.3 "/>
<path fill="none" stroke="black" d="M208,-291.3C214,-291.3 220,-297.3 220,-303.3"/>
<polyline fill="none" stroke="black" points="220,-303.3 220,-381.3 "/>
<path fill="none" stroke="black" d="M220,-381.3C220,-387.3 214,-393.3 208,-393.3"/>
<polyline fill="none" stroke="black" points="208,-393.3 13,-393.3 "/>
<path fill="none" stroke="black" d="M13,-393.3C7,-393.3 1,-387.3 1,-381.3"/>
<polyline fill="none" stroke="black" points="1,-381.3 1,-303.3 "/>
<path fill="none" stroke="black" d="M1,-303.3C1,-297.3 7,-291.3 13,-291.3"/>
<text text-anchor="middle" x="110.5" y="-376.7" font-family="Times Roman,serif" font-size="14.00">EmailConfirmationsController</text>
<polyline fill="none" stroke="black" points="1,-367.3 220,-367.3 "/>
<text text-anchor="start" x="9" y="-350.7" font-family="Times Roman,serif" font-size="14.00">new</text>
<polyline fill="none" stroke="black" points="1,-341.3 220,-341.3 "/>
<polyline fill="none" stroke="black" points="1,-317.3 220,-317.3 "/>
<text text-anchor="start" x="9" y="-300.7" font-family="Times Roman,serif" font-size="14.00">_layout</text>
</g>
<!-- ApplicationController&#45;&gt;EmailConfirmationsController -->
<g id="edge12" class="edge"><title>ApplicationController&#45;&gt;EmailConfirmationsController</title>
<path fill="none" stroke="black" d="M329.844,-419.808C296.156,-407.904 256.506,-393.893 220.248,-381.081"/>
</g>
<!-- QuizzesController -->
<g id="node9" class="node"><title>QuizzesController</title>
<polyline fill="none" stroke="black" points="654.441,-219.489 771.441,-219.489 "/>
<path fill="none" stroke="black" d="M771.441,-219.489C777.441,-219.489 783.441,-225.489 783.441,-231.489"/>
<polyline fill="none" stroke="black" points="783.441,-231.489 783.441,-453.489 "/>
<path fill="none" stroke="black" d="M783.441,-453.489C783.441,-459.489 777.441,-465.489 771.441,-465.489"/>
<polyline fill="none" stroke="black" points="771.441,-465.489 654.441,-465.489 "/>
<path fill="none" stroke="black" d="M654.441,-465.489C648.441,-465.489 642.441,-459.489 642.441,-453.489"/>
<polyline fill="none" stroke="black" points="642.441,-453.489 642.441,-231.489 "/>
<path fill="none" stroke="black" d="M642.441,-231.489C642.441,-225.489 648.441,-219.489 654.441,-219.489"/>
<text text-anchor="middle" x="712.941" y="-448.889" font-family="Times Roman,serif" font-size="14.00">QuizzesController</text>
<polyline fill="none" stroke="black" points="642.441,-439.489 783.441,-439.489 "/>
<text text-anchor="start" x="650.441" y="-422.889" font-family="Times Roman,serif" font-size="14.00">answers</text>
<text text-anchor="start" x="650.441" y="-404.889" font-family="Times Roman,serif" font-size="14.00">create</text>
<text text-anchor="start" x="650.441" y="-386.889" font-family="Times Roman,serif" font-size="14.00">destroy</text>
<text text-anchor="start" x="650.441" y="-368.889" font-family="Times Roman,serif" font-size="14.00">edit</text>
<text text-anchor="start" x="650.441" y="-350.889" font-family="Times Roman,serif" font-size="14.00">index</text>
<text text-anchor="start" x="650.441" y="-332.889" font-family="Times Roman,serif" font-size="14.00">new</text>
<text text-anchor="start" x="650.441" y="-314.889" font-family="Times Roman,serif" font-size="14.00">show</text>
<text text-anchor="start" x="650.441" y="-296.889" font-family="Times Roman,serif" font-size="14.00">update</text>
<polyline fill="none" stroke="black" points="642.441,-287.489 783.441,-287.489 "/>
<polyline fill="none" stroke="black" points="642.441,-263.489 783.441,-263.489 "/>
<text text-anchor="start" x="650.441" y="-246.889" font-family="Times Roman,serif" font-size="14.00">_layout</text>
<text text-anchor="start" x="650.441" y="-228.889" font-family="Times Roman,serif" font-size="14.00">quiz_params</text>
</g>
<!-- ApplicationController&#45;&gt;QuizzesController -->
<g id="edge14" class="edge"><title>ApplicationController&#45;&gt;QuizzesController</title>
<path fill="none" stroke="black" d="M491.285,-420.138C538.329,-403.658 597.125,-383.061 642.338,-367.222"/>
</g>
<!-- ResultsController -->
<g id="node10" class="node"><title>ResultsController</title>
<polyline fill="none" stroke="black" points="21.0486,-17.6703 132.049,-17.6703 "/>
<path fill="none" stroke="black" d="M132.049,-17.6703C138.049,-17.6703 144.049,-23.6703 144.049,-29.6703"/>
<polyline fill="none" stroke="black" points="144.049,-29.6703 144.049,-143.67 "/>
<path fill="none" stroke="black" d="M144.049,-143.67C144.049,-149.67 138.049,-155.67 132.049,-155.67"/>
<polyline fill="none" stroke="black" points="132.049,-155.67 21.0486,-155.67 "/>
<path fill="none" stroke="black" d="M21.0486,-155.67C15.0486,-155.67 9.04859,-149.67 9.04859,-143.67"/>
<polyline fill="none" stroke="black" points="9.04859,-143.67 9.04859,-29.6703 "/>
<path fill="none" stroke="black" d="M9.04859,-29.6703C9.04859,-23.6703 15.0486,-17.6703 21.0486,-17.6703"/>
<text text-anchor="middle" x="76.5486" y="-139.07" font-family="Times Roman,serif" font-size="14.00">ResultsController</text>
<polyline fill="none" stroke="black" points="9.04859,-129.67 144.049,-129.67 "/>
<text text-anchor="start" x="17.0486" y="-113.07" font-family="Times Roman,serif" font-size="14.00">edit</text>
<text text-anchor="start" x="17.0486" y="-95.0703" font-family="Times Roman,serif" font-size="14.00">result_params</text>
<text text-anchor="start" x="17.0486" y="-77.0703" font-family="Times Roman,serif" font-size="14.00">update</text>
<polyline fill="none" stroke="black" points="9.04859,-67.6703 144.049,-67.6703 "/>
<polyline fill="none" stroke="black" points="9.04859,-43.6703 144.049,-43.6703 "/>
<text text-anchor="start" x="17.0486" y="-27.0703" font-family="Times Roman,serif" font-size="14.00">_layout</text>
</g>
<!-- ApplicationController&#45;&gt;ResultsController -->
<g id="edge16" class="edge"><title>ApplicationController&#45;&gt;ResultsController</title>
<path fill="none" stroke="black" d="M362.454,-396.165C303.988,-332.876 205.266,-226.008 140.499,-155.897"/>
</g>
<!-- SessionsController -->
<g id="node11" class="node"><title>SessionsController</title>
<polyline fill="none" stroke="black" points="683.633,-16.6626 803.633,-16.6626 "/>
<path fill="none" stroke="black" d="M803.633,-16.6626C809.633,-16.6626 815.633,-22.6626 815.633,-28.6626"/>
<polyline fill="none" stroke="black" points="815.633,-28.6626 815.633,-142.663 "/>
<path fill="none" stroke="black" d="M815.633,-142.663C815.633,-148.663 809.633,-154.663 803.633,-154.663"/>
<polyline fill="none" stroke="black" points="803.633,-154.663 683.633,-154.663 "/>
<path fill="none" stroke="black" d="M683.633,-154.663C677.633,-154.663 671.633,-148.663 671.633,-142.663"/>
<polyline fill="none" stroke="black" points="671.633,-142.663 671.633,-28.6626 "/>
<path fill="none" stroke="black" d="M671.633,-28.6626C671.633,-22.6626 677.633,-16.6626 683.633,-16.6626"/>
<text text-anchor="middle" x="743.633" y="-138.063" font-family="Times Roman,serif" font-size="14.00">SessionsController</text>
<polyline fill="none" stroke="black" points="671.633,-128.663 815.633,-128.663 "/>
<text text-anchor="start" x="679.633" y="-112.063" font-family="Times Roman,serif" font-size="14.00">create</text>
<text text-anchor="start" x="679.633" y="-94.0626" font-family="Times Roman,serif" font-size="14.00">destroy</text>
<text text-anchor="start" x="679.633" y="-76.0626" font-family="Times Roman,serif" font-size="14.00">new</text>
<polyline fill="none" stroke="black" points="671.633,-66.6626 815.633,-66.6626 "/>
<polyline fill="none" stroke="black" points="671.633,-42.6626 815.633,-42.6626 "/>
<text text-anchor="start" x="679.633" y="-26.0626" font-family="Times Roman,serif" font-size="14.00">_layout</text>
</g>
<!-- ApplicationController&#45;&gt;SessionsController -->
<g id="edge18" class="edge"><title>ApplicationController&#45;&gt;SessionsController</title>
<path fill="none" stroke="black" d="M458.741,-396.02C517.089,-332.456 615.676,-225.057 680.208,-154.756"/>
</g>
<!-- UsersController -->
<g id="node12" class="node"><title>UsersController</title>
<polyline fill="none" stroke="black" points="457.034,-1.5 557.034,-1.5 "/>
<path fill="none" stroke="black" d="M557.034,-1.5C563.034,-1.5 569.034,-7.5 569.034,-13.5"/>
<polyline fill="none" stroke="black" points="569.034,-13.5 569.034,-235.5 "/>
<path fill="none" stroke="black" d="M569.034,-235.5C569.034,-241.5 563.034,-247.5 557.034,-247.5"/>
<polyline fill="none" stroke="black" points="557.034,-247.5 457.034,-247.5 "/>
<path fill="none" stroke="black" d="M457.034,-247.5C451.034,-247.5 445.034,-241.5 445.034,-235.5"/>
<polyline fill="none" stroke="black" points="445.034,-235.5 445.034,-13.5 "/>
<path fill="none" stroke="black" d="M445.034,-13.5C445.034,-7.5 451.034,-1.5 457.034,-1.5"/>
<text text-anchor="middle" x="507.034" y="-230.9" font-family="Times Roman,serif" font-size="14.00">UsersController</text>
<polyline fill="none" stroke="black" points="445.034,-221.5 569.034,-221.5 "/>
<text text-anchor="start" x="453.034" y="-204.9" font-family="Times Roman,serif" font-size="14.00">create</text>
<text text-anchor="start" x="453.034" y="-186.9" font-family="Times Roman,serif" font-size="14.00">destroy</text>
<text text-anchor="start" x="453.034" y="-168.9" font-family="Times Roman,serif" font-size="14.00">edit</text>
<text text-anchor="start" x="453.034" y="-150.9" font-family="Times Roman,serif" font-size="14.00">index</text>
<text text-anchor="start" x="453.034" y="-132.9" font-family="Times Roman,serif" font-size="14.00">new</text>
<text text-anchor="start" x="453.034" y="-114.9" font-family="Times Roman,serif" font-size="14.00">show</text>
<text text-anchor="start" x="453.034" y="-96.9" font-family="Times Roman,serif" font-size="14.00">update</text>
<polyline fill="none" stroke="black" points="445.034,-87.5 569.034,-87.5 "/>
<polyline fill="none" stroke="black" points="445.034,-63.5 569.034,-63.5 "/>
<text text-anchor="start" x="453.034" y="-46.9" font-family="Times Roman,serif" font-size="14.00">_layout</text>
<text text-anchor="start" x="453.034" y="-28.9" font-family="Times Roman,serif" font-size="14.00">set_user</text>
<text text-anchor="start" x="453.034" y="-10.9" font-family="Times Roman,serif" font-size="14.00">user_params</text>
</g>
<!-- ApplicationController&#45;&gt;UsersController -->
<g id="edge20" class="edge"><title>ApplicationController&#45;&gt;UsersController</title>
<path fill="none" stroke="black" d="M426.163,-396.338C438.079,-356.284 455.048,-299.246 470.367,-247.751"/>
</g>
<!-- VideosController -->
<g id="node13" class="node"><title>VideosController</title>
<polyline fill="none" stroke="black" points="54.6685,-440.507 161.669,-440.507 "/>
<path fill="none" stroke="black" d="M161.669,-440.507C167.669,-440.507 173.669,-446.507 173.669,-452.507"/>
<polyline fill="none" stroke="black" points="173.669,-452.507 173.669,-656.507 "/>
<path fill="none" stroke="black" d="M173.669,-656.507C173.669,-662.507 167.669,-668.507 161.669,-668.507"/>
<polyline fill="none" stroke="black" points="161.669,-668.507 54.6685,-668.507 "/>
<path fill="none" stroke="black" d="M54.6685,-668.507C48.6685,-668.507 42.6685,-662.507 42.6685,-656.507"/>
<polyline fill="none" stroke="black" points="42.6685,-656.507 42.6685,-452.507 "/>
<path fill="none" stroke="black" d="M42.6685,-452.507C42.6685,-446.507 48.6685,-440.507 54.6685,-440.507"/>
<text text-anchor="middle" x="108.169" y="-651.907" font-family="Times Roman,serif" font-size="14.00">VideosController</text>
<polyline fill="none" stroke="black" points="42.6685,-642.507 173.669,-642.507 "/>
<text text-anchor="start" x="50.6685" y="-625.907" font-family="Times Roman,serif" font-size="14.00">create</text>
<text text-anchor="start" x="50.6685" y="-607.907" font-family="Times Roman,serif" font-size="14.00">destroy</text>
<text text-anchor="start" x="50.6685" y="-589.907" font-family="Times Roman,serif" font-size="14.00">edit</text>
<text text-anchor="start" x="50.6685" y="-571.907" font-family="Times Roman,serif" font-size="14.00">index</text>
<text text-anchor="start" x="50.6685" y="-553.907" font-family="Times Roman,serif" font-size="14.00">new</text>
<text text-anchor="start" x="50.6685" y="-535.907" font-family="Times Roman,serif" font-size="14.00">show</text>
<text text-anchor="start" x="50.6685" y="-517.907" font-family="Times Roman,serif" font-size="14.00">update</text>
<polyline fill="none" stroke="black" points="42.6685,-508.507 173.669,-508.507 "/>
<polyline fill="none" stroke="black" points="42.6685,-484.507 173.669,-484.507 "/>
<text text-anchor="start" x="50.6685" y="-467.907" font-family="Times Roman,serif" font-size="14.00">_layout</text>
<text text-anchor="start" x="50.6685" y="-449.907" font-family="Times Roman,serif" font-size="14.00">video_params</text>
</g>
<!-- ApplicationController&#45;&gt;VideosController -->
<g id="edge22" class="edge"><title>ApplicationController&#45;&gt;VideosController</title>
<path fill="none" stroke="black" d="M330.012,-476.676C281.178,-493.809 219.692,-515.38 173.842,-531.466"/>
</g>
<!-- WelcomeController -->
<g id="node14" class="node"><title>WelcomeController</title>
<polyline fill="none" stroke="black" points="648.713,-494.644 772.713,-494.644 "/>
<path fill="none" stroke="black" d="M772.713,-494.644C778.713,-494.644 784.713,-500.644 784.713,-506.644"/>
<polyline fill="none" stroke="black" points="784.713,-506.644 784.713,-602.644 "/>
<path fill="none" stroke="black" d="M784.713,-602.644C784.713,-608.644 778.713,-614.644 772.713,-614.644"/>
<polyline fill="none" stroke="black" points="772.713,-614.644 648.713,-614.644 "/>
<path fill="none" stroke="black" d="M648.713,-614.644C642.713,-614.644 636.713,-608.644 636.713,-602.644"/>
<polyline fill="none" stroke="black" points="636.713,-602.644 636.713,-506.644 "/>
<path fill="none" stroke="black" d="M636.713,-506.644C636.713,-500.644 642.713,-494.644 648.713,-494.644"/>
<text text-anchor="middle" x="710.713" y="-598.044" font-family="Times Roman,serif" font-size="14.00">WelcomeController</text>
<polyline fill="none" stroke="black" points="636.713,-588.644 784.713,-588.644 "/>
<text text-anchor="start" x="644.713" y="-572.044" font-family="Times Roman,serif" font-size="14.00">about</text>
<text text-anchor="start" x="644.713" y="-554.044" font-family="Times Roman,serif" font-size="14.00">index</text>
<polyline fill="none" stroke="black" points="636.713,-544.644 784.713,-544.644 "/>
<polyline fill="none" stroke="black" points="636.713,-520.644 784.713,-520.644 "/>
<text text-anchor="start" x="644.713" y="-504.044" font-family="Times Roman,serif" font-size="14.00">_layout</text>
</g>
<!-- ApplicationController&#45;&gt;WelcomeController -->
<g id="edge24" class="edge"><title>ApplicationController&#45;&gt;WelcomeController</title>
<path fill="none" stroke="black" d="M491.48,-476.992C536.607,-492.976 592.436,-512.75 636.461,-528.344"/>
</g>
</g>
</svg>
