<?xml version="1.0" encoding="UTF-8" standalone="no"?>
<!DOCTYPE svg PUBLIC "-//W3C//DTD SVG 1.1//EN"
 "http://www.w3.org/Graphics/SVG/1.1/DTD/svg11.dtd">
<!-- Generated by graphviz version 2.26.3 (20100126.1600)
 -->
<!-- Title: models_diagram Pages: 1 -->
<svg width="1648pt" height="1470pt"
 viewBox="0.00 0.00 1648.13 1470.00" xmlns="http://www.w3.org/2000/svg" xmlns:xlink="http://www.w3.org/1999/xlink">
<g id="graph1" class="graph" transform="scale(1 1) rotate(0) translate(4 1466)">
<title>models_diagram</title>
<polygon fill="white" stroke="white" points="-4,5 -4,-1466 1645.13,-1466 1645.13,5 -4,5"/>
<!-- _diagram_info -->
<g id="node1" class="node"><title>_diagram_info</title>
<text text-anchor="start" x="8" y="-1445.8" font-family="Times Roman,serif" font-size="13.00">Models diagram</text>
<text text-anchor="start" x="8" y="-1428.8" font-family="Times Roman,serif" font-size="13.00">Date: Feb 16 2014 &#45; 18:01</text>
<text text-anchor="start" x="8" y="-1411.8" font-family="Times Roman,serif" font-size="13.00">Migration version: 20140216170221</text>
<text text-anchor="start" x="8" y="-1394.8" font-family="Times Roman,serif" font-size="13.00">Generated by RailRoady 1.1.1</text>
<text text-anchor="start" x="8" y="-1377.8" font-family="Times Roman,serif" font-size="13.00">http://railroady.prestonlee.com</text>
</g>
<!-- Ability -->
<g id="node2" class="node"><title>Ability</title>
<polygon fill="none" stroke="black" points="238,-1090 238,-1142 298,-1142 298,-1090 238,-1090"/>
<text text-anchor="middle" x="268" y="-1125.4" font-family="Times Roman,serif" font-size="14.00">Ability</text>
<polyline fill="none" stroke="black" points="238,-1116 298,-1116 "/>
<text text-anchor="middle" x="268" y="-1099.4" font-family="Times Roman,serif" font-size="14.00"> </text>
</g>
<!-- Answer -->
<g id="node3" class="node"><title>Answer</title>
<polyline fill="none" stroke="black" points="394.5,-28 535.5,-28 "/>
<path fill="none" stroke="black" d="M535.5,-28C541.5,-28 547.5,-34 547.5,-40"/>
<polyline fill="none" stroke="black" points="547.5,-40 547.5,-158 "/>
<path fill="none" stroke="black" d="M547.5,-158C547.5,-164 541.5,-170 535.5,-170"/>
<polyline fill="none" stroke="black" points="535.5,-170 394.5,-170 "/>
<path fill="none" stroke="black" d="M394.5,-170C388.5,-170 382.5,-164 382.5,-158"/>
<polyline fill="none" stroke="black" points="382.5,-158 382.5,-40 "/>
<path fill="none" stroke="black" d="M382.5,-40C382.5,-34 388.5,-28 394.5,-28"/>
<text text-anchor="middle" x="465" y="-153.4" font-family="Times Roman,serif" font-size="14.00">Answer</text>
<polyline fill="none" stroke="black" points="382.5,-144 547.5,-144 "/>
<text text-anchor="start" x="390.5" y="-127.4" font-family="Times Roman,serif" font-size="14.00">id :integer</text>
<text text-anchor="start" x="390.5" y="-109.4" font-family="Times Roman,serif" font-size="14.00">content :string</text>
<text text-anchor="start" x="390.5" y="-91.4" font-family="Times Roman,serif" font-size="14.00">question_id :integer</text>
<text text-anchor="start" x="390.5" y="-73.4" font-family="Times Roman,serif" font-size="14.00">created_at :datetime</text>
<text text-anchor="start" x="390.5" y="-55.4" font-family="Times Roman,serif" font-size="14.00">updated_at :datetime</text>
<text text-anchor="start" x="390.5" y="-37.4" font-family="Times Roman,serif" font-size="14.00">correct :boolean</text>
</g>
<!-- Attempt -->
<g id="node4" class="node"><title>Attempt</title>
<polyline fill="none" stroke="black" points="1303.5,-406 1444.5,-406 "/>
<path fill="none" stroke="black" d="M1444.5,-406C1450.5,-406 1456.5,-412 1456.5,-418"/>
<polyline fill="none" stroke="black" points="1456.5,-418 1456.5,-590 "/>
<path fill="none" stroke="black" d="M1456.5,-590C1456.5,-596 1450.5,-602 1444.5,-602"/>
<polyline fill="none" stroke="black" points="1444.5,-602 1303.5,-602 "/>
<path fill="none" stroke="black" d="M1303.5,-602C1297.5,-602 1291.5,-596 1291.5,-590"/>
<polyline fill="none" stroke="black" points="1291.5,-590 1291.5,-418 "/>
<path fill="none" stroke="black" d="M1291.5,-418C1291.5,-412 1297.5,-406 1303.5,-406"/>
<text text-anchor="middle" x="1374" y="-585.4" font-family="Times Roman,serif" font-size="14.00">Attempt</text>
<polyline fill="none" stroke="black" points="1291.5,-576 1456.5,-576 "/>
<text text-anchor="start" x="1299.5" y="-559.4" font-family="Times Roman,serif" font-size="14.00">id :integer</text>
<text text-anchor="start" x="1299.5" y="-541.4" font-family="Times Roman,serif" font-size="14.00">user_id :integer</text>
<text text-anchor="start" x="1299.5" y="-523.4" font-family="Times Roman,serif" font-size="14.00">section_id :integer</text>
<text text-anchor="start" x="1299.5" y="-505.4" font-family="Times Roman,serif" font-size="14.00">status :string</text>
<text text-anchor="start" x="1299.5" y="-487.4" font-family="Times Roman,serif" font-size="14.00">start_time :datetime</text>
<text text-anchor="start" x="1299.5" y="-469.4" font-family="Times Roman,serif" font-size="14.00">end_time :datetime</text>
<text text-anchor="start" x="1299.5" y="-451.4" font-family="Times Roman,serif" font-size="14.00">created_at :datetime</text>
<text text-anchor="start" x="1299.5" y="-433.4" font-family="Times Roman,serif" font-size="14.00">updated_at :datetime</text>
<text text-anchor="start" x="1299.5" y="-415.4" font-family="Times Roman,serif" font-size="14.00">passed :boolean</text>
</g>
<!-- Result -->
<g id="node12" class="node"><title>Result</title>
<polyline fill="none" stroke="black" points="1285.5,-1 1462.5,-1 "/>
<path fill="none" stroke="black" d="M1462.5,-1C1468.5,-1 1474.5,-7 1474.5,-13"/>
<polyline fill="none" stroke="black" points="1474.5,-13 1474.5,-185 "/>
<path fill="none" stroke="black" d="M1474.5,-185C1474.5,-191 1468.5,-197 1462.5,-197"/>
<polyline fill="none" stroke="black" points="1462.5,-197 1285.5,-197 "/>
<path fill="none" stroke="black" d="M1285.5,-197C1279.5,-197 1273.5,-191 1273.5,-185"/>
<polyline fill="none" stroke="black" points="1273.5,-185 1273.5,-13 "/>
<path fill="none" stroke="black" d="M1273.5,-13C1273.5,-7 1279.5,-1 1285.5,-1"/>
<text text-anchor="middle" x="1374" y="-180.4" font-family="Times Roman,serif" font-size="14.00">Result</text>
<polyline fill="none" stroke="black" points="1273.5,-171 1474.5,-171 "/>
<text text-anchor="start" x="1281.5" y="-154.4" font-family="Times Roman,serif" font-size="14.00">id :integer</text>
<text text-anchor="start" x="1281.5" y="-136.4" font-family="Times Roman,serif" font-size="14.00">attempt_id :integer</text>
<text text-anchor="start" x="1281.5" y="-118.4" font-family="Times Roman,serif" font-size="14.00">created_at :datetime</text>
<text text-anchor="start" x="1281.5" y="-100.4" font-family="Times Roman,serif" font-size="14.00">updated_at :datetime</text>
<text text-anchor="start" x="1281.5" y="-82.4" font-family="Times Roman,serif" font-size="14.00">question_id :integer</text>
<text text-anchor="start" x="1281.5" y="-64.4" font-family="Times Roman,serif" font-size="14.00">correct_answer_id :integer</text>
<text text-anchor="start" x="1281.5" y="-46.4" font-family="Times Roman,serif" font-size="14.00">answer_id :integer</text>
<text text-anchor="start" x="1281.5" y="-28.4" font-family="Times Roman,serif" font-size="14.00">next_question :integer</text>
<text text-anchor="start" x="1281.5" y="-10.4" font-family="Times Roman,serif" font-size="14.00">prev_question :integer</text>
</g>
<!-- Attempt&#45;&gt;Result -->
<g id="edge6" class="edge"><title>Attempt&#45;&gt;Result</title>
<path fill="none" stroke="#a1a5de" d="M1374,-397.697C1374,-339.011 1374,-266.283 1374,-207.285"/>
<ellipse fill="none" stroke="#a1a5de" cx="1374" cy="-401.961" rx="4" ry="4"/>
<polygon fill="#a1a5de" stroke="#a1a5de" points="1374,-207.189 1378.5,-197.189 1374,-202.189 1374,-197.189 1374,-197.189 1374,-197.189 1374,-202.189 1369.5,-197.189 1374,-207.189 1374,-207.189"/>
</g>
<!-- Certificate -->
<g id="node5" class="node"><title>Certificate</title>
<polyline fill="none" stroke="black" points="1011.5,-658 1152.5,-658 "/>
<path fill="none" stroke="black" d="M1152.5,-658C1158.5,-658 1164.5,-664 1164.5,-670"/>
<polyline fill="none" stroke="black" points="1164.5,-670 1164.5,-842 "/>
<path fill="none" stroke="black" d="M1164.5,-842C1164.5,-848 1158.5,-854 1152.5,-854"/>
<polyline fill="none" stroke="black" points="1152.5,-854 1011.5,-854 "/>
<path fill="none" stroke="black" d="M1011.5,-854C1005.5,-854 999.5,-848 999.5,-842"/>
<polyline fill="none" stroke="black" points="999.5,-842 999.5,-670 "/>
<path fill="none" stroke="black" d="M999.5,-670C999.5,-664 1005.5,-658 1011.5,-658"/>
<text text-anchor="middle" x="1082" y="-837.4" font-family="Times Roman,serif" font-size="14.00">Certificate</text>
<polyline fill="none" stroke="black" points="999.5,-828 1164.5,-828 "/>
<text text-anchor="start" x="1007.5" y="-811.4" font-family="Times Roman,serif" font-size="14.00">id :integer</text>
<text text-anchor="start" x="1007.5" y="-793.4" font-family="Times Roman,serif" font-size="14.00">course_id :integer</text>
<text text-anchor="start" x="1007.5" y="-775.4" font-family="Times Roman,serif" font-size="14.00">user_id :integer</text>
<text text-anchor="start" x="1007.5" y="-757.4" font-family="Times Roman,serif" font-size="14.00">purchase_date :date</text>
<text text-anchor="start" x="1007.5" y="-739.4" font-family="Times Roman,serif" font-size="14.00">purchase_price :float</text>
<text text-anchor="start" x="1007.5" y="-721.4" font-family="Times Roman,serif" font-size="14.00">slug :string</text>
<text text-anchor="start" x="1007.5" y="-703.4" font-family="Times Roman,serif" font-size="14.00">created_at :datetime</text>
<text text-anchor="start" x="1007.5" y="-685.4" font-family="Times Roman,serif" font-size="14.00">updated_at :datetime</text>
<text text-anchor="start" x="1007.5" y="-667.4" font-family="Times Roman,serif" font-size="14.00">ceu_id :integer</text>
</g>
<!-- Ceu -->
<g id="node6" class="node"><title>Ceu</title>
<polyline fill="none" stroke="black" points="533.5,-667 674.5,-667 "/>
<path fill="none" stroke="black" d="M674.5,-667C680.5,-667 686.5,-673 686.5,-679"/>
<polyline fill="none" stroke="black" points="686.5,-679 686.5,-833 "/>
<path fill="none" stroke="black" d="M686.5,-833C686.5,-839 680.5,-845 674.5,-845"/>
<polyline fill="none" stroke="black" points="674.5,-845 533.5,-845 "/>
<path fill="none" stroke="black" d="M533.5,-845C527.5,-845 521.5,-839 521.5,-833"/>
<polyline fill="none" stroke="black" points="521.5,-833 521.5,-679 "/>
<path fill="none" stroke="black" d="M521.5,-679C521.5,-673 527.5,-667 533.5,-667"/>
<text text-anchor="middle" x="604" y="-828.4" font-family="Times Roman,serif" font-size="14.00">Ceu</text>
<polyline fill="none" stroke="black" points="521.5,-819 686.5,-819 "/>
<text text-anchor="start" x="529.5" y="-802.4" font-family="Times Roman,serif" font-size="14.00">id :integer</text>
<text text-anchor="start" x="529.5" y="-784.4" font-family="Times Roman,serif" font-size="14.00">course_id :integer</text>
<text text-anchor="start" x="529.5" y="-766.4" font-family="Times Roman,serif" font-size="14.00">organization :string</text>
<text text-anchor="start" x="529.5" y="-748.4" font-family="Times Roman,serif" font-size="14.00">name :text</text>
<text text-anchor="start" x="529.5" y="-730.4" font-family="Times Roman,serif" font-size="14.00">credit :float</text>
<text text-anchor="start" x="529.5" y="-712.4" font-family="Times Roman,serif" font-size="14.00">created_at :datetime</text>
<text text-anchor="start" x="529.5" y="-694.4" font-family="Times Roman,serif" font-size="14.00">updated_at :datetime</text>
<text text-anchor="start" x="529.5" y="-676.4" font-family="Times Roman,serif" font-size="14.00">code :string</text>
</g>
<!-- Course -->
<g id="node7" class="node"><title>Course</title>
<polyline fill="none" stroke="black" points="699.5,-1009 840.5,-1009 "/>
<path fill="none" stroke="black" d="M840.5,-1009C846.5,-1009 852.5,-1015 852.5,-1021"/>
<polyline fill="none" stroke="black" points="852.5,-1021 852.5,-1211 "/>
<path fill="none" stroke="black" d="M852.5,-1211C852.5,-1217 846.5,-1223 840.5,-1223"/>
<polyline fill="none" stroke="black" points="840.5,-1223 699.5,-1223 "/>
<path fill="none" stroke="black" d="M699.5,-1223C693.5,-1223 687.5,-1217 687.5,-1211"/>
<polyline fill="none" stroke="black" points="687.5,-1211 687.5,-1021 "/>
<path fill="none" stroke="black" d="M687.5,-1021C687.5,-1015 693.5,-1009 699.5,-1009"/>
<text text-anchor="middle" x="770" y="-1206.4" font-family="Times Roman,serif" font-size="14.00">Course</text>
<polyline fill="none" stroke="black" points="687.5,-1197 852.5,-1197 "/>
<text text-anchor="start" x="695.5" y="-1180.4" font-family="Times Roman,serif" font-size="14.00">id :integer</text>
<text text-anchor="start" x="695.5" y="-1162.4" font-family="Times Roman,serif" font-size="14.00">name :string</text>
<text text-anchor="start" x="695.5" y="-1144.4" font-family="Times Roman,serif" font-size="14.00">description :text</text>
<text text-anchor="start" x="695.5" y="-1126.4" font-family="Times Roman,serif" font-size="14.00">price :decimal</text>
<text text-anchor="start" x="695.5" y="-1108.4" font-family="Times Roman,serif" font-size="14.00">slug :string</text>
<text text-anchor="start" x="695.5" y="-1090.4" font-family="Times Roman,serif" font-size="14.00">created_at :datetime</text>
<text text-anchor="start" x="695.5" y="-1072.4" font-family="Times Roman,serif" font-size="14.00">updated_at :datetime</text>
<text text-anchor="start" x="695.5" y="-1054.4" font-family="Times Roman,serif" font-size="14.00">user_id :integer</text>
<text text-anchor="start" x="695.5" y="-1036.4" font-family="Times Roman,serif" font-size="14.00">released :boolean</text>
<text text-anchor="start" x="695.5" y="-1018.4" font-family="Times Roman,serif" font-size="14.00">handout :string</text>
</g>
<!-- Course&#45;&gt;Certificate -->
<g id="edge20" class="edge"><title>Course&#45;&gt;Certificate</title>
<path fill="none" stroke="#ea9e2d" d="M858.149,-1014.29C900.21,-965.757 950.446,-907.793 992.66,-859.085"/>
<ellipse fill="none" stroke="#ea9e2d" cx="855.411" cy="-1017.45" rx="4.00002" ry="4.00002"/>
<polygon fill="#ea9e2d" stroke="#ea9e2d" points="992.814,-858.906 1002.76,-854.297 996.089,-855.128 999.364,-851.349 999.364,-851.349 999.364,-851.349 996.089,-855.128 995.963,-848.402 992.814,-858.906 992.814,-858.906"/>
</g>
<!-- Course&#45;&gt;Ceu -->
<g id="edge22" class="edge"><title>Course&#45;&gt;Ceu</title>
<path fill="none" stroke="#80afc2" d="M717.228,-1001.56C695.393,-954.201 670.324,-899.836 649.335,-854.316"/>
<ellipse fill="none" stroke="#80afc2" cx="718.969" cy="-1005.33" rx="4.00002" ry="4.00002"/>
<polygon fill="#80afc2" stroke="#80afc2" points="649.244,-854.12 649.144,-843.155 647.151,-849.58 645.057,-845.039 645.057,-845.039 645.057,-845.039 647.151,-849.58 640.971,-846.924 649.244,-854.12 649.244,-854.12"/>
</g>
<!-- Quiz -->
<g id="node11" class="node"><title>Quiz</title>
<polyline fill="none" stroke="black" points="512.5,-424 733.5,-424 "/>
<path fill="none" stroke="black" d="M733.5,-424C739.5,-424 745.5,-430 745.5,-436"/>
<polyline fill="none" stroke="black" points="745.5,-436 745.5,-572 "/>
<path fill="none" stroke="black" d="M745.5,-572C745.5,-578 739.5,-584 733.5,-584"/>
<polyline fill="none" stroke="black" points="733.5,-584 512.5,-584 "/>
<path fill="none" stroke="black" d="M512.5,-584C506.5,-584 500.5,-578 500.5,-572"/>
<polyline fill="none" stroke="black" points="500.5,-572 500.5,-436 "/>
<path fill="none" stroke="black" d="M500.5,-436C500.5,-430 506.5,-424 512.5,-424"/>
<text text-anchor="middle" x="623" y="-567.4" font-family="Times Roman,serif" font-size="14.00">Quiz</text>
<polyline fill="none" stroke="black" points="500.5,-558 745.5,-558 "/>
<text text-anchor="start" x="508.5" y="-541.4" font-family="Times Roman,serif" font-size="14.00">id :integer</text>
<text text-anchor="start" x="508.5" y="-523.4" font-family="Times Roman,serif" font-size="14.00">name :string</text>
<text text-anchor="start" x="508.5" y="-505.4" font-family="Times Roman,serif" font-size="14.00">description :text</text>
<text text-anchor="start" x="508.5" y="-487.4" font-family="Times Roman,serif" font-size="14.00">created_at :datetime</text>
<text text-anchor="start" x="508.5" y="-469.4" font-family="Times Roman,serif" font-size="14.00">updated_at :datetime</text>
<text text-anchor="start" x="508.5" y="-451.4" font-family="Times Roman,serif" font-size="14.00">num_questions_to_show :integer</text>
<text text-anchor="start" x="508.5" y="-433.4" font-family="Times Roman,serif" font-size="14.00">passing_score :integer</text>
</g>
<!-- Course&#45;&gt;Quiz -->
<g id="edge18" class="edge"><title>Course&#45;&gt;Quiz</title>
<path fill="none" stroke="#00a5e2" d="M755.355,-998.765C740.034,-882.065 715.417,-711.46 695,-648 689.132,-629.76 681.243,-610.963 672.838,-593.216"/>
<polygon fill="#00a5e2" stroke="#00a5e2" points="755.374,-998.912 752.208,-1009.41 756.022,-1003.87 756.67,-1008.83 756.67,-1008.83 756.67,-1008.83 756.022,-1003.87 761.132,-1008.24 755.374,-998.912 755.374,-998.912"/>
<polygon fill="#00a5e2" stroke="#00a5e2" points="672.754,-593.043 672.455,-582.081 670.579,-588.541 668.403,-584.039 668.403,-584.039 668.403,-584.039 670.579,-588.541 664.351,-585.997 672.754,-593.043 672.754,-593.043"/>
</g>
<!-- Section -->
<g id="node13" class="node"><title>Section</title>
<polyline fill="none" stroke="black" points="791.5,-676 932.5,-676 "/>
<path fill="none" stroke="black" d="M932.5,-676C938.5,-676 944.5,-682 944.5,-688"/>
<polyline fill="none" stroke="black" points="944.5,-688 944.5,-824 "/>
<path fill="none" stroke="black" d="M944.5,-824C944.5,-830 938.5,-836 932.5,-836"/>
<polyline fill="none" stroke="black" points="932.5,-836 791.5,-836 "/>
<path fill="none" stroke="black" d="M791.5,-836C785.5,-836 779.5,-830 779.5,-824"/>
<polyline fill="none" stroke="black" points="779.5,-824 779.5,-688 "/>
<path fill="none" stroke="black" d="M779.5,-688C779.5,-682 785.5,-676 791.5,-676"/>
<text text-anchor="middle" x="862" y="-819.4" font-family="Times Roman,serif" font-size="14.00">Section</text>
<polyline fill="none" stroke="black" points="779.5,-810 944.5,-810 "/>
<text text-anchor="start" x="787.5" y="-793.4" font-family="Times Roman,serif" font-size="14.00">id :integer</text>
<text text-anchor="start" x="787.5" y="-775.4" font-family="Times Roman,serif" font-size="14.00">sequence :integer</text>
<text text-anchor="start" x="787.5" y="-757.4" font-family="Times Roman,serif" font-size="14.00">course_id :integer</text>
<text text-anchor="start" x="787.5" y="-739.4" font-family="Times Roman,serif" font-size="14.00">video_id :integer</text>
<text text-anchor="start" x="787.5" y="-721.4" font-family="Times Roman,serif" font-size="14.00">quiz_id :integer</text>
<text text-anchor="start" x="787.5" y="-703.4" font-family="Times Roman,serif" font-size="14.00">created_at :datetime</text>
<text text-anchor="start" x="787.5" y="-685.4" font-family="Times Roman,serif" font-size="14.00">updated_at :datetime</text>
</g>
<!-- Course&#45;&gt;Section -->
<g id="edge14" class="edge"><title>Course&#45;&gt;Section</title>
<path fill="none" stroke="#8e5902" d="M799.364,-1001.1C812.196,-950.886 827.023,-892.867 839.029,-845.885"/>
<ellipse fill="none" stroke="#8e5902" cx="798.344" cy="-1005.09" rx="4.00001" ry="4.00001"/>
<polygon fill="#8e5902" stroke="#8e5902" points="839.071,-845.723 845.907,-837.149 840.309,-840.879 841.547,-836.034 841.547,-836.034 841.547,-836.034 840.309,-840.879 837.187,-834.92 839.071,-845.723 839.071,-845.723"/>
</g>
<!-- Video -->
<g id="node16" class="node"><title>Video</title>
<polyline fill="none" stroke="black" points="791.5,-397 932.5,-397 "/>
<path fill="none" stroke="black" d="M932.5,-397C938.5,-397 944.5,-403 944.5,-409"/>
<polyline fill="none" stroke="black" points="944.5,-409 944.5,-599 "/>
<path fill="none" stroke="black" d="M944.5,-599C944.5,-605 938.5,-611 932.5,-611"/>
<polyline fill="none" stroke="black" points="932.5,-611 791.5,-611 "/>
<path fill="none" stroke="black" d="M791.5,-611C785.5,-611 779.5,-605 779.5,-599"/>
<polyline fill="none" stroke="black" points="779.5,-599 779.5,-409 "/>
<path fill="none" stroke="black" d="M779.5,-409C779.5,-403 785.5,-397 791.5,-397"/>
<text text-anchor="middle" x="862" y="-594.4" font-family="Times Roman,serif" font-size="14.00">Video</text>
<polyline fill="none" stroke="black" points="779.5,-585 944.5,-585 "/>
<text text-anchor="start" x="787.5" y="-568.4" font-family="Times Roman,serif" font-size="14.00">id :integer</text>
<text text-anchor="start" x="787.5" y="-550.4" font-family="Times Roman,serif" font-size="14.00">name :string</text>
<text text-anchor="start" x="787.5" y="-532.4" font-family="Times Roman,serif" font-size="14.00">description :text</text>
<text text-anchor="start" x="787.5" y="-514.4" font-family="Times Roman,serif" font-size="14.00">length :float</text>
<text text-anchor="start" x="787.5" y="-496.4" font-family="Times Roman,serif" font-size="14.00">presenter :string</text>
<text text-anchor="start" x="787.5" y="-478.4" font-family="Times Roman,serif" font-size="14.00">url :string</text>
<text text-anchor="start" x="787.5" y="-460.4" font-family="Times Roman,serif" font-size="14.00">created_at :datetime</text>
<text text-anchor="start" x="787.5" y="-442.4" font-family="Times Roman,serif" font-size="14.00">updated_at :datetime</text>
<text text-anchor="start" x="787.5" y="-424.4" font-family="Times Roman,serif" font-size="14.00">slug :string</text>
<text text-anchor="start" x="787.5" y="-406.4" font-family="Times Roman,serif" font-size="14.00">youtube_id :string</text>
</g>
<!-- Course&#45;&gt;Video -->
<g id="edge16" class="edge"><title>Course&#45;&gt;Video</title>
<path fill="none" stroke="#03be22" d="M752.516,-998.546C742.365,-902.322 737.381,-763.669 771,-648 773.665,-638.832 777.105,-629.685 781.082,-620.702"/>
<polygon fill="#03be22" stroke="#03be22" points="752.528,-998.658 749.138,-1009.09 753.07,-1003.63 753.612,-1008.6 753.612,-1008.6 753.612,-1008.6 753.07,-1003.63 758.085,-1008.11 752.528,-998.658 752.528,-998.658"/>
<polygon fill="#03be22" stroke="#03be22" points="781.19,-620.47 789.491,-613.304 783.301,-615.937 785.411,-611.404 785.411,-611.404 785.411,-611.404 783.301,-615.937 781.332,-609.505 781.19,-620.47 781.19,-620.47"/>
</g>
<!-- Log -->
<g id="node8" class="node"><title>Log</title>
<polyline fill="none" stroke="black" points="1193.5,-649 1334.5,-649 "/>
<path fill="none" stroke="black" d="M1334.5,-649C1340.5,-649 1346.5,-655 1346.5,-661"/>
<polyline fill="none" stroke="black" points="1346.5,-661 1346.5,-851 "/>
<path fill="none" stroke="black" d="M1346.5,-851C1346.5,-857 1340.5,-863 1334.5,-863"/>
<polyline fill="none" stroke="black" points="1334.5,-863 1193.5,-863 "/>
<path fill="none" stroke="black" d="M1193.5,-863C1187.5,-863 1181.5,-857 1181.5,-851"/>
<polyline fill="none" stroke="black" points="1181.5,-851 1181.5,-661 "/>
<path fill="none" stroke="black" d="M1181.5,-661C1181.5,-655 1187.5,-649 1193.5,-649"/>
<text text-anchor="middle" x="1264" y="-846.4" font-family="Times Roman,serif" font-size="14.00">Log</text>
<polyline fill="none" stroke="black" points="1181.5,-837 1346.5,-837 "/>
<text text-anchor="start" x="1189.5" y="-820.4" font-family="Times Roman,serif" font-size="14.00">id :integer</text>
<text text-anchor="start" x="1189.5" y="-802.4" font-family="Times Roman,serif" font-size="14.00">user_id :integer</text>
<text text-anchor="start" x="1189.5" y="-784.4" font-family="Times Roman,serif" font-size="14.00">course_id :integer</text>
<text text-anchor="start" x="1189.5" y="-766.4" font-family="Times Roman,serif" font-size="14.00">video_id :integer</text>
<text text-anchor="start" x="1189.5" y="-748.4" font-family="Times Roman,serif" font-size="14.00">url :text</text>
<text text-anchor="start" x="1189.5" y="-730.4" font-family="Times Roman,serif" font-size="14.00">status :string</text>
<text text-anchor="start" x="1189.5" y="-712.4" font-family="Times Roman,serif" font-size="14.00">time :datetime</text>
<text text-anchor="start" x="1189.5" y="-694.4" font-family="Times Roman,serif" font-size="14.00">tracked :boolean</text>
<text text-anchor="start" x="1189.5" y="-676.4" font-family="Times Roman,serif" font-size="14.00">created_at :datetime</text>
<text text-anchor="start" x="1189.5" y="-658.4" font-family="Times Roman,serif" font-size="14.00">updated_at :datetime</text>
</g>
<!-- Message -->
<g id="node9" class="node"><title>Message</title>
<polygon fill="none" stroke="black" points="315.5,-1090 315.5,-1142 390.5,-1142 390.5,-1090 315.5,-1090"/>
<text text-anchor="middle" x="353" y="-1125.4" font-family="Times Roman,serif" font-size="14.00">Message</text>
<polyline fill="none" stroke="black" points="315.5,-1116 390.5,-1116 "/>
<text text-anchor="middle" x="353" y="-1099.4" font-family="Times Roman,serif" font-size="14.00"> </text>
</g>
<!-- Question -->
<g id="node10" class="node"><title>Question</title>
<polyline fill="none" stroke="black" points="505.5,-235 646.5,-235 "/>
<path fill="none" stroke="black" d="M646.5,-235C652.5,-235 658.5,-241 658.5,-247"/>
<polyline fill="none" stroke="black" points="658.5,-247 658.5,-347 "/>
<path fill="none" stroke="black" d="M658.5,-347C658.5,-353 652.5,-359 646.5,-359"/>
<polyline fill="none" stroke="black" points="646.5,-359 505.5,-359 "/>
<path fill="none" stroke="black" d="M505.5,-359C499.5,-359 493.5,-353 493.5,-347"/>
<polyline fill="none" stroke="black" points="493.5,-347 493.5,-247 "/>
<path fill="none" stroke="black" d="M493.5,-247C493.5,-241 499.5,-235 505.5,-235"/>
<text text-anchor="middle" x="576" y="-342.4" font-family="Times Roman,serif" font-size="14.00">Question</text>
<polyline fill="none" stroke="black" points="493.5,-333 658.5,-333 "/>
<text text-anchor="start" x="501.5" y="-316.4" font-family="Times Roman,serif" font-size="14.00">id :integer</text>
<text text-anchor="start" x="501.5" y="-298.4" font-family="Times Roman,serif" font-size="14.00">content :text</text>
<text text-anchor="start" x="501.5" y="-280.4" font-family="Times Roman,serif" font-size="14.00">quiz_id :integer</text>
<text text-anchor="start" x="501.5" y="-262.4" font-family="Times Roman,serif" font-size="14.00">created_at :datetime</text>
<text text-anchor="start" x="501.5" y="-244.4" font-family="Times Roman,serif" font-size="14.00">updated_at :datetime</text>
</g>
<!-- Question&#45;&gt;Answer -->
<g id="edge30" class="edge"><title>Question&#45;&gt;Answer</title>
<path fill="none" stroke="#e9f223" d="M537.085,-227.583C528.296,-211.906 518.896,-195.138 509.884,-179.063"/>
<ellipse fill="none" stroke="#e9f223" cx="539.227" cy="-231.406" rx="4.00002" ry="4.00002"/>
<polygon fill="#e9f223" stroke="#e9f223" points="509.814,-178.938 508.849,-168.014 507.369,-174.576 504.923,-170.215 504.923,-170.215 504.923,-170.215 507.369,-174.576 500.998,-172.415 509.814,-178.938 509.814,-178.938"/>
</g>
<!-- Question&#45;&gt;Result -->
<g id="edge32" class="edge"><title>Question&#45;&gt;Result</title>
<path fill="none" stroke="#a1d8b6" d="M666.689,-274.498C813.873,-237.979 1104.28,-165.924 1263.37,-126.449"/>
<ellipse fill="none" stroke="#a1d8b6" cx="662.65" cy="-275.5" rx="4.00001" ry="4.00001"/>
<polygon fill="#a1d8b6" stroke="#a1d8b6" points="1263.48,-126.422 1274.27,-128.381 1268.34,-125.217 1273.19,-124.013 1273.19,-124.013 1273.19,-124.013 1268.34,-125.217 1272.11,-119.646 1263.48,-126.422 1263.48,-126.422"/>
</g>
<!-- Quiz&#45;&gt;Question -->
<g id="edge36" class="edge"><title>Quiz&#45;&gt;Question</title>
<path fill="none" stroke="#41514d" d="M603.042,-416.101C599.475,-400.392 595.797,-384.191 592.346,-368.993"/>
<ellipse fill="none" stroke="#41514d" cx="603.943" cy="-420.068" rx="4.00001" ry="4.00001"/>
<polygon fill="#41514d" stroke="#41514d" points="592.329,-368.917 594.503,-358.169 591.222,-364.041 590.115,-359.165 590.115,-359.165 590.115,-359.165 591.222,-364.041 585.726,-360.161 592.329,-368.917 592.329,-368.917"/>
</g>
<!-- Section&#45;&gt;Attempt -->
<g id="edge46" class="edge"><title>Section&#45;&gt;Attempt</title>
<path fill="none" stroke="#3aed7d" d="M951.32,-674.813C964.155,-665.082 977.574,-655.836 991,-648 1083.96,-593.742 1201.05,-553.267 1281.14,-529.266"/>
<ellipse fill="none" stroke="#3aed7d" cx="947.833" cy="-677.5" rx="4.00002" ry="4.00002"/>
<polygon fill="#3aed7d" stroke="#3aed7d" points="1281.62,-529.123 1292.49,-530.591 1286.41,-527.7 1291.21,-526.277 1291.21,-526.277 1291.21,-526.277 1286.41,-527.7 1289.93,-521.963 1281.62,-529.123 1281.62,-529.123"/>
</g>
<!-- Section&#45;&gt;Quiz -->
<g id="edge44" class="edge"><title>Section&#45;&gt;Quiz</title>
<path fill="none" stroke="#ce0adf" d="M780.477,-670.043C756.003,-644.238 729.158,-615.932 704.674,-590.117"/>
<ellipse fill="none" stroke="#ce0adf" cx="783.298" cy="-673.017" rx="4.00002" ry="4.00002"/>
<ellipse fill="#ce0adf" stroke="#ce0adf" cx="701.915" cy="-587.207" rx="4.00002" ry="4.00002"/>
</g>
<!-- Section&#45;&gt;Video -->
<g id="edge42" class="edge"><title>Section&#45;&gt;Video</title>
<path fill="none" stroke="#4f7604" d="M862,-667.614C862,-652.057 862,-635.658 862,-619.491"/>
<ellipse fill="none" stroke="#4f7604" cx="862" cy="-671.919" rx="4" ry="4"/>
<ellipse fill="#4f7604" stroke="#4f7604" cx="862" cy="-615.064" rx="4" ry="4"/>
</g>
<!-- Stat -->
<g id="node14" class="node"><title>Stat</title>
<polyline fill="none" stroke="black" points="1364.5,-1045 1505.5,-1045 "/>
<path fill="none" stroke="black" d="M1505.5,-1045C1511.5,-1045 1517.5,-1051 1517.5,-1057"/>
<polyline fill="none" stroke="black" points="1517.5,-1057 1517.5,-1175 "/>
<path fill="none" stroke="black" d="M1517.5,-1175C1517.5,-1181 1511.5,-1187 1505.5,-1187"/>
<polyline fill="none" stroke="black" points="1505.5,-1187 1364.5,-1187 "/>
<path fill="none" stroke="black" d="M1364.5,-1187C1358.5,-1187 1352.5,-1181 1352.5,-1175"/>
<polyline fill="none" stroke="black" points="1352.5,-1175 1352.5,-1057 "/>
<path fill="none" stroke="black" d="M1352.5,-1057C1352.5,-1051 1358.5,-1045 1364.5,-1045"/>
<text text-anchor="middle" x="1435" y="-1170.4" font-family="Times Roman,serif" font-size="14.00">Stat</text>
<polyline fill="none" stroke="black" points="1352.5,-1161 1517.5,-1161 "/>
<text text-anchor="start" x="1360.5" y="-1144.4" font-family="Times Roman,serif" font-size="14.00">id :integer</text>
<text text-anchor="start" x="1360.5" y="-1126.4" font-family="Times Roman,serif" font-size="14.00">user_id :integer</text>
<text text-anchor="start" x="1360.5" y="-1108.4" font-family="Times Roman,serif" font-size="14.00">course_id :integer</text>
<text text-anchor="start" x="1360.5" y="-1090.4" font-family="Times Roman,serif" font-size="14.00">total_time :float</text>
<text text-anchor="start" x="1360.5" y="-1072.4" font-family="Times Roman,serif" font-size="14.00">created_at :datetime</text>
<text text-anchor="start" x="1360.5" y="-1054.4" font-family="Times Roman,serif" font-size="14.00">updated_at :datetime</text>
</g>
<!-- User -->
<g id="node15" class="node"><title>User</title>
<polyline fill="none" stroke="black" points="1093,-901 1323,-901 "/>
<path fill="none" stroke="black" d="M1323,-901C1329,-901 1335,-907 1335,-913"/>
<polyline fill="none" stroke="black" points="1335,-913 1335,-1319 "/>
<path fill="none" stroke="black" d="M1335,-1319C1335,-1325 1329,-1331 1323,-1331"/>
<polyline fill="none" stroke="black" points="1323,-1331 1093,-1331 "/>
<path fill="none" stroke="black" d="M1093,-1331C1087,-1331 1081,-1325 1081,-1319"/>
<polyline fill="none" stroke="black" points="1081,-1319 1081,-913 "/>
<path fill="none" stroke="black" d="M1081,-913C1081,-907 1087,-901 1093,-901"/>
<text text-anchor="middle" x="1208" y="-1314.4" font-family="Times Roman,serif" font-size="14.00">User</text>
<polyline fill="none" stroke="black" points="1081,-1305 1335,-1305 "/>
<text text-anchor="start" x="1089" y="-1288.4" font-family="Times Roman,serif" font-size="14.00">id :integer</text>
<text text-anchor="start" x="1089" y="-1270.4" font-family="Times Roman,serif" font-size="14.00">last_name :string</text>
<text text-anchor="start" x="1089" y="-1252.4" font-family="Times Roman,serif" font-size="14.00">password_digest :string</text>
<text text-anchor="start" x="1089" y="-1234.4" font-family="Times Roman,serif" font-size="14.00">email :string</text>
<text text-anchor="start" x="1089" y="-1216.4" font-family="Times Roman,serif" font-size="14.00">account :string</text>
<text text-anchor="start" x="1089" y="-1198.4" font-family="Times Roman,serif" font-size="14.00">slug :string</text>
<text text-anchor="start" x="1089" y="-1180.4" font-family="Times Roman,serif" font-size="14.00">confirmed_at :date</text>
<text text-anchor="start" x="1089" y="-1162.4" font-family="Times Roman,serif" font-size="14.00">created_at :datetime</text>
<text text-anchor="start" x="1089" y="-1144.4" font-family="Times Roman,serif" font-size="14.00">updated_at :datetime</text>
<text text-anchor="start" x="1089" y="-1126.4" font-family="Times Roman,serif" font-size="14.00">token :string</text>
<text text-anchor="start" x="1089" y="-1108.4" font-family="Times Roman,serif" font-size="14.00">first_name :string</text>
<text text-anchor="start" x="1089" y="-1090.4" font-family="Times Roman,serif" font-size="14.00">title :string</text>
<text text-anchor="start" x="1089" y="-1072.4" font-family="Times Roman,serif" font-size="14.00">company :string</text>
<text text-anchor="start" x="1089" y="-1054.4" font-family="Times Roman,serif" font-size="14.00">address1 :string</text>
<text text-anchor="start" x="1089" y="-1036.4" font-family="Times Roman,serif" font-size="14.00">address2 :string</text>
<text text-anchor="start" x="1089" y="-1018.4" font-family="Times Roman,serif" font-size="14.00">city :string</text>
<text text-anchor="start" x="1089" y="-1000.4" font-family="Times Roman,serif" font-size="14.00">state :string</text>
<text text-anchor="start" x="1089" y="-982.4" font-family="Times Roman,serif" font-size="14.00">postal_code :string</text>
<text text-anchor="start" x="1089" y="-964.4" font-family="Times Roman,serif" font-size="14.00">country :string</text>
<text text-anchor="start" x="1089" y="-946.4" font-family="Times Roman,serif" font-size="14.00">phone :string</text>
<text text-anchor="start" x="1089" y="-928.4" font-family="Times Roman,serif" font-size="14.00">password_reset_token :string</text>
<text text-anchor="start" x="1089" y="-910.4" font-family="Times Roman,serif" font-size="14.00">password_reset_sent_at :datetime</text>
</g>
<!-- User&#45;&gt;Attempt -->
<g id="edge54" class="edge"><title>User&#45;&gt;Attempt</title>
<path fill="none" stroke="#61fdce" d="M1338.28,-909.894C1344.73,-894.707 1350.42,-879.326 1355,-864 1379.48,-782.1 1383.24,-685.123 1381.43,-612.467"/>
<ellipse fill="none" stroke="#61fdce" cx="1336.65" cy="-913.663" rx="4.00002" ry="4.00002"/>
<polygon fill="#61fdce" stroke="#61fdce" points="1381.43,-612.376 1385.64,-602.251 1381.29,-607.379 1381.14,-602.381 1381.14,-602.381 1381.14,-602.381 1381.29,-607.379 1376.64,-602.51 1381.43,-612.376 1381.43,-612.376"/>
</g>
<!-- User&#45;&gt;Certificate -->
<g id="edge52" class="edge"><title>User&#45;&gt;Certificate</title>
<path fill="none" stroke="#f1f3e3" d="M1129.95,-892.995C1126.49,-883.115 1123.1,-873.418 1119.81,-864.034"/>
<ellipse fill="none" stroke="#f1f3e3" cx="1131.38" cy="-897.094" rx="4.00001" ry="4.00001"/>
<polygon fill="#f1f3e3" stroke="#f1f3e3" points="1119.73,-863.811 1120.68,-852.886 1118.08,-859.092 1116.43,-854.373 1116.43,-854.373 1116.43,-854.373 1118.08,-859.092 1112.18,-855.859 1119.73,-863.811 1119.73,-863.811"/>
</g>
<!-- User&#45;&gt;Log -->
<g id="edge56" class="edge"><title>User&#45;&gt;Log</title>
<path fill="none" stroke="#3ef9c0" d="M1242.73,-892.734C1243.76,-886.108 1244.78,-879.565 1245.78,-873.144"/>
<ellipse fill="none" stroke="#3ef9c0" cx="1242.08" cy="-896.917" rx="4.00001" ry="4.00001"/>
<polygon fill="#3ef9c0" stroke="#3ef9c0" points="1245.79,-873.042 1251.78,-863.853 1246.56,-868.101 1247.33,-863.161 1247.33,-863.161 1247.33,-863.161 1246.56,-868.101 1242.88,-862.469 1245.79,-873.042 1245.79,-873.042"/>
</g>
<!-- Summary -->
<g id="node48" class="node"><title>Summary</title>
<ellipse fill="none" stroke="black" cx="1460" cy="-756" rx="58.1882" ry="18.3848"/>
<text text-anchor="middle" x="1460" y="-752.4" font-family="Times Roman,serif" font-size="14.00">Summary</text>
</g>
<!-- User&#45;&gt;Summary -->
<g id="edge58" class="edge"><title>User&#45;&gt;Summary</title>
<path fill="none" stroke="#10f6ee" d="M1340.35,-904.185C1341.56,-902.778 1342.78,-901.383 1344,-900 1360.73,-881.062 1371.03,-882.718 1388,-864 1410.75,-838.911 1431.6,-806.056 1444.95,-783.202"/>
<ellipse fill="none" stroke="#10f6ee" cx="1337.64" cy="-907.374" rx="4.00002" ry="4.00002"/>
<polygon fill="#10f6ee" stroke="#10f6ee" points="1445.04,-783.043 1453.92,-776.613 1447.53,-778.707 1450.02,-774.371 1450.02,-774.371 1450.02,-774.371 1447.53,-778.707 1446.12,-772.13 1445.04,-783.043 1445.04,-783.043"/>
</g>
<!-- Object -->
<g id="node17" class="node"><title>Object</title>
<ellipse fill="none" stroke="black" cx="311" cy="-1415" rx="43.1335" ry="18.3848"/>
<text text-anchor="middle" x="311" y="-1411.4" font-family="Times Roman,serif" font-size="14.00">Object</text>
</g>
<!-- Object&#45;&gt;Ability -->
<g id="edge2" class="edge"><title>Object&#45;&gt;Ability</title>
<path fill="none" stroke="black" d="M308.31,-1396.3C300.919,-1344.9 280.284,-1201.42 271.759,-1142.14"/>
</g>
<!-- Object&#45;&gt;Message -->
<g id="edge28" class="edge"><title>Object&#45;&gt;Message</title>
<path fill="none" stroke="black" d="M313.627,-1396.3C320.847,-1344.9 341.001,-1201.42 349.329,-1142.14"/>
</g>
<!-- ActiveRecord::Base -->
<g id="node19" class="node"><title>ActiveRecord::Base</title>
<ellipse fill="none" stroke="black" cx="972" cy="-1415" rx="104.151" ry="18.3848"/>
<text text-anchor="middle" x="972" y="-1411.4" font-family="Times Roman,serif" font-size="14.00">ActiveRecord::Base</text>
</g>
<!-- ActiveRecord::Base&#45;&gt;Answer -->
<g id="edge4" class="edge"><title>ActiveRecord::Base&#45;&gt;Answer</title>
<path fill="none" stroke="black" d="M878.566,-1406.84C733.768,-1393.26 468.738,-1364.3 440,-1332 397.428,-1284.15 418,-820.047 418,-756 418,-756 418,-756 418,-504 418,-386.321 437.822,-250.683 451.72,-170.041"/>
</g>
<!-- ActiveRecord::Base&#45;&gt;Attempt -->
<g id="edge8" class="edge"><title>ActiveRecord::Base&#45;&gt;Attempt</title>
<path fill="none" stroke="black" d="M1066.98,-1407.46C1217.39,-1394.54 1496.45,-1366.23 1526,-1332 1575.66,-1274.47 1557.14,-717.766 1527,-648 1512.1,-613.51 1484.42,-583.463 1456.66,-559.867"/>
</g>
<!-- ActiveRecord::Base&#45;&gt;Certificate -->
<g id="edge10" class="edge"><title>ActiveRecord::Base&#45;&gt;Certificate</title>
<path fill="none" stroke="black" d="M975.423,-1396.25C978.427,-1379.45 982.804,-1354.13 986,-1332 1013.65,-1140.6 998.033,-1089.21 1038,-900 1041.16,-885.038 1045.17,-869.394 1049.49,-854.162"/>
</g>
<!-- ActiveRecord::Base&#45;&gt;Ceu -->
<g id="edge12" class="edge"><title>ActiveRecord::Base&#45;&gt;Ceu</title>
<path fill="none" stroke="black" d="M893.817,-1402.76C816.882,-1389.04 706.983,-1364.42 679,-1332 561.459,-1195.83 571.306,-969.775 588.084,-845.203"/>
</g>
<!-- ActiveRecord::Base&#45;&gt;Course -->
<g id="edge24" class="edge"><title>ActiveRecord::Base&#45;&gt;Course</title>
<path fill="none" stroke="black" d="M948.658,-1396.68C929.644,-1380.94 902.941,-1356.91 884,-1332 858.784,-1298.84 836.131,-1259.31 817.789,-1223.2"/>
</g>
<!-- ActiveRecord::Base&#45;&gt;Log -->
<g id="edge26" class="edge"><title>ActiveRecord::Base&#45;&gt;Log</title>
<path fill="none" stroke="black" d="M987.667,-1396.59C1000.31,-1380.62 1017.37,-1356.3 1026,-1332 1058.33,-1241.03 1012.26,-975.837 1072,-900 1101.49,-862.565 1133.84,-891.163 1173,-864 1175.82,-862.043 1178.6,-859.978 1181.35,-857.821"/>
</g>
<!-- ActiveRecord::Base&#45;&gt;Question -->
<g id="edge34" class="edge"><title>ActiveRecord::Base&#45;&gt;Question</title>
<path fill="none" stroke="black" d="M880.854,-1406C745.548,-1391.7 504.642,-1362.32 479,-1332 411.836,-1252.58 453.846,-492.759 492,-396 497.085,-383.104 504.575,-370.69 513.02,-359.272"/>
</g>
<!-- ActiveRecord::Base&#45;&gt;Quiz -->
<g id="edge38" class="edge"><title>ActiveRecord::Base&#45;&gt;Quiz</title>
<path fill="none" stroke="black" d="M876.13,-1407.6C771.696,-1397.44 614.122,-1375.29 574,-1332 470.27,-1220.07 464.104,-792.558 513,-648 520.61,-625.5 533.3,-603.747 547.41,-584.257"/>
</g>
<!-- ActiveRecord::Base&#45;&gt;Result -->
<g id="edge40" class="edge"><title>ActiveRecord::Base&#45;&gt;Result</title>
<path fill="none" stroke="black" d="M1068.26,-1407.93C1225.36,-1395.43 1522.71,-1367.37 1555,-1332 1727.81,-1142.69 1584,-1012.32 1584,-756 1584,-756 1584,-756 1584,-504 1584,-389.354 1516.86,-274.874 1458.51,-197.025"/>
</g>
<!-- ActiveRecord::Base&#45;&gt;Section -->
<g id="edge48" class="edge"><title>ActiveRecord::Base&#45;&gt;Section</title>
<path fill="none" stroke="black" d="M968.82,-1396.21C965.976,-1379.39 961.697,-1354.05 958,-1332 928.327,-1155.03 893.794,-947.423 875.307,-836.144"/>
</g>
<!-- ActiveRecord::Base&#45;&gt;Stat -->
<g id="edge50" class="edge"><title>ActiveRecord::Base&#45;&gt;Stat</title>
<path fill="none" stroke="black" d="M1059.38,-1404.84C1155.34,-1392.09 1301.46,-1367.52 1344,-1332 1387.49,-1295.68 1410.59,-1234.96 1422.62,-1187.14"/>
</g>
<!-- ActiveRecord::Base&#45;&gt;User -->
<g id="edge60" class="edge"><title>ActiveRecord::Base&#45;&gt;User</title>
<path fill="none" stroke="black" d="M995.996,-1396.78C1016.01,-1380.92 1044.6,-1356.67 1066,-1332 1071,-1326.24 1075.96,-1320.29 1080.87,-1314.2"/>
</g>
<!-- ActiveRecord::Base&#45;&gt;Video -->
<g id="edge62" class="edge"><title>ActiveRecord::Base&#45;&gt;Video</title>
<path fill="none" stroke="black" d="M972.871,-1396.41C977.488,-1293.62 997.27,-794.122 953,-648 949.227,-635.547 944.063,-623.12 938.097,-611.079"/>
</g>
</g>
</svg>
