<?xml version="1.0" encoding="UTF-8" standalone="no"?>
<!DOCTYPE svg PUBLIC "-//W3C//DTD SVG 1.1//EN"
 "http://www.w3.org/Graphics/SVG/1.1/DTD/svg11.dtd">
<!-- Generated by graphviz version 2.26.3 (20100126.1600)
 -->
<!-- Title: models_diagram Pages: 1 -->
<svg width="986pt" height="472pt"
 viewBox="0.00 0.00 986.00 472.00" xmlns="http://www.w3.org/2000/svg" xmlns:xlink="http://www.w3.org/1999/xlink">
<g id="graph1" class="graph" transform="scale(1 1) rotate(0) translate(4 468)">
<title>models_diagram</title>
<polygon fill="white" stroke="white" points="-4,5 -4,-468 983,-468 983,5 -4,5"/>
<!-- _diagram_info -->
<g id="node1" class="node"><title>_diagram_info</title>
<text text-anchor="start" x="8" y="-447.8" font-family="Times Roman,serif" font-size="13.00">Models diagram</text>
<text text-anchor="start" x="8" y="-430.8" font-family="Times Roman,serif" font-size="13.00">Date: Dec 17 2013 &#45; 05:05</text>
<text text-anchor="start" x="8" y="-413.8" font-family="Times Roman,serif" font-size="13.00">Migration version: 20131216053748</text>
<text text-anchor="start" x="8" y="-396.8" font-family="Times Roman,serif" font-size="13.00">Generated by RailRoady 1.1.1</text>
<text text-anchor="start" x="8" y="-379.8" font-family="Times Roman,serif" font-size="13.00">http://railroady.prestonlee.com</text>
</g>
<!-- Ability -->
<g id="node2" class="node"><title>Ability</title>
<polygon fill="none" stroke="black" points="298,-333 238,-333 238,-297 298,-297 298,-333"/>
<text text-anchor="middle" x="268" y="-311.4" font-family="Times Roman,serif" font-size="14.00">Ability</text>
</g>
<!-- Answer -->
<g id="node3" class="node"><title>Answer</title>
<ellipse fill="none" stroke="black" cx="585" cy="-19" rx="48.7904" ry="18.3848"/>
<text text-anchor="middle" x="585" y="-15.4" font-family="Times Roman,serif" font-size="14.00">Answer</text>
</g>
<!-- Attempt -->
<g id="node4" class="node"><title>Attempt</title>
<ellipse fill="none" stroke="black" cx="860" cy="-167" rx="51.8276" ry="18.3848"/>
<text text-anchor="middle" x="860" y="-163.4" font-family="Times Roman,serif" font-size="14.00">Attempt</text>
</g>
<!-- Result -->
<g id="node10" class="node"><title>Result</title>
<ellipse fill="none" stroke="black" cx="860" cy="-19" rx="41.2167" ry="18.3848"/>
<text text-anchor="middle" x="860" y="-15.4" font-family="Times Roman,serif" font-size="14.00">Result</text>
</g>
<!-- Attempt&#45;&gt;Result -->
<g id="edge6" class="edge"><title>Attempt&#45;&gt;Result</title>
<path fill="none" stroke="#ec3ca0" d="M860,-140.006C860,-113.917 860,-74.5269 860,-47.8341"/>
<ellipse fill="none" stroke="#ec3ca0" cx="860" cy="-144.256" rx="4" ry="4"/>
<polygon fill="#ec3ca0" stroke="#ec3ca0" points="860,-47.5921 864.5,-37.5921 860,-42.5921 860,-37.5921 860,-37.5921 860,-37.5921 860,-42.5921 855.5,-37.5922 860,-47.5921 860,-47.5921"/>
</g>
<!-- Certificate -->
<g id="node5" class="node"><title>Certificate</title>
<ellipse fill="none" stroke="black" cx="774" cy="-241" rx="62.2254" ry="18.3848"/>
<text text-anchor="middle" x="774" y="-237.4" font-family="Times Roman,serif" font-size="14.00">Certificate</text>
</g>
<!-- Course -->
<g id="node6" class="node"><title>Course</title>
<ellipse fill="none" stroke="black" cx="683" cy="-315" rx="45.9619" ry="18.3848"/>
<text text-anchor="middle" x="683" y="-311.4" font-family="Times Roman,serif" font-size="14.00">Course</text>
</g>
<!-- Course&#45;&gt;Certificate -->
<g id="edge18" class="edge"><title>Course&#45;&gt;Certificate</title>
<path fill="none" stroke="#945a30" d="M710.064,-292.992C720.968,-284.125 733.573,-273.875 744.693,-264.832"/>
<ellipse fill="none" stroke="#945a30" cx="706.753" cy="-295.685" rx="4.00002" ry="4.00002"/>
<polygon fill="#945a30" stroke="#945a30" points="744.724,-264.807 755.322,-261.989 748.604,-261.652 752.483,-258.497 752.483,-258.497 752.483,-258.497 748.604,-261.652 749.644,-255.006 744.724,-264.807 744.724,-264.807"/>
</g>
<!-- Quiz -->
<g id="node9" class="node"><title>Quiz</title>
<ellipse fill="none" stroke="black" cx="646" cy="-167" rx="34.1461" ry="18.3848"/>
<text text-anchor="middle" x="646" y="-163.4" font-family="Times Roman,serif" font-size="14.00">Quiz</text>
</g>
<!-- Course&#45;&gt;Quiz -->
<g id="edge16" class="edge"><title>Course&#45;&gt;Quiz</title>
<path fill="none" stroke="#35b7a4" d="M678.546,-286.425C675.396,-267.906 670.722,-243.345 665,-222 662.594,-213.023 659.463,-203.395 656.439,-194.743"/>
<polygon fill="#35b7a4" stroke="#35b7a4" points="678.547,-286.43 675.739,-297.031 679.363,-291.363 680.179,-296.296 680.179,-296.296 680.179,-296.296 679.363,-291.363 684.619,-295.562 678.547,-286.43 678.547,-286.43"/>
<polygon fill="#35b7a4" stroke="#35b7a4" points="656.368,-194.544 657.224,-183.612 654.679,-189.838 652.989,-185.132 652.989,-185.132 652.989,-185.132 654.679,-189.838 648.754,-186.653 656.368,-194.544 656.368,-194.544"/>
</g>
<!-- Section -->
<g id="node11" class="node"><title>Section</title>
<ellipse fill="none" stroke="black" cx="608" cy="-241" rx="48.0833" ry="18.3848"/>
<text text-anchor="middle" x="608" y="-237.4" font-family="Times Roman,serif" font-size="14.00">Section</text>
</g>
<!-- Course&#45;&gt;Section -->
<g id="edge12" class="edge"><title>Course&#45;&gt;Section</title>
<path fill="none" stroke="#bfde81" d="M659.709,-292.019C651.183,-283.607 641.508,-274.061 632.851,-265.52"/>
<ellipse fill="none" stroke="#bfde81" cx="662.758" cy="-295.028" rx="4.00002" ry="4.00002"/>
<polygon fill="#bfde81" stroke="#bfde81" points="632.679,-265.35 628.721,-255.123 629.12,-261.838 625.56,-258.326 625.56,-258.326 625.56,-258.326 629.12,-261.838 622.4,-261.53 632.679,-265.35 632.679,-265.35"/>
</g>
<!-- Video -->
<g id="node13" class="node"><title>Video</title>
<ellipse fill="none" stroke="black" cx="494" cy="-167" rx="38.8909" ry="18.3848"/>
<text text-anchor="middle" x="494" y="-163.4" font-family="Times Roman,serif" font-size="14.00">Video</text>
</g>
<!-- Course&#45;&gt;Video -->
<g id="edge14" class="edge"><title>Course&#45;&gt;Video</title>
<path fill="none" stroke="#1921e4" d="M633.854,-302.595C607.126,-293.986 574.77,-280.343 551,-260 530.352,-242.329 514.941,-215.243 505.384,-194.851"/>
<polygon fill="#1921e4" stroke="#1921e4" points="633.863,-302.598 642.095,-309.843 638.642,-304.07 643.42,-305.543 643.42,-305.543 643.42,-305.543 638.642,-304.07 644.745,-301.242 633.863,-302.598 633.863,-302.598"/>
<polygon fill="#1921e4" stroke="#1921e4" points="505.259,-194.573 505.271,-183.607 503.212,-190.011 501.166,-185.45 501.166,-185.45 501.166,-185.45 503.212,-190.011 497.06,-187.292 505.259,-194.573 505.259,-194.573"/>
</g>
<!-- Message -->
<g id="node7" class="node"><title>Message</title>
<polygon fill="none" stroke="black" points="390,-333 316,-333 316,-297 390,-297 390,-333"/>
<text text-anchor="middle" x="353" y="-311.4" font-family="Times Roman,serif" font-size="14.00">Message</text>
</g>
<!-- Question -->
<g id="node8" class="node"><title>Question</title>
<ellipse fill="none" stroke="black" cx="764" cy="-93" rx="55.8614" ry="18.3848"/>
<text text-anchor="middle" x="764" y="-89.4" font-family="Times Roman,serif" font-size="14.00">Question</text>
</g>
<!-- Question&#45;&gt;Answer -->
<g id="edge24" class="edge"><title>Question&#45;&gt;Answer</title>
<path fill="none" stroke="#6bac79" d="M720.855,-75.1637C692.625,-63.4931 655.896,-48.3091 627.747,-36.6718"/>
<ellipse fill="none" stroke="#6bac79" cx="724.939" cy="-76.8518" rx="4.00001" ry="4.00001"/>
<polygon fill="#6bac79" stroke="#6bac79" points="627.417,-36.5355 619.895,-28.5564 622.796,-34.6253 618.175,-32.715 618.175,-32.715 618.175,-32.715 622.796,-34.6253 616.456,-36.8736 627.417,-36.5355 627.417,-36.5355"/>
</g>
<!-- Question&#45;&gt;Result -->
<g id="edge26" class="edge"><title>Question&#45;&gt;Result</title>
<path fill="none" stroke="#86d299" d="M792.88,-70.738C804.99,-61.4037 819.04,-50.5735 831.146,-41.2414"/>
<ellipse fill="none" stroke="#86d299" cx="789.434" cy="-73.3949" rx="4.00002" ry="4.00002"/>
<polygon fill="#86d299" stroke="#86d299" points="831.249,-41.162 841.917,-38.621 835.209,-38.1095 839.169,-35.0569 839.169,-35.0569 839.169,-35.0569 835.209,-38.1095 836.422,-31.4928 831.249,-41.162 831.249,-41.162"/>
</g>
<!-- Quiz&#45;&gt;Question -->
<g id="edge30" class="edge"><title>Quiz&#45;&gt;Question</title>
<path fill="none" stroke="#84db85" d="M675.473,-148.517C691.682,-138.352 711.896,-125.675 728.915,-115.003"/>
<ellipse fill="none" stroke="#84db85" cx="671.861" cy="-150.782" rx="4.00002" ry="4.00002"/>
<polygon fill="#84db85" stroke="#84db85" points="729.013,-114.941 739.876,-113.44 733.249,-112.284 737.485,-109.628 737.485,-109.628 737.485,-109.628 733.249,-112.284 735.094,-105.816 729.013,-114.941 729.013,-114.941"/>
</g>
<!-- Section&#45;&gt;Attempt -->
<g id="edge40" class="edge"><title>Section&#45;&gt;Attempt</title>
<path fill="none" stroke="#a92027" d="M654.231,-227.424C698.383,-214.459 764.729,-194.976 810.071,-181.662"/>
<ellipse fill="none" stroke="#a92027" cx="650.111" cy="-228.634" rx="4.00001" ry="4.00001"/>
<polygon fill="#a92027" stroke="#a92027" points="810.1,-181.653 820.963,-183.153 814.898,-180.244 819.695,-178.836 819.695,-178.836 819.695,-178.836 814.898,-180.244 818.427,-174.518 810.1,-181.653 810.1,-181.653"/>
</g>
<!-- Section&#45;&gt;Quiz -->
<g id="edge38" class="edge"><title>Section&#45;&gt;Quiz</title>
<path fill="none" stroke="#9ba155" d="M621.191,-215.313C625.064,-207.77 629.294,-199.532 633.147,-192.03"/>
<ellipse fill="none" stroke="#9ba155" cx="619.221" cy="-219.15" rx="4.00002" ry="4.00002"/>
<ellipse fill="#9ba155" stroke="#9ba155" cx="635.019" cy="-188.385" rx="4.00002" ry="4.00002"/>
</g>
<!-- Section&#45;&gt;Video -->
<g id="edge36" class="edge"><title>Section&#45;&gt;Video</title>
<path fill="none" stroke="#9c6921" d="M576.068,-220.272C559.825,-209.729 540.191,-196.983 524.2,-186.603"/>
<ellipse fill="none" stroke="#9c6921" cx="579.909" cy="-222.765" rx="4.00002" ry="4.00002"/>
<ellipse fill="#9c6921" stroke="#9c6921" cx="520.489" cy="-184.195" rx="4.00002" ry="4.00002"/>
</g>
<!-- User -->
<g id="node12" class="node"><title>User</title>
<ellipse fill="none" stroke="black" cx="819" cy="-315" rx="33.9411" ry="18.3848"/>
<text text-anchor="middle" x="819" y="-311.4" font-family="Times Roman,serif" font-size="14.00">User</text>
</g>
<!-- User&#45;&gt;Attempt -->
<g id="edge46" class="edge"><title>User&#45;&gt;Attempt</title>
<path fill="none" stroke="#16e3d0" d="M832.712,-289.858C837.219,-280.687 841.871,-270.088 845,-260 851.52,-238.977 855.331,-214.355 857.478,-195.728"/>
<ellipse fill="none" stroke="#16e3d0" cx="830.806" cy="-293.617" rx="4.00002" ry="4.00002"/>
<polygon fill="#16e3d0" stroke="#16e3d0" points="857.506,-195.471 863.034,-186 858.032,-190.498 858.559,-185.526 858.559,-185.526 858.559,-185.526 858.032,-190.498 854.084,-185.052 857.506,-195.471 857.506,-195.471"/>
</g>
<!-- User&#45;&gt;Certificate -->
<g id="edge44" class="edge"><title>User&#45;&gt;Certificate</title>
<path fill="none" stroke="#d2ce1e" d="M803.818,-290.034C799.509,-282.948 794.798,-275.201 790.419,-268"/>
<ellipse fill="none" stroke="#d2ce1e" cx="806.028" cy="-293.669" rx="4.00002" ry="4.00002"/>
<polygon fill="#d2ce1e" stroke="#d2ce1e" points="790.301,-267.807 788.95,-256.924 787.703,-263.535 785.106,-259.262 785.106,-259.262 785.106,-259.262 787.703,-263.535 781.261,-261.601 790.301,-267.807 790.301,-267.807"/>
</g>
<!-- Object -->
<g id="node14" class="node"><title>Object</title>
<ellipse fill="none" stroke="black" cx="311" cy="-417" rx="43.1335" ry="18.3848"/>
<text text-anchor="middle" x="311" y="-413.4" font-family="Times Roman,serif" font-size="14.00">Object</text>
</g>
<!-- Object&#45;&gt;Ability -->
<g id="edge2" class="edge"><title>Object&#45;&gt;Ability</title>
<path fill="none" stroke="black" d="M303.312,-398.764C295.486,-380.198 283.424,-351.586 275.621,-333.078"/>
</g>
<!-- Object&#45;&gt;Message -->
<g id="edge22" class="edge"><title>Object&#45;&gt;Message</title>
<path fill="none" stroke="black" d="M318.509,-398.764C326.154,-380.198 337.935,-351.586 345.556,-333.078"/>
</g>
<!-- ActiveRecord::Base -->
<g id="node16" class="node"><title>ActiveRecord::Base</title>
<ellipse fill="none" stroke="black" cx="720" cy="-417" rx="104.151" ry="18.3848"/>
<text text-anchor="middle" x="720" y="-413.4" font-family="Times Roman,serif" font-size="14.00">ActiveRecord::Base</text>
</g>
<!-- ActiveRecord::Base&#45;&gt;Answer -->
<g id="edge4" class="edge"><title>ActiveRecord::Base&#45;&gt;Answer</title>
<path fill="none" stroke="black" d="M639.07,-405.369C549.613,-387.408 418,-343.557 418,-241 418,-241 418,-241 418,-167 418,-97.2677 500.562,-52.4275 549.584,-31.9495"/>
</g>
<!-- ActiveRecord::Base&#45;&gt;Attempt -->
<g id="edge8" class="edge"><title>ActiveRecord::Base&#45;&gt;Attempt</title>
<path fill="none" stroke="black" d="M772.884,-400.94C804.73,-388.25 842.733,-367.059 862,-334 889.594,-286.653 875.354,-218.192 866.01,-185.6"/>
</g>
<!-- ActiveRecord::Base&#45;&gt;Certificate -->
<g id="edge10" class="edge"><title>ActiveRecord::Base&#45;&gt;Certificate</title>
<path fill="none" stroke="black" d="M725.677,-398.498C736.048,-364.695 757.943,-293.333 768.318,-259.519"/>
</g>
<!-- ActiveRecord::Base&#45;&gt;Course -->
<g id="edge20" class="edge"><title>ActiveRecord::Base&#45;&gt;Course</title>
<path fill="none" stroke="black" d="M713.214,-398.292C706.538,-379.888 696.404,-351.953 689.743,-333.59"/>
</g>
<!-- ActiveRecord::Base&#45;&gt;Question -->
<g id="edge28" class="edge"><title>ActiveRecord::Base&#45;&gt;Question</title>
<path fill="none" stroke="black" d="M776.048,-401.319C811.346,-388.661 855.159,-367.363 882,-334 924.64,-281 912.261,-253.46 921,-186 923.17,-169.251 930.771,-161.776 921,-148 907.967,-129.625 852.518,-113.221 811.187,-103.209"/>
</g>
<!-- ActiveRecord::Base&#45;&gt;Quiz -->
<g id="edge32" class="edge"><title>ActiveRecord::Base&#45;&gt;Quiz</title>
<path fill="none" stroke="black" d="M686.537,-399.451C644.217,-374.947 574.077,-325.962 551,-260 545.423,-244.059 542.564,-236.631 551,-222 564.803,-198.06 593.447,-183.595 615.692,-175.551"/>
</g>
<!-- ActiveRecord::Base&#45;&gt;Result -->
<g id="edge34" class="edge"><title>ActiveRecord::Base&#45;&gt;Result</title>
<path fill="none" stroke="black" d="M785.438,-402.619C861.873,-381.514 978,-334.125 978,-241 978,-241 978,-241 978,-167 978,-107.356 918.686,-57.8919 884.164,-34.1534"/>
</g>
<!-- ActiveRecord::Base&#45;&gt;Section -->
<g id="edge42" class="edge"><title>ActiveRecord::Base&#45;&gt;Section</title>
<path fill="none" stroke="black" d="M691.917,-398.948C671.056,-384.044 643.615,-361.002 628,-334 614.524,-310.697 610.101,-279.365 608.665,-259.677"/>
</g>
<!-- ActiveRecord::Base&#45;&gt;User -->
<g id="edge48" class="edge"><title>ActiveRecord::Base&#45;&gt;User</title>
<path fill="none" stroke="black" d="M737.699,-398.764C756.275,-379.625 785.213,-349.811 803.089,-331.393"/>
</g>
<!-- ActiveRecord::Base&#45;&gt;Video -->
<g id="edge50" class="edge"><title>ActiveRecord::Base&#45;&gt;Video</title>
<path fill="none" stroke="black" d="M676.692,-400.093C644.036,-385.873 599.475,-363.192 567,-334 537.294,-307.297 532.209,-296.506 516,-260 505.093,-235.434 499.18,-204.718 496.308,-185.472"/>
</g>
</g>
</svg>
