<?xml version="1.0" encoding="UTF-8" standalone="no"?>
<!DOCTYPE svg PUBLIC "-//W3C//DTD SVG 1.1//EN"
 "http://www.w3.org/Graphics/SVG/1.1/DTD/svg11.dtd">
<!-- Generated by graphviz version 2.26.3 (20100126.1600)
 -->
<!-- Title: models_diagram Pages: 1 -->
<svg width="1066pt" height="472pt"
 viewBox="0.00 0.00 1066.00 472.00" xmlns="http://www.w3.org/2000/svg" xmlns:xlink="http://www.w3.org/1999/xlink">
<g id="graph1" class="graph" transform="scale(1 1) rotate(0) translate(4 468)">
<title>models_diagram</title>
<polygon fill="white" stroke="white" points="-4,5 -4,-468 1063,-468 1063,5 -4,5"/>
<!-- _diagram_info -->
<g id="node1" class="node"><title>_diagram_info</title>
<text text-anchor="start" x="8" y="-447.8" font-family="Times Roman,serif" font-size="13.00">Models diagram</text>
<text text-anchor="start" x="8" y="-430.8" font-family="Times Roman,serif" font-size="13.00">Date: Dec 20 2013 &#45; 05:00</text>
<text text-anchor="start" x="8" y="-413.8" font-family="Times Roman,serif" font-size="13.00">Migration version: 20131219191749</text>
<text text-anchor="start" x="8" y="-396.8" font-family="Times Roman,serif" font-size="13.00">Generated by RailRoady 1.1.1</text>
<text text-anchor="start" x="8" y="-379.8" font-family="Times Roman,serif" font-size="13.00">http://railroady.prestonlee.com</text>
</g>
<!-- Ability -->
<g id="node2" class="node"><title>Ability</title>
<polygon fill="none" stroke="black" points="298,-333 238,-333 238,-297 298,-297 298,-333"/>
<text text-anchor="middle" x="268" y="-311.4" font-family="Times Roman,serif" font-size="14.00">Ability</text>
</g>
<!-- Answer -->
<g id="node3" class="node"><title>Answer</title>
<ellipse fill="none" stroke="black" cx="461" cy="-19" rx="48.7904" ry="18.3848"/>
<text text-anchor="middle" x="461" y="-15.4" font-family="Times Roman,serif" font-size="14.00">Answer</text>
</g>
<!-- Attempt -->
<g id="node4" class="node"><title>Attempt</title>
<ellipse fill="none" stroke="black" cx="978" cy="-167" rx="51.8276" ry="18.3848"/>
<text text-anchor="middle" x="978" y="-163.4" font-family="Times Roman,serif" font-size="14.00">Attempt</text>
</g>
<!-- Result -->
<g id="node11" class="node"><title>Result</title>
<ellipse fill="none" stroke="black" cx="978" cy="-19" rx="41.2167" ry="18.3848"/>
<text text-anchor="middle" x="978" y="-15.4" font-family="Times Roman,serif" font-size="14.00">Result</text>
</g>
<!-- Attempt&#45;&gt;Result -->
<g id="edge6" class="edge"><title>Attempt&#45;&gt;Result</title>
<path fill="none" stroke="#177d50" d="M978,-140.006C978,-113.917 978,-74.5269 978,-47.8341"/>
<ellipse fill="none" stroke="#177d50" cx="978" cy="-144.256" rx="4" ry="4"/>
<polygon fill="#177d50" stroke="#177d50" points="978,-47.5921 982.5,-37.5921 978,-42.5921 978,-37.5921 978,-37.5921 978,-37.5921 978,-42.5921 973.5,-37.5922 978,-47.5921 978,-47.5921"/>
</g>
<!-- Certificate -->
<g id="node5" class="node"><title>Certificate</title>
<ellipse fill="none" stroke="black" cx="854" cy="-241" rx="62.2254" ry="18.3848"/>
<text text-anchor="middle" x="854" y="-237.4" font-family="Times Roman,serif" font-size="14.00">Certificate</text>
</g>
<!-- Ceu -->
<g id="node6" class="node"><title>Ceu</title>
<ellipse fill="none" stroke="black" cx="553" cy="-241" rx="31.1127" ry="18.3848"/>
<text text-anchor="middle" x="553" y="-237.4" font-family="Times Roman,serif" font-size="14.00">Ceu</text>
</g>
<!-- Course -->
<g id="node7" class="node"><title>Course</title>
<ellipse fill="none" stroke="black" cx="651" cy="-315" rx="45.9619" ry="18.3848"/>
<text text-anchor="middle" x="651" y="-311.4" font-family="Times Roman,serif" font-size="14.00">Course</text>
</g>
<!-- Course&#45;&gt;Certificate -->
<g id="edge20" class="edge"><title>Course&#45;&gt;Certificate</title>
<path fill="none" stroke="#2916ef" d="M693.261,-299.595C725.737,-287.756 770.66,-271.38 804.761,-258.949"/>
<ellipse fill="none" stroke="#2916ef" cx="689.194" cy="-301.077" rx="4.00001" ry="4.00001"/>
<polygon fill="#2916ef" stroke="#2916ef" points="805.126,-258.816 816.062,-259.619 809.823,-257.104 814.521,-255.391 814.521,-255.391 814.521,-255.391 809.823,-257.104 812.98,-251.164 805.126,-258.816 805.126,-258.816"/>
</g>
<!-- Course&#45;&gt;Ceu -->
<g id="edge22" class="edge"><title>Course&#45;&gt;Ceu</title>
<path fill="none" stroke="#607e03" d="M622.589,-293.547C609.362,-283.559 593.688,-271.723 580.567,-261.816"/>
<ellipse fill="none" stroke="#607e03" cx="626.058" cy="-296.167" rx="4.00002" ry="4.00002"/>
<polygon fill="#607e03" stroke="#607e03" points="580.346,-261.649 575.077,-252.032 576.356,-258.636 572.365,-255.623 572.365,-255.623 572.365,-255.623 576.356,-258.636 569.654,-259.214 580.346,-261.649 580.346,-261.649"/>
</g>
<!-- Quiz -->
<g id="node10" class="node"><title>Quiz</title>
<ellipse fill="none" stroke="black" cx="565" cy="-167" rx="34.1461" ry="18.3848"/>
<text text-anchor="middle" x="565" y="-163.4" font-family="Times Roman,serif" font-size="14.00">Quiz</text>
</g>
<!-- Course&#45;&gt;Quiz -->
<g id="edge18" class="edge"><title>Course&#45;&gt;Quiz</title>
<path fill="none" stroke="#a7b004" d="M635.406,-288.164C619.83,-261.358 596.027,-220.395 580.488,-193.653"/>
<polygon fill="#a7b004" stroke="#a7b004" points="635.43,-288.206 636.564,-299.113 637.943,-292.529 640.455,-296.852 640.455,-296.852 640.455,-296.852 637.943,-292.529 644.346,-294.591 635.43,-288.206 635.43,-288.206"/>
<polygon fill="#a7b004" stroke="#a7b004" points="580.387,-193.48 579.254,-182.573 577.875,-189.157 575.363,-184.834 575.363,-184.834 575.363,-184.834 577.875,-189.157 571.472,-187.095 580.387,-193.48 580.387,-193.48"/>
</g>
<!-- Section -->
<g id="node12" class="node"><title>Section</title>
<ellipse fill="none" stroke="black" cx="726" cy="-241" rx="48.0833" ry="18.3848"/>
<text text-anchor="middle" x="726" y="-237.4" font-family="Times Roman,serif" font-size="14.00">Section</text>
</g>
<!-- Course&#45;&gt;Section -->
<g id="edge14" class="edge"><title>Course&#45;&gt;Section</title>
<path fill="none" stroke="#dd528c" d="M674.291,-292.019C682.817,-283.607 692.492,-274.061 701.149,-265.52"/>
<ellipse fill="none" stroke="#dd528c" cx="671.242" cy="-295.028" rx="4.00002" ry="4.00002"/>
<polygon fill="#dd528c" stroke="#dd528c" points="701.321,-265.35 711.6,-261.53 704.88,-261.838 708.44,-258.326 708.44,-258.326 708.44,-258.326 704.88,-261.838 705.279,-255.123 701.321,-265.35 701.321,-265.35"/>
</g>
<!-- Video -->
<g id="node14" class="node"><title>Video</title>
<ellipse fill="none" stroke="black" cx="726" cy="-167" rx="38.8909" ry="18.3848"/>
<text text-anchor="middle" x="726" y="-163.4" font-family="Times Roman,serif" font-size="14.00">Video</text>
</g>
<!-- Course&#45;&gt;Video -->
<g id="edge16" class="edge"><title>Course&#45;&gt;Video</title>
<path fill="none" stroke="#fd7d55" d="M652.09,-286.188C653.861,-267.005 658.262,-241.787 669,-222 675.795,-209.479 686.424,-198.086 696.672,-188.957"/>
<polygon fill="#fd7d55" stroke="#fd7d55" points="652.071,-286.452 646.85,-296.095 651.705,-291.438 651.338,-296.425 651.338,-296.425 651.338,-296.425 651.705,-291.438 655.826,-296.755 652.071,-286.452 652.071,-286.452"/>
<polygon fill="#fd7d55" stroke="#fd7d55" points="696.736,-188.903 707.275,-185.869 700.551,-185.67 704.365,-182.437 704.365,-182.437 704.365,-182.437 700.551,-185.67 701.455,-179.004 696.736,-188.903 696.736,-188.903"/>
</g>
<!-- Message -->
<g id="node8" class="node"><title>Message</title>
<polygon fill="none" stroke="black" points="390,-333 316,-333 316,-297 390,-297 390,-333"/>
<text text-anchor="middle" x="353" y="-311.4" font-family="Times Roman,serif" font-size="14.00">Message</text>
</g>
<!-- Question -->
<g id="node9" class="node"><title>Question</title>
<ellipse fill="none" stroke="black" cx="534" cy="-93" rx="55.8614" ry="18.3848"/>
<text text-anchor="middle" x="534" y="-89.4" font-family="Times Roman,serif" font-size="14.00">Question</text>
</g>
<!-- Question&#45;&gt;Answer -->
<g id="edge28" class="edge"><title>Question&#45;&gt;Answer</title>
<path fill="none" stroke="#cee202" d="M510.682,-69.3623C502.623,-61.1931 493.574,-52.0201 485.429,-43.7632"/>
<ellipse fill="none" stroke="#cee202" cx="513.52" cy="-72.239" rx="4.00002" ry="4.00002"/>
<polygon fill="#cee202" stroke="#cee202" points="485.279,-43.6121 481.46,-33.3327 481.768,-40.0525 478.257,-36.493 478.257,-36.493 478.257,-36.493 481.768,-40.0525 475.053,-39.6533 485.279,-43.6121 485.279,-43.6121"/>
</g>
<!-- Question&#45;&gt;Result -->
<g id="edge30" class="edge"><title>Question&#45;&gt;Result</title>
<path fill="none" stroke="#736830" d="M592.175,-83.3042C680.536,-68.5773 846.98,-40.8367 929.326,-27.1123"/>
<ellipse fill="none" stroke="#736830" cx="588.015" cy="-83.9975" rx="4.00001" ry="4.00001"/>
<polygon fill="#736830" stroke="#736830" points="929.554,-27.0745 940.157,-29.8692 934.486,-26.2524 939.418,-25.4304 939.418,-25.4304 939.418,-25.4304 934.486,-26.2524 938.678,-20.9916 929.554,-27.0745 929.554,-27.0745"/>
</g>
<!-- Quiz&#45;&gt;Question -->
<g id="edge34" class="edge"><title>Quiz&#45;&gt;Question</title>
<path fill="none" stroke="#30453f" d="M554.165,-141.136C551.399,-134.534 548.415,-127.41 545.612,-120.72"/>
<ellipse fill="none" stroke="#30453f" cx="555.792" cy="-145.019" rx="4.00002" ry="4.00002"/>
<polygon fill="#30453f" stroke="#30453f" points="545.546,-120.562 545.833,-109.599 543.614,-115.95 541.682,-111.338 541.682,-111.338 541.682,-111.338 543.614,-115.95 537.532,-113.077 545.546,-120.562 545.546,-120.562"/>
</g>
<!-- Section&#45;&gt;Attempt -->
<g id="edge44" class="edge"><title>Section&#45;&gt;Attempt</title>
<path fill="none" stroke="#c8ede8" d="M769.967,-226.116C774.361,-224.697 778.763,-223.303 783,-222 831.507,-207.084 887.273,-191.512 926.711,-180.761"/>
<ellipse fill="none" stroke="#c8ede8" cx="765.905" cy="-227.442" rx="4.00001" ry="4.00001"/>
<polygon fill="#c8ede8" stroke="#c8ede8" points="926.722,-180.758 937.552,-182.477 931.546,-179.446 936.371,-178.134 936.371,-178.134 936.371,-178.134 931.546,-179.446 935.191,-173.792 926.722,-180.758 926.722,-180.758"/>
</g>
<!-- Section&#45;&gt;Quiz -->
<g id="edge42" class="edge"><title>Section&#45;&gt;Quiz</title>
<path fill="none" stroke="#e9bf54" d="M687.629,-223.363C660.51,-210.899 624.51,-194.352 598.538,-182.415"/>
<ellipse fill="none" stroke="#e9bf54" cx="691.323" cy="-225.062" rx="4.00002" ry="4.00002"/>
<ellipse fill="#e9bf54" stroke="#e9bf54" cx="594.793" cy="-180.694" rx="4.00002" ry="4.00002"/>
</g>
<!-- Section&#45;&gt;Video -->
<g id="edge40" class="edge"><title>Section&#45;&gt;Video</title>
<path fill="none" stroke="#45442d" d="M726,-214.309C726,-207.635 726,-200.476 726,-193.797"/>
<ellipse fill="none" stroke="#45442d" cx="726" cy="-218.327" rx="4" ry="4"/>
<ellipse fill="#45442d" stroke="#45442d" cx="726" cy="-189.667" rx="4" ry="4"/>
</g>
<!-- User -->
<g id="node13" class="node"><title>User</title>
<ellipse fill="none" stroke="black" cx="958" cy="-315" rx="33.9411" ry="18.3848"/>
<text text-anchor="middle" x="958" y="-311.4" font-family="Times Roman,serif" font-size="14.00">User</text>
</g>
<!-- User&#45;&gt;Attempt -->
<g id="edge50" class="edge"><title>User&#45;&gt;Attempt</title>
<path fill="none" stroke="#0870d7" d="M961.648,-288.006C965.173,-261.917 970.496,-222.527 974.104,-195.834"/>
<ellipse fill="none" stroke="#0870d7" cx="961.069" cy="-292.292" rx="4.00001" ry="4.00001"/>
<polygon fill="#0870d7" stroke="#0870d7" points="974.148,-195.502 979.947,-186.195 974.818,-190.547 975.488,-185.592 975.488,-185.592 975.488,-185.592 974.818,-190.547 971.028,-184.989 974.148,-195.502 974.148,-195.502"/>
</g>
<!-- User&#45;&gt;Certificate -->
<g id="edge48" class="edge"><title>User&#45;&gt;Certificate</title>
<path fill="none" stroke="#f65662" d="M930.289,-295.283C916.883,-285.744 900.699,-274.228 886.692,-264.262"/>
<ellipse fill="none" stroke="#f65662" cx="933.695" cy="-297.706" rx="4.00002" ry="4.00002"/>
<polygon fill="#f65662" stroke="#f65662" points="886.445,-264.086 880.906,-254.622 882.371,-261.187 878.297,-258.288 878.297,-258.288 878.297,-258.288 882.371,-261.187 875.688,-261.955 886.445,-264.086 886.445,-264.086"/>
</g>
<!-- Object -->
<g id="node15" class="node"><title>Object</title>
<ellipse fill="none" stroke="black" cx="311" cy="-417" rx="43.1335" ry="18.3848"/>
<text text-anchor="middle" x="311" y="-413.4" font-family="Times Roman,serif" font-size="14.00">Object</text>
</g>
<!-- Object&#45;&gt;Ability -->
<g id="edge2" class="edge"><title>Object&#45;&gt;Ability</title>
<path fill="none" stroke="black" d="M303.312,-398.764C295.486,-380.198 283.424,-351.586 275.621,-333.078"/>
</g>
<!-- Object&#45;&gt;Message -->
<g id="edge26" class="edge"><title>Object&#45;&gt;Message</title>
<path fill="none" stroke="black" d="M318.509,-398.764C326.154,-380.198 337.935,-351.586 345.556,-333.078"/>
</g>
<!-- ActiveRecord::Base -->
<g id="node17" class="node"><title>ActiveRecord::Base</title>
<ellipse fill="none" stroke="black" cx="726" cy="-417" rx="104.151" ry="18.3848"/>
<text text-anchor="middle" x="726" y="-413.4" font-family="Times Roman,serif" font-size="14.00">ActiveRecord::Base</text>
</g>
<!-- ActiveRecord::Base&#45;&gt;Answer -->
<g id="edge4" class="edge"><title>ActiveRecord::Base&#45;&gt;Answer</title>
<path fill="none" stroke="black" d="M643.056,-405.82C551.832,-388.316 418,-344.928 418,-241 418,-241 418,-241 418,-167 418,-118.57 439.495,-64.6388 452.09,-37.1953"/>
</g>
<!-- ActiveRecord::Base&#45;&gt;Attempt -->
<g id="edge8" class="edge"><title>ActiveRecord::Base&#45;&gt;Attempt</title>
<path fill="none" stroke="black" d="M802.295,-404.379C875.102,-390.596 977.137,-366.128 1001,-334 1034.33,-289.124 1005.12,-218.25 988.142,-185.152"/>
</g>
<!-- ActiveRecord::Base&#45;&gt;Certificate -->
<g id="edge10" class="edge"><title>ActiveRecord::Base&#45;&gt;Certificate</title>
<path fill="none" stroke="black" d="M739.456,-398.498C764.104,-364.607 816.211,-292.96 840.724,-259.255"/>
</g>
<!-- ActiveRecord::Base&#45;&gt;Ceu -->
<g id="edge12" class="edge"><title>ActiveRecord::Base&#45;&gt;Ceu</title>
<path fill="none" stroke="black" d="M687.392,-399.77C659.061,-385.518 621.274,-362.943 596,-334 576.695,-311.892 564.412,-279.649 558.119,-259.519"/>
</g>
<!-- ActiveRecord::Base&#45;&gt;Course -->
<g id="edge24" class="edge"><title>ActiveRecord::Base&#45;&gt;Course</title>
<path fill="none" stroke="black" d="M712.244,-398.292C698.542,-379.657 677.657,-351.253 664.166,-332.906"/>
</g>
<!-- ActiveRecord::Base&#45;&gt;Question -->
<g id="edge32" class="edge"><title>ActiveRecord::Base&#45;&gt;Question</title>
<path fill="none" stroke="black" d="M657.017,-403.101C614.857,-391.301 562.733,-370.289 529,-334 471.017,-271.624 508.377,-156.128 526.14,-111.38"/>
</g>
<!-- ActiveRecord::Base&#45;&gt;Quiz -->
<g id="edge36" class="edge"><title>ActiveRecord::Base&#45;&gt;Quiz</title>
<path fill="none" stroke="black" d="M677.371,-400.465C622.405,-378.519 537.391,-333.706 513,-260 507.694,-243.966 506.756,-237.692 513,-222 519.413,-205.883 533.037,-191.764 544.732,-181.867"/>
</g>
<!-- ActiveRecord::Base&#45;&gt;Result -->
<g id="edge38" class="edge"><title>ActiveRecord::Base&#45;&gt;Result</title>
<path fill="none" stroke="black" d="M800.308,-404.015C876.895,-389.292 989.556,-363.471 1022,-334 1054.81,-304.199 1058,-285.322 1058,-241 1058,-241 1058,-241 1058,-167 1058,-114.134 1018.01,-62.0394 994.576,-36.053"/>
</g>
<!-- ActiveRecord::Base&#45;&gt;Section -->
<g id="edge46" class="edge"><title>ActiveRecord::Base&#45;&gt;Section</title>
<path fill="none" stroke="black" d="M726,-398.498C726,-364.695 726,-293.333 726,-259.519"/>
</g>
<!-- ActiveRecord::Base&#45;&gt;User -->
<g id="edge52" class="edge"><title>ActiveRecord::Base&#45;&gt;User</title>
<path fill="none" stroke="black" d="M765.093,-399.812C812.357,-379.032 890.624,-344.622 931.418,-326.687"/>
</g>
<!-- ActiveRecord::Base&#45;&gt;Video -->
<g id="edge54" class="edge"><title>ActiveRecord::Base&#45;&gt;Video</title>
<path fill="none" stroke="black" d="M764.718,-399.794C812.585,-376.12 891.789,-328.505 925,-260 932.368,-244.803 935.229,-235.439 925,-222 905.571,-196.473 816.02,-179.754 763.907,-172.006"/>
</g>
</g>
</svg>
