<?xml version="1.0" encoding="UTF-8" standalone="no"?>
<!DOCTYPE svg PUBLIC "-//W3C//DTD SVG 1.1//EN"
 "http://www.w3.org/Graphics/SVG/1.1/DTD/svg11.dtd">
<!-- Generated by graphviz version 2.26.3 (20100126.1600)
 -->
<!-- Title: models_diagram Pages: 1 -->
<svg width="1183pt" height="1362pt"
 viewBox="0.00 0.00 1183.03 1362.00" xmlns="http://www.w3.org/2000/svg" xmlns:xlink="http://www.w3.org/1999/xlink">
<g id="graph1" class="graph" transform="scale(1 1) rotate(0) translate(4 1358)">
<title>models_diagram</title>
<polygon fill="white" stroke="white" points="-4,5 -4,-1358 1180.03,-1358 1180.03,5 -4,5"/>
<!-- _diagram_info -->
<g id="node1" class="node"><title>_diagram_info</title>
<text text-anchor="start" x="8" y="-1337.8" font-family="Times Roman,serif" font-size="13.00">Models diagram</text>
<text text-anchor="start" x="8" y="-1320.8" font-family="Times Roman,serif" font-size="13.00">Date: Dec 13 2013 &#45; 04:07</text>
<text text-anchor="start" x="8" y="-1303.8" font-family="Times Roman,serif" font-size="13.00">Migration version: 20131213002843</text>
<text text-anchor="start" x="8" y="-1286.8" font-family="Times Roman,serif" font-size="13.00">Generated by RailRoady 1.1.1</text>
<text text-anchor="start" x="8" y="-1269.8" font-family="Times Roman,serif" font-size="13.00">http://railroady.prestonlee.com</text>
</g>
<!-- Ability -->
<g id="node2" class="node"><title>Ability</title>
<polygon fill="none" stroke="black" points="238,-1000 238,-1052 298,-1052 298,-1000 238,-1000"/>
<text text-anchor="middle" x="268" y="-1035.4" font-family="Times Roman,serif" font-size="14.00">Ability</text>
<polyline fill="none" stroke="black" points="238,-1026 298,-1026 "/>
<text text-anchor="middle" x="268" y="-1009.4" font-family="Times Roman,serif" font-size="14.00"> </text>
</g>
<!-- Answer -->
<g id="node3" class="node"><title>Answer</title>
<polyline fill="none" stroke="black" points="784.5,-1 925.5,-1 "/>
<path fill="none" stroke="black" d="M925.5,-1C931.5,-1 937.5,-7 937.5,-13"/>
<polyline fill="none" stroke="black" points="937.5,-13 937.5,-131 "/>
<path fill="none" stroke="black" d="M937.5,-131C937.5,-137 931.5,-143 925.5,-143"/>
<polyline fill="none" stroke="black" points="925.5,-143 784.5,-143 "/>
<path fill="none" stroke="black" d="M784.5,-143C778.5,-143 772.5,-137 772.5,-131"/>
<polyline fill="none" stroke="black" points="772.5,-131 772.5,-13 "/>
<path fill="none" stroke="black" d="M772.5,-13C772.5,-7 778.5,-1 784.5,-1"/>
<text text-anchor="middle" x="855" y="-126.4" font-family="Times Roman,serif" font-size="14.00">Answer</text>
<polyline fill="none" stroke="black" points="772.5,-117 937.5,-117 "/>
<text text-anchor="start" x="780.5" y="-100.4" font-family="Times Roman,serif" font-size="14.00">id :integer</text>
<text text-anchor="start" x="780.5" y="-82.4" font-family="Times Roman,serif" font-size="14.00">content :string</text>
<text text-anchor="start" x="780.5" y="-64.4" font-family="Times Roman,serif" font-size="14.00">question_id :integer</text>
<text text-anchor="start" x="780.5" y="-46.4" font-family="Times Roman,serif" font-size="14.00">created_at :datetime</text>
<text text-anchor="start" x="780.5" y="-28.4" font-family="Times Roman,serif" font-size="14.00">updated_at :datetime</text>
<text text-anchor="start" x="780.5" y="-10.4" font-family="Times Roman,serif" font-size="14.00">correct :boolean</text>
</g>
<!-- Attempt -->
<g id="node4" class="node"><title>Attempt</title>
<polyline fill="none" stroke="black" points="921.5,-388 1062.5,-388 "/>
<path fill="none" stroke="black" d="M1062.5,-388C1068.5,-388 1074.5,-394 1074.5,-400"/>
<polyline fill="none" stroke="black" points="1074.5,-400 1074.5,-554 "/>
<path fill="none" stroke="black" d="M1074.5,-554C1074.5,-560 1068.5,-566 1062.5,-566"/>
<polyline fill="none" stroke="black" points="1062.5,-566 921.5,-566 "/>
<path fill="none" stroke="black" d="M921.5,-566C915.5,-566 909.5,-560 909.5,-554"/>
<polyline fill="none" stroke="black" points="909.5,-554 909.5,-400 "/>
<path fill="none" stroke="black" d="M909.5,-400C909.5,-394 915.5,-388 921.5,-388"/>
<text text-anchor="middle" x="992" y="-549.4" font-family="Times Roman,serif" font-size="14.00">Attempt</text>
<polyline fill="none" stroke="black" points="909.5,-540 1074.5,-540 "/>
<text text-anchor="start" x="917.5" y="-523.4" font-family="Times Roman,serif" font-size="14.00">id :integer</text>
<text text-anchor="start" x="917.5" y="-505.4" font-family="Times Roman,serif" font-size="14.00">user_id :integer</text>
<text text-anchor="start" x="917.5" y="-487.4" font-family="Times Roman,serif" font-size="14.00">section_id :integer</text>
<text text-anchor="start" x="917.5" y="-469.4" font-family="Times Roman,serif" font-size="14.00">status :string</text>
<text text-anchor="start" x="917.5" y="-451.4" font-family="Times Roman,serif" font-size="14.00">start_time :datetime</text>
<text text-anchor="start" x="917.5" y="-433.4" font-family="Times Roman,serif" font-size="14.00">end_time :datetime</text>
<text text-anchor="start" x="917.5" y="-415.4" font-family="Times Roman,serif" font-size="14.00">created_at :datetime</text>
<text text-anchor="start" x="917.5" y="-397.4" font-family="Times Roman,serif" font-size="14.00">updated_at :datetime</text>
</g>
<!-- Result -->
<g id="node10" class="node"><title>Result</title>
<polyline fill="none" stroke="black" points="914.5,-181 1091.5,-181 "/>
<path fill="none" stroke="black" d="M1091.5,-181C1097.5,-181 1103.5,-187 1103.5,-193"/>
<polyline fill="none" stroke="black" points="1103.5,-193 1103.5,-329 "/>
<path fill="none" stroke="black" d="M1103.5,-329C1103.5,-335 1097.5,-341 1091.5,-341"/>
<polyline fill="none" stroke="black" points="1091.5,-341 914.5,-341 "/>
<path fill="none" stroke="black" d="M914.5,-341C908.5,-341 902.5,-335 902.5,-329"/>
<polyline fill="none" stroke="black" points="902.5,-329 902.5,-193 "/>
<path fill="none" stroke="black" d="M902.5,-193C902.5,-187 908.5,-181 914.5,-181"/>
<text text-anchor="middle" x="1003" y="-324.4" font-family="Times Roman,serif" font-size="14.00">Result</text>
<polyline fill="none" stroke="black" points="902.5,-315 1103.5,-315 "/>
<text text-anchor="start" x="910.5" y="-298.4" font-family="Times Roman,serif" font-size="14.00">id :integer</text>
<text text-anchor="start" x="910.5" y="-280.4" font-family="Times Roman,serif" font-size="14.00">attempt_id :integer</text>
<text text-anchor="start" x="910.5" y="-262.4" font-family="Times Roman,serif" font-size="14.00">created_at :datetime</text>
<text text-anchor="start" x="910.5" y="-244.4" font-family="Times Roman,serif" font-size="14.00">updated_at :datetime</text>
<text text-anchor="start" x="910.5" y="-226.4" font-family="Times Roman,serif" font-size="14.00">question_id :integer</text>
<text text-anchor="start" x="910.5" y="-208.4" font-family="Times Roman,serif" font-size="14.00">correct_answer_id :integer</text>
<text text-anchor="start" x="910.5" y="-190.4" font-family="Times Roman,serif" font-size="14.00">answer_id :integer</text>
</g>
<!-- Attempt&#45;&gt;Result -->
<g id="edge6" class="edge"><title>Attempt&#45;&gt;Result</title>
<path fill="none" stroke="#1a3720" d="M996.946,-379.887C997.429,-370.4 997.918,-360.8 998.397,-351.383"/>
<ellipse fill="none" stroke="#1a3720" cx="996.741" cy="-383.903" rx="4" ry="4"/>
<polygon fill="#1a3720" stroke="#1a3720" points="998.404,-351.238 1003.41,-341.479 998.659,-346.244 998.913,-341.251 998.913,-341.251 998.913,-341.251 998.659,-346.244 994.419,-341.022 998.404,-351.238 998.404,-351.238"/>
</g>
<!-- Certificate -->
<g id="node5" class="node"><title>Certificate</title>
<polyline fill="none" stroke="black" points="809.5,-613 950.5,-613 "/>
<path fill="none" stroke="black" d="M950.5,-613C956.5,-613 962.5,-619 962.5,-625"/>
<polyline fill="none" stroke="black" points="962.5,-625 962.5,-779 "/>
<path fill="none" stroke="black" d="M962.5,-779C962.5,-785 956.5,-791 950.5,-791"/>
<polyline fill="none" stroke="black" points="950.5,-791 809.5,-791 "/>
<path fill="none" stroke="black" d="M809.5,-791C803.5,-791 797.5,-785 797.5,-779"/>
<polyline fill="none" stroke="black" points="797.5,-779 797.5,-625 "/>
<path fill="none" stroke="black" d="M797.5,-625C797.5,-619 803.5,-613 809.5,-613"/>
<text text-anchor="middle" x="880" y="-774.4" font-family="Times Roman,serif" font-size="14.00">Certificate</text>
<polyline fill="none" stroke="black" points="797.5,-765 962.5,-765 "/>
<text text-anchor="start" x="805.5" y="-748.4" font-family="Times Roman,serif" font-size="14.00">id :integer</text>
<text text-anchor="start" x="805.5" y="-730.4" font-family="Times Roman,serif" font-size="14.00">course_id :integer</text>
<text text-anchor="start" x="805.5" y="-712.4" font-family="Times Roman,serif" font-size="14.00">user_id :integer</text>
<text text-anchor="start" x="805.5" y="-694.4" font-family="Times Roman,serif" font-size="14.00">purchase_date :date</text>
<text text-anchor="start" x="805.5" y="-676.4" font-family="Times Roman,serif" font-size="14.00">purchase_price :float</text>
<text text-anchor="start" x="805.5" y="-658.4" font-family="Times Roman,serif" font-size="14.00">slug :string</text>
<text text-anchor="start" x="805.5" y="-640.4" font-family="Times Roman,serif" font-size="14.00">created_at :datetime</text>
<text text-anchor="start" x="805.5" y="-622.4" font-family="Times Roman,serif" font-size="14.00">updated_at :datetime</text>
</g>
<!-- Course -->
<g id="node6" class="node"><title>Course</title>
<polyline fill="none" stroke="black" points="575.5,-928 716.5,-928 "/>
<path fill="none" stroke="black" d="M716.5,-928C722.5,-928 728.5,-934 728.5,-940"/>
<polyline fill="none" stroke="black" points="728.5,-940 728.5,-1112 "/>
<path fill="none" stroke="black" d="M728.5,-1112C728.5,-1118 722.5,-1124 716.5,-1124"/>
<polyline fill="none" stroke="black" points="716.5,-1124 575.5,-1124 "/>
<path fill="none" stroke="black" d="M575.5,-1124C569.5,-1124 563.5,-1118 563.5,-1112"/>
<polyline fill="none" stroke="black" points="563.5,-1112 563.5,-940 "/>
<path fill="none" stroke="black" d="M563.5,-940C563.5,-934 569.5,-928 575.5,-928"/>
<text text-anchor="middle" x="646" y="-1107.4" font-family="Times Roman,serif" font-size="14.00">Course</text>
<polyline fill="none" stroke="black" points="563.5,-1098 728.5,-1098 "/>
<text text-anchor="start" x="571.5" y="-1081.4" font-family="Times Roman,serif" font-size="14.00">id :integer</text>
<text text-anchor="start" x="571.5" y="-1063.4" font-family="Times Roman,serif" font-size="14.00">name :string</text>
<text text-anchor="start" x="571.5" y="-1045.4" font-family="Times Roman,serif" font-size="14.00">description :text</text>
<text text-anchor="start" x="571.5" y="-1027.4" font-family="Times Roman,serif" font-size="14.00">price :decimal</text>
<text text-anchor="start" x="571.5" y="-1009.4" font-family="Times Roman,serif" font-size="14.00">slug :string</text>
<text text-anchor="start" x="571.5" y="-991.4" font-family="Times Roman,serif" font-size="14.00">created_at :datetime</text>
<text text-anchor="start" x="571.5" y="-973.4" font-family="Times Roman,serif" font-size="14.00">updated_at :datetime</text>
<text text-anchor="start" x="571.5" y="-955.4" font-family="Times Roman,serif" font-size="14.00">user_id :integer</text>
<text text-anchor="start" x="571.5" y="-937.4" font-family="Times Roman,serif" font-size="14.00">ceu :integer</text>
</g>
<!-- Course&#45;&gt;Certificate -->
<g id="edge18" class="edge"><title>Course&#45;&gt;Certificate</title>
<path fill="none" stroke="#5e092b" d="M714.926,-920.961C735.406,-890.634 758.202,-857.714 780,-828 786.904,-818.588 794.22,-808.891 801.628,-799.252"/>
<ellipse fill="none" stroke="#5e092b" cx="712.556" cy="-924.478" rx="4.00002" ry="4.00002"/>
<polygon fill="#5e092b" stroke="#5e092b" points="801.753,-799.091 811.427,-793.928 804.809,-795.134 807.866,-791.177 807.866,-791.177 807.866,-791.177 804.809,-795.134 804.305,-788.426 801.753,-799.091 801.753,-799.091"/>
</g>
<!-- Quiz -->
<g id="node9" class="node"><title>Quiz</title>
<polyline fill="none" stroke="black" points="457.5,-397 678.5,-397 "/>
<path fill="none" stroke="black" d="M678.5,-397C684.5,-397 690.5,-403 690.5,-409"/>
<polyline fill="none" stroke="black" points="690.5,-409 690.5,-545 "/>
<path fill="none" stroke="black" d="M690.5,-545C690.5,-551 684.5,-557 678.5,-557"/>
<polyline fill="none" stroke="black" points="678.5,-557 457.5,-557 "/>
<path fill="none" stroke="black" d="M457.5,-557C451.5,-557 445.5,-551 445.5,-545"/>
<polyline fill="none" stroke="black" points="445.5,-545 445.5,-409 "/>
<path fill="none" stroke="black" d="M445.5,-409C445.5,-403 451.5,-397 457.5,-397"/>
<text text-anchor="middle" x="568" y="-540.4" font-family="Times Roman,serif" font-size="14.00">Quiz</text>
<polyline fill="none" stroke="black" points="445.5,-531 690.5,-531 "/>
<text text-anchor="start" x="453.5" y="-514.4" font-family="Times Roman,serif" font-size="14.00">id :integer</text>
<text text-anchor="start" x="453.5" y="-496.4" font-family="Times Roman,serif" font-size="14.00">name :string</text>
<text text-anchor="start" x="453.5" y="-478.4" font-family="Times Roman,serif" font-size="14.00">description :text</text>
<text text-anchor="start" x="453.5" y="-460.4" font-family="Times Roman,serif" font-size="14.00">created_at :datetime</text>
<text text-anchor="start" x="453.5" y="-442.4" font-family="Times Roman,serif" font-size="14.00">updated_at :datetime</text>
<text text-anchor="start" x="453.5" y="-424.4" font-family="Times Roman,serif" font-size="14.00">num_questions_to_show :integer</text>
<text text-anchor="start" x="453.5" y="-406.4" font-family="Times Roman,serif" font-size="14.00">passing_score :integer</text>
</g>
<!-- Course&#45;&gt;Quiz -->
<g id="edge16" class="edge"><title>Course&#45;&gt;Quiz</title>
<path fill="none" stroke="#e45008" d="M605.871,-918.004C593.182,-878.878 580.722,-833.98 574,-792 561.999,-717.049 561.246,-630.792 563.073,-567.512"/>
<polygon fill="#e45008" stroke="#e45008" points="605.976,-918.322 604.824,-929.228 607.537,-923.072 609.099,-927.822 609.099,-927.822 609.099,-927.822 607.537,-923.072 613.374,-926.417 605.976,-918.322 605.976,-918.322"/>
<polygon fill="#e45008" stroke="#e45008" points="563.084,-567.159 567.898,-557.306 563.242,-562.161 563.4,-557.164 563.4,-557.164 563.4,-557.164 563.242,-562.161 558.903,-557.021 563.084,-567.159 563.084,-567.159"/>
</g>
<!-- Section -->
<g id="node11" class="node"><title>Section</title>
<polyline fill="none" stroke="black" points="627.5,-622 768.5,-622 "/>
<path fill="none" stroke="black" d="M768.5,-622C774.5,-622 780.5,-628 780.5,-634"/>
<polyline fill="none" stroke="black" points="780.5,-634 780.5,-770 "/>
<path fill="none" stroke="black" d="M780.5,-770C780.5,-776 774.5,-782 768.5,-782"/>
<polyline fill="none" stroke="black" points="768.5,-782 627.5,-782 "/>
<path fill="none" stroke="black" d="M627.5,-782C621.5,-782 615.5,-776 615.5,-770"/>
<polyline fill="none" stroke="black" points="615.5,-770 615.5,-634 "/>
<path fill="none" stroke="black" d="M615.5,-634C615.5,-628 621.5,-622 627.5,-622"/>
<text text-anchor="middle" x="698" y="-765.4" font-family="Times Roman,serif" font-size="14.00">Section</text>
<polyline fill="none" stroke="black" points="615.5,-756 780.5,-756 "/>
<text text-anchor="start" x="623.5" y="-739.4" font-family="Times Roman,serif" font-size="14.00">id :integer</text>
<text text-anchor="start" x="623.5" y="-721.4" font-family="Times Roman,serif" font-size="14.00">sequence :integer</text>
<text text-anchor="start" x="623.5" y="-703.4" font-family="Times Roman,serif" font-size="14.00">course_id :integer</text>
<text text-anchor="start" x="623.5" y="-685.4" font-family="Times Roman,serif" font-size="14.00">video_id :integer</text>
<text text-anchor="start" x="623.5" y="-667.4" font-family="Times Roman,serif" font-size="14.00">quiz_id :integer</text>
<text text-anchor="start" x="623.5" y="-649.4" font-family="Times Roman,serif" font-size="14.00">created_at :datetime</text>
<text text-anchor="start" x="623.5" y="-631.4" font-family="Times Roman,serif" font-size="14.00">updated_at :datetime</text>
</g>
<!-- Course&#45;&gt;Section -->
<g id="edge12" class="edge"><title>Course&#45;&gt;Section</title>
<path fill="none" stroke="#316b3b" d="M663.028,-919.905C669.664,-878.554 677.19,-831.664 683.555,-792.003"/>
<ellipse fill="none" stroke="#316b3b" cx="662.377" cy="-923.961" rx="4.00001" ry="4.00001"/>
<polygon fill="#316b3b" stroke="#316b3b" points="683.562,-791.956 689.59,-782.796 684.355,-787.019 685.147,-782.083 685.147,-782.083 685.147,-782.083 684.355,-787.019 680.704,-781.369 683.562,-791.956 683.562,-791.956"/>
</g>
<!-- Video -->
<g id="node13" class="node"><title>Video</title>
<polyline fill="none" stroke="black" points="719.5,-379 860.5,-379 "/>
<path fill="none" stroke="black" d="M860.5,-379C866.5,-379 872.5,-385 872.5,-391"/>
<polyline fill="none" stroke="black" points="872.5,-391 872.5,-563 "/>
<path fill="none" stroke="black" d="M872.5,-563C872.5,-569 866.5,-575 860.5,-575"/>
<polyline fill="none" stroke="black" points="860.5,-575 719.5,-575 "/>
<path fill="none" stroke="black" d="M719.5,-575C713.5,-575 707.5,-569 707.5,-563"/>
<polyline fill="none" stroke="black" points="707.5,-563 707.5,-391 "/>
<path fill="none" stroke="black" d="M707.5,-391C707.5,-385 713.5,-379 719.5,-379"/>
<text text-anchor="middle" x="790" y="-558.4" font-family="Times Roman,serif" font-size="14.00">Video</text>
<polyline fill="none" stroke="black" points="707.5,-549 872.5,-549 "/>
<text text-anchor="start" x="715.5" y="-532.4" font-family="Times Roman,serif" font-size="14.00">id :integer</text>
<text text-anchor="start" x="715.5" y="-514.4" font-family="Times Roman,serif" font-size="14.00">name :string</text>
<text text-anchor="start" x="715.5" y="-496.4" font-family="Times Roman,serif" font-size="14.00">description :text</text>
<text text-anchor="start" x="715.5" y="-478.4" font-family="Times Roman,serif" font-size="14.00">length :float</text>
<text text-anchor="start" x="715.5" y="-460.4" font-family="Times Roman,serif" font-size="14.00">presenter :string</text>
<text text-anchor="start" x="715.5" y="-442.4" font-family="Times Roman,serif" font-size="14.00">url :string</text>
<text text-anchor="start" x="715.5" y="-424.4" font-family="Times Roman,serif" font-size="14.00">created_at :datetime</text>
<text text-anchor="start" x="715.5" y="-406.4" font-family="Times Roman,serif" font-size="14.00">updated_at :datetime</text>
<text text-anchor="start" x="715.5" y="-388.4" font-family="Times Roman,serif" font-size="14.00">slug :string</text>
</g>
<!-- Course&#45;&gt;Video -->
<g id="edge14" class="edge"><title>Course&#45;&gt;Video</title>
<path fill="none" stroke="#409c17" d="M620.462,-917.692C598.198,-811.931 574.178,-660.089 607,-612 631.753,-575.734 662.767,-600.801 699,-576 699.087,-575.94 699.175,-575.88 699.262,-575.82"/>
<polygon fill="#409c17" stroke="#409c17" points="620.527,-917.998 618.208,-928.715 621.568,-922.888 622.609,-927.778 622.609,-927.778 622.609,-927.778 621.568,-922.888 627.01,-926.841 620.527,-917.998 620.527,-917.998"/>
<polygon fill="#409c17" stroke="#409c17" points="699.211,-575.857 709.946,-573.619 703.256,-572.918 707.3,-569.979 707.3,-569.979 707.3,-569.979 703.256,-572.918 704.655,-566.338 699.211,-575.857 699.211,-575.857"/>
</g>
<!-- Message -->
<g id="node7" class="node"><title>Message</title>
<polygon fill="none" stroke="black" points="315.5,-1000 315.5,-1052 390.5,-1052 390.5,-1000 315.5,-1000"/>
<text text-anchor="middle" x="353" y="-1035.4" font-family="Times Roman,serif" font-size="14.00">Message</text>
<polyline fill="none" stroke="black" points="315.5,-1026 390.5,-1026 "/>
<text text-anchor="middle" x="353" y="-1009.4" font-family="Times Roman,serif" font-size="14.00"> </text>
</g>
<!-- Question -->
<g id="node8" class="node"><title>Question</title>
<polyline fill="none" stroke="black" points="497.5,-199 638.5,-199 "/>
<path fill="none" stroke="black" d="M638.5,-199C644.5,-199 650.5,-205 650.5,-211"/>
<polyline fill="none" stroke="black" points="650.5,-211 650.5,-311 "/>
<path fill="none" stroke="black" d="M650.5,-311C650.5,-317 644.5,-323 638.5,-323"/>
<polyline fill="none" stroke="black" points="638.5,-323 497.5,-323 "/>
<path fill="none" stroke="black" d="M497.5,-323C491.5,-323 485.5,-317 485.5,-311"/>
<polyline fill="none" stroke="black" points="485.5,-311 485.5,-211 "/>
<path fill="none" stroke="black" d="M485.5,-211C485.5,-205 491.5,-199 497.5,-199"/>
<text text-anchor="middle" x="568" y="-306.4" font-family="Times Roman,serif" font-size="14.00">Question</text>
<polyline fill="none" stroke="black" points="485.5,-297 650.5,-297 "/>
<text text-anchor="start" x="493.5" y="-280.4" font-family="Times Roman,serif" font-size="14.00">id :integer</text>
<text text-anchor="start" x="493.5" y="-262.4" font-family="Times Roman,serif" font-size="14.00">content :text</text>
<text text-anchor="start" x="493.5" y="-244.4" font-family="Times Roman,serif" font-size="14.00">quiz_id :integer</text>
<text text-anchor="start" x="493.5" y="-226.4" font-family="Times Roman,serif" font-size="14.00">created_at :datetime</text>
<text text-anchor="start" x="493.5" y="-208.4" font-family="Times Roman,serif" font-size="14.00">updated_at :datetime</text>
</g>
<!-- Question&#45;&gt;Answer -->
<g id="edge24" class="edge"><title>Question&#45;&gt;Answer</title>
<path fill="none" stroke="#d7f39a" d="M657.421,-202.113C691.298,-179.804 729.884,-154.394 763.912,-131.985"/>
<ellipse fill="none" stroke="#d7f39a" cx="653.968" cy="-204.387" rx="4.00002" ry="4.00002"/>
<polygon fill="#d7f39a" stroke="#d7f39a" points="764.107,-131.856 774.934,-130.114 768.283,-129.106 772.459,-126.356 772.459,-126.356 772.459,-126.356 768.283,-129.106 769.984,-122.598 764.107,-131.856 764.107,-131.856"/>
</g>
<!-- Quiz&#45;&gt;Question -->
<g id="edge28" class="edge"><title>Quiz&#45;&gt;Question</title>
<path fill="none" stroke="#5ffe41" d="M568,-388.813C568,-370.385 568,-351.16 568,-333.385"/>
<ellipse fill="none" stroke="#5ffe41" cx="568" cy="-392.877" rx="4" ry="4"/>
<polygon fill="#5ffe41" stroke="#5ffe41" points="568,-333.103 572.5,-323.103 568,-328.103 568,-323.103 568,-323.103 568,-323.103 568,-328.103 563.5,-323.103 568,-333.103 568,-333.103"/>
</g>
<!-- Section&#45;&gt;Attempt -->
<g id="edge38" class="edge"><title>Section&#45;&gt;Attempt</title>
<path fill="none" stroke="#2d29f7" d="M781.618,-617.039C784.063,-615.292 786.526,-613.608 789,-612 825.813,-588.069 843.582,-598.975 881,-576 887.73,-571.867 894.437,-567.309 901.03,-562.486"/>
<ellipse fill="none" stroke="#2d29f7" cx="778.403" cy="-619.421" rx="4.00002" ry="4.00002"/>
<polygon fill="#2d29f7" stroke="#2d29f7" points="901.325,-562.264 912.02,-559.841 905.319,-559.255 909.312,-556.247 909.312,-556.247 909.312,-556.247 905.319,-559.255 906.605,-552.653 901.325,-562.264 901.325,-562.264"/>
</g>
<!-- Section&#45;&gt;Quiz -->
<g id="edge36" class="edge"><title>Section&#45;&gt;Quiz</title>
<path fill="none" stroke="#e25081" d="M647.615,-614.794C638.039,-598.221 628.017,-580.875 618.439,-564.299"/>
<ellipse fill="none" stroke="#e25081" cx="649.616" cy="-618.259" rx="4.00002" ry="4.00002"/>
<ellipse fill="#e25081" stroke="#e25081" cx="616.366" cy="-560.71" rx="4.00002" ry="4.00002"/>
</g>
<!-- Section&#45;&gt;Video -->
<g id="edge34" class="edge"><title>Section&#45;&gt;Video</title>
<path fill="none" stroke="#3b24bf" d="M733.872,-614.269C738.07,-604.003 742.386,-593.448 746.67,-582.969"/>
<ellipse fill="none" stroke="#3b24bf" cx="732.338" cy="-618.02" rx="4.00002" ry="4.00002"/>
<ellipse fill="#3b24bf" stroke="#3b24bf" cx="748.269" cy="-579.06" rx="4.00001" ry="4.00001"/>
</g>
<!-- User -->
<g id="node12" class="node"><title>User</title>
<polyline fill="none" stroke="black" points="833.5,-829 988.5,-829 "/>
<path fill="none" stroke="black" d="M988.5,-829C994.5,-829 1000.5,-835 1000.5,-841"/>
<polyline fill="none" stroke="black" points="1000.5,-841 1000.5,-1211 "/>
<path fill="none" stroke="black" d="M1000.5,-1211C1000.5,-1217 994.5,-1223 988.5,-1223"/>
<polyline fill="none" stroke="black" points="988.5,-1223 833.5,-1223 "/>
<path fill="none" stroke="black" d="M833.5,-1223C827.5,-1223 821.5,-1217 821.5,-1211"/>
<polyline fill="none" stroke="black" points="821.5,-1211 821.5,-841 "/>
<path fill="none" stroke="black" d="M821.5,-841C821.5,-835 827.5,-829 833.5,-829"/>
<text text-anchor="middle" x="911" y="-1206.4" font-family="Times Roman,serif" font-size="14.00">User</text>
<polyline fill="none" stroke="black" points="821.5,-1197 1000.5,-1197 "/>
<text text-anchor="start" x="829.5" y="-1180.4" font-family="Times Roman,serif" font-size="14.00">id :integer</text>
<text text-anchor="start" x="829.5" y="-1162.4" font-family="Times Roman,serif" font-size="14.00">last_name :string</text>
<text text-anchor="start" x="829.5" y="-1144.4" font-family="Times Roman,serif" font-size="14.00">password_digest :string</text>
<text text-anchor="start" x="829.5" y="-1126.4" font-family="Times Roman,serif" font-size="14.00">email :string</text>
<text text-anchor="start" x="829.5" y="-1108.4" font-family="Times Roman,serif" font-size="14.00">account :string</text>
<text text-anchor="start" x="829.5" y="-1090.4" font-family="Times Roman,serif" font-size="14.00">slug :string</text>
<text text-anchor="start" x="829.5" y="-1072.4" font-family="Times Roman,serif" font-size="14.00">confirmed_at :date</text>
<text text-anchor="start" x="829.5" y="-1054.4" font-family="Times Roman,serif" font-size="14.00">created_at :datetime</text>
<text text-anchor="start" x="829.5" y="-1036.4" font-family="Times Roman,serif" font-size="14.00">updated_at :datetime</text>
<text text-anchor="start" x="829.5" y="-1018.4" font-family="Times Roman,serif" font-size="14.00">token :string</text>
<text text-anchor="start" x="829.5" y="-1000.4" font-family="Times Roman,serif" font-size="14.00">first_name :string</text>
<text text-anchor="start" x="829.5" y="-982.4" font-family="Times Roman,serif" font-size="14.00">title :string</text>
<text text-anchor="start" x="829.5" y="-964.4" font-family="Times Roman,serif" font-size="14.00">company :string</text>
<text text-anchor="start" x="829.5" y="-946.4" font-family="Times Roman,serif" font-size="14.00">address1 :string</text>
<text text-anchor="start" x="829.5" y="-928.4" font-family="Times Roman,serif" font-size="14.00">address2 :string</text>
<text text-anchor="start" x="829.5" y="-910.4" font-family="Times Roman,serif" font-size="14.00">city :string</text>
<text text-anchor="start" x="829.5" y="-892.4" font-family="Times Roman,serif" font-size="14.00">state :string</text>
<text text-anchor="start" x="829.5" y="-874.4" font-family="Times Roman,serif" font-size="14.00">postal_code :string</text>
<text text-anchor="start" x="829.5" y="-856.4" font-family="Times Roman,serif" font-size="14.00">country :string</text>
<text text-anchor="start" x="829.5" y="-838.4" font-family="Times Roman,serif" font-size="14.00">phone :string</text>
</g>
<!-- User&#45;&gt;Attempt -->
<g id="edge44" class="edge"><title>User&#45;&gt;Attempt</title>
<path fill="none" stroke="#d69828" d="M965.824,-821.099C967.727,-811.294 969.469,-801.558 971,-792 982.473,-720.357 987.695,-638.576 990.064,-576.3"/>
<ellipse fill="none" stroke="#d69828" cx="965.041" cy="-825.052" rx="4.00001" ry="4.00001"/>
<polygon fill="#d69828" stroke="#d69828" points="990.072,-576.08 994.931,-566.249 990.253,-571.083 990.434,-566.086 990.434,-566.086 990.434,-566.086 990.253,-571.083 985.937,-565.923 990.072,-576.08 990.072,-576.08"/>
</g>
<!-- User&#45;&gt;Certificate -->
<g id="edge42" class="edge"><title>User&#45;&gt;Certificate</title>
<path fill="none" stroke="#33d342" d="M891.339,-820.51C890.72,-814.04 890.11,-807.67 889.515,-801.445"/>
<ellipse fill="none" stroke="#33d342" cx="891.738" cy="-824.677" rx="4" ry="4"/>
<polygon fill="#33d342" stroke="#33d342" points="889.479,-801.07 893.006,-790.687 889.003,-796.093 888.526,-791.115 888.526,-791.115 888.526,-791.115 889.003,-796.093 884.047,-791.544 889.479,-801.07 889.479,-801.07"/>
</g>
<!-- Object -->
<g id="node14" class="node"><title>Object</title>
<ellipse fill="none" stroke="black" cx="311" cy="-1307" rx="43.1335" ry="18.3848"/>
<text text-anchor="middle" x="311" y="-1303.4" font-family="Times Roman,serif" font-size="14.00">Object</text>
</g>
<!-- Object&#45;&gt;Ability -->
<g id="edge2" class="edge"><title>Object&#45;&gt;Ability</title>
<path fill="none" stroke="black" d="M308.112,-1288.13C300.636,-1239.27 280.637,-1108.58 272.03,-1052.34"/>
</g>
<!-- Object&#45;&gt;Message -->
<g id="edge22" class="edge"><title>Object&#45;&gt;Message</title>
<path fill="none" stroke="black" d="M313.821,-1288.13C321.123,-1239.27 340.657,-1108.58 349.063,-1052.34"/>
</g>
<!-- ActiveRecord::Base -->
<g id="node16" class="node"><title>ActiveRecord::Base</title>
<ellipse fill="none" stroke="black" cx="852" cy="-1307" rx="104.151" ry="18.3848"/>
<text text-anchor="middle" x="852" y="-1303.4" font-family="Times Roman,serif" font-size="14.00">ActiveRecord::Base</text>
</g>
<!-- ActiveRecord::Base&#45;&gt;Answer -->
<g id="edge4" class="edge"><title>ActiveRecord::Base&#45;&gt;Answer</title>
<path fill="none" stroke="black" d="M918.978,-1292.83C983.27,-1277.78 1073.8,-1252.29 1096,-1224 1239.79,-1040.79 1142,-934.899 1142,-702 1142,-702 1142,-702 1142,-477 1142,-344.328 1190.89,-286.667 1112,-180 1070.99,-124.551 996.004,-97.369 937.574,-84.1653"/>
</g>
<!-- ActiveRecord::Base&#45;&gt;Attempt -->
<g id="edge8" class="edge"><title>ActiveRecord::Base&#45;&gt;Attempt</title>
<path fill="none" stroke="black" d="M924.119,-1293.57C963.502,-1282.16 1009.01,-1261.39 1033,-1224 1101.34,-1117.48 1041.88,-740.268 1009.58,-566.206"/>
</g>
<!-- ActiveRecord::Base&#45;&gt;Certificate -->
<g id="edge10" class="edge"><title>ActiveRecord::Base&#45;&gt;Certificate</title>
<path fill="none" stroke="black" d="M840.343,-1288.41C830.865,-1272.12 818.238,-1247.46 813,-1224 774.655,-1052.23 770.419,-998.771 813,-828 816.087,-815.62 820.643,-803.121 825.953,-791.053"/>
</g>
<!-- ActiveRecord::Base&#45;&gt;Course -->
<g id="edge20" class="edge"><title>ActiveRecord::Base&#45;&gt;Course</title>
<path fill="none" stroke="black" d="M820.809,-1289.14C796.837,-1274.19 764.177,-1250.98 742,-1224 717.744,-1194.49 697.79,-1157.82 682.477,-1124.09"/>
</g>
<!-- ActiveRecord::Base&#45;&gt;Question -->
<g id="edge26" class="edge"><title>ActiveRecord::Base&#45;&gt;Question</title>
<path fill="none" stroke="black" d="M756.243,-1299.64C654.056,-1289.6 501.857,-1267.64 465,-1224 404.313,-1152.15 398.573,-463.843 437,-378 447.652,-354.204 465.802,-333.252 485.252,-315.899"/>
</g>
<!-- ActiveRecord::Base&#45;&gt;Quiz -->
<g id="edge30" class="edge"><title>ActiveRecord::Base&#45;&gt;Quiz</title>
<path fill="none" stroke="black" d="M770.785,-1295.44C692.151,-1282.38 581.094,-1258.39 555,-1224 404.652,-1025.87 486.826,-705.456 537.543,-557.101"/>
</g>
<!-- ActiveRecord::Base&#45;&gt;Result -->
<g id="edge32" class="edge"><title>ActiveRecord::Base&#45;&gt;Result</title>
<path fill="none" stroke="black" d="M936.132,-1296.09C981.229,-1285.54 1033.28,-1264.79 1062,-1224 1116.13,-1147.11 1110.78,-467.833 1083,-378 1079.11,-365.423 1073.35,-352.993 1066.68,-341.197"/>
</g>
<!-- ActiveRecord::Base&#45;&gt;Section -->
<g id="edge40" class="edge"><title>ActiveRecord::Base&#45;&gt;Section</title>
<path fill="none" stroke="black" d="M829.41,-1288.79C812.158,-1273.48 789.459,-1249.96 778,-1224 706.554,-1062.13 772.442,-1001.35 737,-828 733.927,-812.969 729.791,-797.175 725.359,-782.047"/>
</g>
<!-- ActiveRecord::Base&#45;&gt;User -->
<g id="edge46" class="edge"><title>ActiveRecord::Base&#45;&gt;User</title>
<path fill="none" stroke="black" d="M855.963,-1288.13C859.167,-1272.87 864.047,-1249.63 869.603,-1223.16"/>
</g>
<!-- ActiveRecord::Base&#45;&gt;Video -->
<g id="edge48" class="edge"><title>ActiveRecord::Base&#45;&gt;Video</title>
<path fill="none" stroke="black" d="M912.435,-1291.84C947.224,-1279.68 988.077,-1258.73 1009,-1224 1054.41,-1148.62 1016.65,-915.667 1009,-828 1000.52,-730.895 1028.82,-690.476 971,-612 950.249,-583.834 929.841,-595.802 901,-576 891.527,-569.496 881.993,-562.262 872.706,-554.748"/>
</g>
</g>
</svg>
