<?xml version="1.0" encoding="UTF-8" standalone="no"?>
<!DOCTYPE svg PUBLIC "-//W3C//DTD SVG 1.1//EN"
 "http://www.w3.org/Graphics/SVG/1.1/DTD/svg11.dtd">
<!-- Generated by graphviz version 2.26.3 (20100126.1600)
 -->
<!-- Title: models_diagram Pages: 1 -->
<svg width="986pt" height="472pt"
 viewBox="0.00 0.00 986.00 472.00" xmlns="http://www.w3.org/2000/svg" xmlns:xlink="http://www.w3.org/1999/xlink">
<g id="graph1" class="graph" transform="scale(1 1) rotate(0) translate(4 468)">
<title>models_diagram</title>
<polygon fill="white" stroke="white" points="-4,5 -4,-468 983,-468 983,5 -4,5"/>
<!-- _diagram_info -->
<g id="node1" class="node"><title>_diagram_info</title>
<text text-anchor="start" x="8" y="-447.8" font-family="Times Roman,serif" font-size="13.00">Models diagram</text>
<text text-anchor="start" x="8" y="-430.8" font-family="Times Roman,serif" font-size="13.00">Date: Dec 13 2013 &#45; 04:07</text>
<text text-anchor="start" x="8" y="-413.8" font-family="Times Roman,serif" font-size="13.00">Migration version: 20131213002843</text>
<text text-anchor="start" x="8" y="-396.8" font-family="Times Roman,serif" font-size="13.00">Generated by RailRoady 1.1.1</text>
<text text-anchor="start" x="8" y="-379.8" font-family="Times Roman,serif" font-size="13.00">http://railroady.prestonlee.com</text>
</g>
<!-- Ability -->
<g id="node2" class="node"><title>Ability</title>
<polygon fill="none" stroke="black" points="298,-333 238,-333 238,-297 298,-297 298,-333"/>
<text text-anchor="middle" x="268" y="-311.4" font-family="Times Roman,serif" font-size="14.00">Ability</text>
</g>
<!-- Answer -->
<g id="node3" class="node"><title>Answer</title>
<ellipse fill="none" stroke="black" cx="736" cy="-19" rx="48.7904" ry="18.3848"/>
<text text-anchor="middle" x="736" y="-15.4" font-family="Times Roman,serif" font-size="14.00">Answer</text>
</g>
<!-- Attempt -->
<g id="node4" class="node"><title>Attempt</title>
<ellipse fill="none" stroke="black" cx="843" cy="-167" rx="51.8276" ry="18.3848"/>
<text text-anchor="middle" x="843" y="-163.4" font-family="Times Roman,serif" font-size="14.00">Attempt</text>
</g>
<!-- Result -->
<g id="node10" class="node"><title>Result</title>
<ellipse fill="none" stroke="black" cx="876" cy="-93" rx="41.2167" ry="18.3848"/>
<text text-anchor="middle" x="876" y="-89.4" font-family="Times Roman,serif" font-size="14.00">Result</text>
</g>
<!-- Attempt&#45;&gt;Result -->
<g id="edge6" class="edge"><title>Attempt&#45;&gt;Result</title>
<path fill="none" stroke="#a78c5b" d="M854.534,-141.136C857.478,-134.534 860.655,-127.41 863.638,-120.72"/>
<ellipse fill="none" stroke="#a78c5b" cx="852.786" cy="-145.055" rx="4.00002" ry="4.00002"/>
<polygon fill="#a78c5b" stroke="#a78c5b" points="863.749,-120.471 871.932,-113.171 865.786,-115.905 867.822,-111.338 867.822,-111.338 867.822,-111.338 865.786,-115.905 863.712,-109.505 863.749,-120.471 863.749,-120.471"/>
</g>
<!-- Certificate -->
<g id="node5" class="node"><title>Certificate</title>
<ellipse fill="none" stroke="black" cx="736" cy="-241" rx="62.2254" ry="18.3848"/>
<text text-anchor="middle" x="736" y="-237.4" font-family="Times Roman,serif" font-size="14.00">Certificate</text>
</g>
<!-- Course -->
<g id="node6" class="node"><title>Course</title>
<ellipse fill="none" stroke="black" cx="608" cy="-315" rx="45.9619" ry="18.3848"/>
<text text-anchor="middle" x="608" y="-311.4" font-family="Times Roman,serif" font-size="14.00">Course</text>
</g>
<!-- Course&#45;&gt;Certificate -->
<g id="edge18" class="edge"><title>Course&#45;&gt;Certificate</title>
<path fill="none" stroke="#6c88fe" d="M641.505,-295.63C658.908,-285.569 680.237,-273.238 698.224,-262.839"/>
<ellipse fill="none" stroke="#6c88fe" cx="637.985" cy="-297.665" rx="4.00002" ry="4.00002"/>
<polygon fill="#6c88fe" stroke="#6c88fe" points="698.629,-262.605 709.539,-261.496 702.958,-260.102 707.287,-257.6 707.287,-257.6 707.287,-257.6 702.958,-260.102 705.034,-253.704 698.629,-262.605 698.629,-262.605"/>
</g>
<!-- Quiz -->
<g id="node9" class="node"><title>Quiz</title>
<ellipse fill="none" stroke="black" cx="494" cy="-167" rx="34.1461" ry="18.3848"/>
<text text-anchor="middle" x="494" y="-163.4" font-family="Times Roman,serif" font-size="14.00">Quiz</text>
</g>
<!-- Course&#45;&gt;Quiz -->
<g id="edge16" class="edge"><title>Course&#45;&gt;Quiz</title>
<path fill="none" stroke="#f1dbd3" d="M576.03,-292.6C564.374,-283.401 551.69,-272.075 542,-260 526.045,-240.119 513.162,-214.097 504.775,-194.636"/>
<polygon fill="#f1dbd3" stroke="#f1dbd3" points="576.332,-292.83 581.546,-302.478 580.305,-295.866 584.278,-298.902 584.278,-298.902 584.278,-298.902 580.305,-295.866 587.01,-295.326 576.332,-292.83 576.332,-292.83"/>
<polygon fill="#f1dbd3" stroke="#f1dbd3" points="504.77,-194.623 505.068,-183.662 502.843,-190.01 500.916,-185.396 500.916,-185.396 500.916,-185.396 502.843,-190.01 496.764,-187.13 504.77,-194.623 504.77,-194.623"/>
</g>
<!-- Section -->
<g id="node11" class="node"><title>Section</title>
<ellipse fill="none" stroke="black" cx="608" cy="-241" rx="48.0833" ry="18.3848"/>
<text text-anchor="middle" x="608" y="-237.4" font-family="Times Roman,serif" font-size="14.00">Section</text>
</g>
<!-- Course&#45;&gt;Section -->
<g id="edge12" class="edge"><title>Course&#45;&gt;Section</title>
<path fill="none" stroke="#5ff711" d="M608,-288.309C608,-282.377 608,-276.061 608,-270.04"/>
<ellipse fill="none" stroke="#5ff711" cx="608" cy="-292.327" rx="4" ry="4"/>
<polygon fill="#5ff711" stroke="#5ff711" points="608,-269.667 612.5,-259.667 608,-264.667 608,-259.667 608,-259.667 608,-259.667 608,-264.667 603.5,-259.667 608,-269.667 608,-269.667"/>
</g>
<!-- Video -->
<g id="node13" class="node"><title>Video</title>
<ellipse fill="none" stroke="black" cx="608" cy="-167" rx="38.8909" ry="18.3848"/>
<text text-anchor="middle" x="608" y="-163.4" font-family="Times Roman,serif" font-size="14.00">Video</text>
</g>
<!-- Course&#45;&gt;Video -->
<g id="edge14" class="edge"><title>Course&#45;&gt;Video</title>
<path fill="none" stroke="#33937f" d="M576.112,-292.566C566.135,-283.689 556.345,-272.584 551,-260 544.398,-244.455 544.398,-237.545 551,-222 556.526,-208.989 566.805,-197.559 577.129,-188.538"/>
<polygon fill="#33937f" stroke="#33937f" points="576.387,-292.795 581.193,-302.652 580.23,-295.994 584.072,-299.193 584.072,-299.193 584.072,-299.193 580.23,-295.994 586.951,-295.735 576.387,-292.795 576.387,-292.795"/>
<polygon fill="#33937f" stroke="#33937f" points="577.22,-188.462 587.807,-185.603 581.087,-185.292 584.954,-182.122 584.954,-182.122 584.954,-182.122 581.087,-185.292 582.101,-178.642 577.22,-188.462 577.22,-188.462"/>
</g>
<!-- Message -->
<g id="node7" class="node"><title>Message</title>
<polygon fill="none" stroke="black" points="390,-333 316,-333 316,-297 390,-297 390,-333"/>
<text text-anchor="middle" x="353" y="-311.4" font-family="Times Roman,serif" font-size="14.00">Message</text>
</g>
<!-- Question -->
<g id="node8" class="node"><title>Question</title>
<ellipse fill="none" stroke="black" cx="494" cy="-93" rx="55.8614" ry="18.3848"/>
<text text-anchor="middle" x="494" y="-89.4" font-family="Times Roman,serif" font-size="14.00">Question</text>
</g>
<!-- Question&#45;&gt;Answer -->
<g id="edge24" class="edge"><title>Question&#45;&gt;Answer</title>
<path fill="none" stroke="#c44bfa" d="M543.024,-78.0093C585.282,-65.0873 645.941,-46.5387 687.922,-33.7016"/>
<ellipse fill="none" stroke="#c44bfa" cx="539.151" cy="-79.1933" rx="4.00001" ry="4.00001"/>
<polygon fill="#c44bfa" stroke="#c44bfa" points="688.076,-33.6544 698.955,-35.0335 692.858,-32.1923 697.639,-30.7301 697.639,-30.7301 697.639,-30.7301 692.858,-32.1923 696.323,-26.4268 688.076,-33.6544 688.076,-33.6544"/>
</g>
<!-- Quiz&#45;&gt;Question -->
<g id="edge28" class="edge"><title>Quiz&#45;&gt;Question</title>
<path fill="none" stroke="#3c8188" d="M494,-140.309C494,-134.377 494,-128.061 494,-122.04"/>
<ellipse fill="none" stroke="#3c8188" cx="494" cy="-144.327" rx="4" ry="4"/>
<polygon fill="#3c8188" stroke="#3c8188" points="494,-121.667 498.5,-111.667 494,-116.667 494,-111.667 494,-111.667 494,-111.667 494,-116.667 489.5,-111.667 494,-121.667 494,-121.667"/>
</g>
<!-- Section&#45;&gt;Attempt -->
<g id="edge38" class="edge"><title>Section&#45;&gt;Attempt</title>
<path fill="none" stroke="#fd927b" d="M652.001,-226.225C656.389,-224.784 660.779,-223.355 665,-222 708.35,-208.08 757.845,-192.839 793.621,-181.938"/>
<ellipse fill="none" stroke="#fd927b" cx="647.943" cy="-227.565" rx="4.00001" ry="4.00001"/>
<polygon fill="#fd927b" stroke="#fd927b" points="793.764,-181.895 804.641,-183.288 798.547,-180.439 803.331,-178.983 803.331,-178.983 803.331,-178.983 798.547,-180.439 802.021,-174.678 793.764,-181.895 793.764,-181.895"/>
</g>
<!-- Section&#45;&gt;Quiz -->
<g id="edge36" class="edge"><title>Section&#45;&gt;Quiz</title>
<path fill="none" stroke="#519f13" d="M576.426,-220.504C559.613,-209.591 539.088,-196.267 522.725,-185.646"/>
<ellipse fill="none" stroke="#519f13" cx="579.909" cy="-222.765" rx="4.00002" ry="4.00002"/>
<ellipse fill="#519f13" stroke="#519f13" cx="519.346" cy="-183.453" rx="4.00002" ry="4.00002"/>
</g>
<!-- Section&#45;&gt;Video -->
<g id="edge34" class="edge"><title>Section&#45;&gt;Video</title>
<path fill="none" stroke="#8dbcfa" d="M608,-214.309C608,-207.635 608,-200.476 608,-193.797"/>
<ellipse fill="none" stroke="#8dbcfa" cx="608" cy="-218.327" rx="4" ry="4"/>
<ellipse fill="#8dbcfa" stroke="#8dbcfa" cx="608" cy="-189.667" rx="4" ry="4"/>
</g>
<!-- User -->
<g id="node12" class="node"><title>User</title>
<ellipse fill="none" stroke="black" cx="798" cy="-315" rx="33.9411" ry="18.3848"/>
<text text-anchor="middle" x="798" y="-311.4" font-family="Times Roman,serif" font-size="14.00">User</text>
</g>
<!-- User&#45;&gt;Attempt -->
<g id="edge44" class="edge"><title>User&#45;&gt;Attempt</title>
<path fill="none" stroke="#336485" d="M805.994,-288.707C813.977,-262.453 826.206,-222.233 834.397,-195.295"/>
<ellipse fill="none" stroke="#336485" cx="804.772" cy="-292.728" rx="4.00001" ry="4.00001"/>
<polygon fill="#336485" stroke="#336485" points="834.412,-195.245 841.626,-186.987 835.866,-190.461 837.321,-185.678 837.321,-185.678 837.321,-185.678 835.866,-190.461 833.016,-184.368 834.412,-195.245 834.412,-195.245"/>
</g>
<!-- User&#45;&gt;Certificate -->
<g id="edge42" class="edge"><title>User&#45;&gt;Certificate</title>
<path fill="none" stroke="#1a4090" d="M778.359,-291.557C771.764,-283.686 764.374,-274.865 757.635,-266.822"/>
<ellipse fill="none" stroke="#1a4090" cx="781.051" cy="-294.771" rx="4.00002" ry="4.00002"/>
<polygon fill="#1a4090" stroke="#1a4090" points="757.589,-266.768 754.616,-256.212 754.378,-262.935 751.167,-259.102 751.167,-259.102 751.167,-259.102 754.378,-262.935 747.718,-261.992 757.589,-266.768 757.589,-266.768"/>
</g>
<!-- Object -->
<g id="node14" class="node"><title>Object</title>
<ellipse fill="none" stroke="black" cx="311" cy="-417" rx="43.1335" ry="18.3848"/>
<text text-anchor="middle" x="311" y="-413.4" font-family="Times Roman,serif" font-size="14.00">Object</text>
</g>
<!-- Object&#45;&gt;Ability -->
<g id="edge2" class="edge"><title>Object&#45;&gt;Ability</title>
<path fill="none" stroke="black" d="M303.312,-398.764C295.486,-380.198 283.424,-351.586 275.621,-333.078"/>
</g>
<!-- Object&#45;&gt;Message -->
<g id="edge22" class="edge"><title>Object&#45;&gt;Message</title>
<path fill="none" stroke="black" d="M318.509,-398.764C326.154,-380.198 337.935,-351.586 345.556,-333.078"/>
</g>
<!-- ActiveRecord::Base -->
<g id="node16" class="node"><title>ActiveRecord::Base</title>
<ellipse fill="none" stroke="black" cx="767" cy="-417" rx="104.151" ry="18.3848"/>
<text text-anchor="middle" x="767" y="-413.4" font-family="Times Roman,serif" font-size="14.00">ActiveRecord::Base</text>
</g>
<!-- ActiveRecord::Base&#45;&gt;Answer -->
<g id="edge4" class="edge"><title>ActiveRecord::Base&#45;&gt;Answer</title>
<path fill="none" stroke="black" d="M816.204,-400.673C878.553,-376.513 978,-324.837 978,-241 978,-241 978,-241 978,-167 978,-119.644 963.078,-103.458 926,-74 885.131,-41.5303 825.811,-28.2287 784.359,-22.7799"/>
</g>
<!-- ActiveRecord::Base&#45;&gt;Attempt -->
<g id="edge8" class="edge"><title>ActiveRecord::Base&#45;&gt;Attempt</title>
<path fill="none" stroke="black" d="M805.701,-399.724C831.357,-385.962 862.967,-364.013 878,-334 900.293,-289.493 891.917,-269.793 878,-222 874.076,-208.525 865.742,-195.2 858.19,-185.041"/>
</g>
<!-- ActiveRecord::Base&#45;&gt;Certificate -->
<g id="edge10" class="edge"><title>ActiveRecord::Base&#45;&gt;Certificate</title>
<path fill="none" stroke="black" d="M763.741,-398.498C757.787,-364.695 745.218,-293.333 739.262,-259.519"/>
</g>
<!-- ActiveRecord::Base&#45;&gt;Course -->
<g id="edge20" class="edge"><title>ActiveRecord::Base&#45;&gt;Course</title>
<path fill="none" stroke="black" d="M738.94,-398.999C708.807,-379.668 661.394,-349.253 632.649,-330.812"/>
</g>
<!-- ActiveRecord::Base&#45;&gt;Question -->
<g id="edge26" class="edge"><title>ActiveRecord::Base&#45;&gt;Question</title>
<path fill="none" stroke="black" d="M683.264,-405.999C630.999,-395.321 565.282,-374.472 520,-334 465.888,-285.637 466.705,-256.855 451,-186 447.345,-169.511 445.499,-163.968 451,-148 455.895,-133.79 466.137,-120.442 475.397,-110.455"/>
</g>
<!-- ActiveRecord::Base&#45;&gt;Quiz -->
<g id="edge30" class="edge"><title>ActiveRecord::Base&#45;&gt;Quiz</title>
<path fill="none" stroke="black" d="M697.189,-403.284C651.755,-391.382 593.61,-370.188 553,-334 508.922,-294.723 497.774,-220.424 494.954,-185.729"/>
</g>
<!-- ActiveRecord::Base&#45;&gt;Result -->
<g id="edge32" class="edge"><title>ActiveRecord::Base&#45;&gt;Result</title>
<path fill="none" stroke="black" d="M813.98,-400.437C843.61,-387.316 879.635,-365.833 898,-334 939.332,-262.358 923.294,-228.428 904,-148 900.851,-134.872 894.018,-121.343 887.892,-110.988"/>
</g>
<!-- ActiveRecord::Base&#45;&gt;Section -->
<g id="edge40" class="edge"><title>ActiveRecord::Base&#45;&gt;Section</title>
<path fill="none" stroke="black" d="M751.912,-398.587C732.04,-374.54 695.772,-331.342 663,-296 650.972,-283.029 636.852,-268.931 625.93,-258.256"/>
</g>
<!-- ActiveRecord::Base&#45;&gt;User -->
<g id="edge46" class="edge"><title>ActiveRecord::Base&#45;&gt;User</title>
<path fill="none" stroke="black" d="M772.686,-398.292C778.279,-379.888 786.769,-351.953 792.35,-333.59"/>
</g>
<!-- ActiveRecord::Base&#45;&gt;Video -->
<g id="edge48" class="edge"><title>ActiveRecord::Base&#45;&gt;Video</title>
<path fill="none" stroke="black" d="M790.688,-398.785C808.306,-383.631 830.964,-360.338 841,-334 859.524,-285.389 846.624,-255.706 807,-222 782.633,-201.272 695.497,-182.71 644.972,-173.371"/>
</g>
</g>
</svg>
