<?xml version="1.0" encoding="UTF-8" standalone="no"?>
<!DOCTYPE svg PUBLIC "-//W3C//DTD SVG 1.1//EN"
 "http://www.w3.org/Graphics/SVG/1.1/DTD/svg11.dtd">
<!-- Generated by graphviz version 2.26.3 (20100126.1600)
 -->
<!-- Title: models_diagram Pages: 1 -->
<svg width="1326pt" height="1398pt"
 viewBox="0.00 0.00 1325.94 1398.00" xmlns="http://www.w3.org/2000/svg" xmlns:xlink="http://www.w3.org/1999/xlink">
<g id="graph1" class="graph" transform="scale(1 1) rotate(0) translate(4 1394)">
<title>models_diagram</title>
<polygon fill="white" stroke="white" points="-4,5 -4,-1394 1322.94,-1394 1322.94,5 -4,5"/>
<!-- _diagram_info -->
<g id="node1" class="node"><title>_diagram_info</title>
<text text-anchor="start" x="8" y="-1373.8" font-family="Times Roman,serif" font-size="13.00">Models diagram</text>
<text text-anchor="start" x="8" y="-1356.8" font-family="Times Roman,serif" font-size="13.00">Date: Dec 20 2013 &#45; 05:00</text>
<text text-anchor="start" x="8" y="-1339.8" font-family="Times Roman,serif" font-size="13.00">Migration version: 20131219191749</text>
<text text-anchor="start" x="8" y="-1322.8" font-family="Times Roman,serif" font-size="13.00">Generated by RailRoady 1.1.1</text>
<text text-anchor="start" x="8" y="-1305.8" font-family="Times Roman,serif" font-size="13.00">http://railroady.prestonlee.com</text>
</g>
<!-- Ability -->
<g id="node2" class="node"><title>Ability</title>
<polygon fill="none" stroke="black" points="238,-1036 238,-1088 298,-1088 298,-1036 238,-1036"/>
<text text-anchor="middle" x="268" y="-1071.4" font-family="Times Roman,serif" font-size="14.00">Ability</text>
<polyline fill="none" stroke="black" points="238,-1062 298,-1062 "/>
<text text-anchor="middle" x="268" y="-1045.4" font-family="Times Roman,serif" font-size="14.00"> </text>
</g>
<!-- Answer -->
<g id="node3" class="node"><title>Answer</title>
<polyline fill="none" stroke="black" points="394.5,-28 535.5,-28 "/>
<path fill="none" stroke="black" d="M535.5,-28C541.5,-28 547.5,-34 547.5,-40"/>
<polyline fill="none" stroke="black" points="547.5,-40 547.5,-158 "/>
<path fill="none" stroke="black" d="M547.5,-158C547.5,-164 541.5,-170 535.5,-170"/>
<polyline fill="none" stroke="black" points="535.5,-170 394.5,-170 "/>
<path fill="none" stroke="black" d="M394.5,-170C388.5,-170 382.5,-164 382.5,-158"/>
<polyline fill="none" stroke="black" points="382.5,-158 382.5,-40 "/>
<path fill="none" stroke="black" d="M382.5,-40C382.5,-34 388.5,-28 394.5,-28"/>
<text text-anchor="middle" x="465" y="-153.4" font-family="Times Roman,serif" font-size="14.00">Answer</text>
<polyline fill="none" stroke="black" points="382.5,-144 547.5,-144 "/>
<text text-anchor="start" x="390.5" y="-127.4" font-family="Times Roman,serif" font-size="14.00">id :integer</text>
<text text-anchor="start" x="390.5" y="-109.4" font-family="Times Roman,serif" font-size="14.00">content :string</text>
<text text-anchor="start" x="390.5" y="-91.4" font-family="Times Roman,serif" font-size="14.00">question_id :integer</text>
<text text-anchor="start" x="390.5" y="-73.4" font-family="Times Roman,serif" font-size="14.00">created_at :datetime</text>
<text text-anchor="start" x="390.5" y="-55.4" font-family="Times Roman,serif" font-size="14.00">updated_at :datetime</text>
<text text-anchor="start" x="390.5" y="-37.4" font-family="Times Roman,serif" font-size="14.00">correct :boolean</text>
</g>
<!-- Attempt -->
<g id="node4" class="node"><title>Attempt</title>
<polyline fill="none" stroke="black" points="1087.5,-397 1228.5,-397 "/>
<path fill="none" stroke="black" d="M1228.5,-397C1234.5,-397 1240.5,-403 1240.5,-409"/>
<polyline fill="none" stroke="black" points="1240.5,-409 1240.5,-581 "/>
<path fill="none" stroke="black" d="M1240.5,-581C1240.5,-587 1234.5,-593 1228.5,-593"/>
<polyline fill="none" stroke="black" points="1228.5,-593 1087.5,-593 "/>
<path fill="none" stroke="black" d="M1087.5,-593C1081.5,-593 1075.5,-587 1075.5,-581"/>
<polyline fill="none" stroke="black" points="1075.5,-581 1075.5,-409 "/>
<path fill="none" stroke="black" d="M1075.5,-409C1075.5,-403 1081.5,-397 1087.5,-397"/>
<text text-anchor="middle" x="1158" y="-576.4" font-family="Times Roman,serif" font-size="14.00">Attempt</text>
<polyline fill="none" stroke="black" points="1075.5,-567 1240.5,-567 "/>
<text text-anchor="start" x="1083.5" y="-550.4" font-family="Times Roman,serif" font-size="14.00">id :integer</text>
<text text-anchor="start" x="1083.5" y="-532.4" font-family="Times Roman,serif" font-size="14.00">user_id :integer</text>
<text text-anchor="start" x="1083.5" y="-514.4" font-family="Times Roman,serif" font-size="14.00">section_id :integer</text>
<text text-anchor="start" x="1083.5" y="-496.4" font-family="Times Roman,serif" font-size="14.00">status :string</text>
<text text-anchor="start" x="1083.5" y="-478.4" font-family="Times Roman,serif" font-size="14.00">start_time :datetime</text>
<text text-anchor="start" x="1083.5" y="-460.4" font-family="Times Roman,serif" font-size="14.00">end_time :datetime</text>
<text text-anchor="start" x="1083.5" y="-442.4" font-family="Times Roman,serif" font-size="14.00">created_at :datetime</text>
<text text-anchor="start" x="1083.5" y="-424.4" font-family="Times Roman,serif" font-size="14.00">updated_at :datetime</text>
<text text-anchor="start" x="1083.5" y="-406.4" font-family="Times Roman,serif" font-size="14.00">passed :boolean</text>
</g>
<!-- Result -->
<g id="node11" class="node"><title>Result</title>
<polyline fill="none" stroke="black" points="1069.5,-1 1246.5,-1 "/>
<path fill="none" stroke="black" d="M1246.5,-1C1252.5,-1 1258.5,-7 1258.5,-13"/>
<polyline fill="none" stroke="black" points="1258.5,-13 1258.5,-185 "/>
<path fill="none" stroke="black" d="M1258.5,-185C1258.5,-191 1252.5,-197 1246.5,-197"/>
<polyline fill="none" stroke="black" points="1246.5,-197 1069.5,-197 "/>
<path fill="none" stroke="black" d="M1069.5,-197C1063.5,-197 1057.5,-191 1057.5,-185"/>
<polyline fill="none" stroke="black" points="1057.5,-185 1057.5,-13 "/>
<path fill="none" stroke="black" d="M1057.5,-13C1057.5,-7 1063.5,-1 1069.5,-1"/>
<text text-anchor="middle" x="1158" y="-180.4" font-family="Times Roman,serif" font-size="14.00">Result</text>
<polyline fill="none" stroke="black" points="1057.5,-171 1258.5,-171 "/>
<text text-anchor="start" x="1065.5" y="-154.4" font-family="Times Roman,serif" font-size="14.00">id :integer</text>
<text text-anchor="start" x="1065.5" y="-136.4" font-family="Times Roman,serif" font-size="14.00">attempt_id :integer</text>
<text text-anchor="start" x="1065.5" y="-118.4" font-family="Times Roman,serif" font-size="14.00">created_at :datetime</text>
<text text-anchor="start" x="1065.5" y="-100.4" font-family="Times Roman,serif" font-size="14.00">updated_at :datetime</text>
<text text-anchor="start" x="1065.5" y="-82.4" font-family="Times Roman,serif" font-size="14.00">question_id :integer</text>
<text text-anchor="start" x="1065.5" y="-64.4" font-family="Times Roman,serif" font-size="14.00">correct_answer_id :integer</text>
<text text-anchor="start" x="1065.5" y="-46.4" font-family="Times Roman,serif" font-size="14.00">answer_id :integer</text>
<text text-anchor="start" x="1065.5" y="-28.4" font-family="Times Roman,serif" font-size="14.00">next_question :integer</text>
<text text-anchor="start" x="1065.5" y="-10.4" font-family="Times Roman,serif" font-size="14.00">prev_question :integer</text>
</g>
<!-- Attempt&#45;&gt;Result -->
<g id="edge6" class="edge"><title>Attempt&#45;&gt;Result</title>
<path fill="none" stroke="#50ee6d" d="M1158,-388.547C1158,-332.331 1158,-263.491 1158,-207.041"/>
<ellipse fill="none" stroke="#50ee6d" cx="1158" cy="-392.858" rx="4" ry="4"/>
<polygon fill="#50ee6d" stroke="#50ee6d" points="1158,-207.012 1162.5,-197.012 1158,-202.012 1158,-197.012 1158,-197.012 1158,-197.012 1158,-202.012 1153.5,-197.012 1158,-207.012 1158,-207.012"/>
</g>
<!-- Certificate -->
<g id="node5" class="node"><title>Certificate</title>
<polyline fill="none" stroke="black" points="973.5,-631 1114.5,-631 "/>
<path fill="none" stroke="black" d="M1114.5,-631C1120.5,-631 1126.5,-637 1126.5,-643"/>
<polyline fill="none" stroke="black" points="1126.5,-643 1126.5,-815 "/>
<path fill="none" stroke="black" d="M1126.5,-815C1126.5,-821 1120.5,-827 1114.5,-827"/>
<polyline fill="none" stroke="black" points="1114.5,-827 973.5,-827 "/>
<path fill="none" stroke="black" d="M973.5,-827C967.5,-827 961.5,-821 961.5,-815"/>
<polyline fill="none" stroke="black" points="961.5,-815 961.5,-643 "/>
<path fill="none" stroke="black" d="M961.5,-643C961.5,-637 967.5,-631 973.5,-631"/>
<text text-anchor="middle" x="1044" y="-810.4" font-family="Times Roman,serif" font-size="14.00">Certificate</text>
<polyline fill="none" stroke="black" points="961.5,-801 1126.5,-801 "/>
<text text-anchor="start" x="969.5" y="-784.4" font-family="Times Roman,serif" font-size="14.00">id :integer</text>
<text text-anchor="start" x="969.5" y="-766.4" font-family="Times Roman,serif" font-size="14.00">course_id :integer</text>
<text text-anchor="start" x="969.5" y="-748.4" font-family="Times Roman,serif" font-size="14.00">user_id :integer</text>
<text text-anchor="start" x="969.5" y="-730.4" font-family="Times Roman,serif" font-size="14.00">purchase_date :date</text>
<text text-anchor="start" x="969.5" y="-712.4" font-family="Times Roman,serif" font-size="14.00">purchase_price :float</text>
<text text-anchor="start" x="969.5" y="-694.4" font-family="Times Roman,serif" font-size="14.00">slug :string</text>
<text text-anchor="start" x="969.5" y="-676.4" font-family="Times Roman,serif" font-size="14.00">created_at :datetime</text>
<text text-anchor="start" x="969.5" y="-658.4" font-family="Times Roman,serif" font-size="14.00">updated_at :datetime</text>
<text text-anchor="start" x="969.5" y="-640.4" font-family="Times Roman,serif" font-size="14.00">ceu_id :integer</text>
</g>
<!-- Ceu -->
<g id="node6" class="node"><title>Ceu</title>
<polyline fill="none" stroke="black" points="533.5,-649 674.5,-649 "/>
<path fill="none" stroke="black" d="M674.5,-649C680.5,-649 686.5,-655 686.5,-661"/>
<polyline fill="none" stroke="black" points="686.5,-661 686.5,-797 "/>
<path fill="none" stroke="black" d="M686.5,-797C686.5,-803 680.5,-809 674.5,-809"/>
<polyline fill="none" stroke="black" points="674.5,-809 533.5,-809 "/>
<path fill="none" stroke="black" d="M533.5,-809C527.5,-809 521.5,-803 521.5,-797"/>
<polyline fill="none" stroke="black" points="521.5,-797 521.5,-661 "/>
<path fill="none" stroke="black" d="M521.5,-661C521.5,-655 527.5,-649 533.5,-649"/>
<text text-anchor="middle" x="604" y="-792.4" font-family="Times Roman,serif" font-size="14.00">Ceu</text>
<polyline fill="none" stroke="black" points="521.5,-783 686.5,-783 "/>
<text text-anchor="start" x="529.5" y="-766.4" font-family="Times Roman,serif" font-size="14.00">id :integer</text>
<text text-anchor="start" x="529.5" y="-748.4" font-family="Times Roman,serif" font-size="14.00">course_id :integer</text>
<text text-anchor="start" x="529.5" y="-730.4" font-family="Times Roman,serif" font-size="14.00">organization :string</text>
<text text-anchor="start" x="529.5" y="-712.4" font-family="Times Roman,serif" font-size="14.00">name :text</text>
<text text-anchor="start" x="529.5" y="-694.4" font-family="Times Roman,serif" font-size="14.00">credit :float</text>
<text text-anchor="start" x="529.5" y="-676.4" font-family="Times Roman,serif" font-size="14.00">created_at :datetime</text>
<text text-anchor="start" x="529.5" y="-658.4" font-family="Times Roman,serif" font-size="14.00">updated_at :datetime</text>
</g>
<!-- Course -->
<g id="node7" class="node"><title>Course</title>
<polyline fill="none" stroke="black" points="681.5,-955 822.5,-955 "/>
<path fill="none" stroke="black" d="M822.5,-955C828.5,-955 834.5,-961 834.5,-967"/>
<polyline fill="none" stroke="black" points="834.5,-967 834.5,-1157 "/>
<path fill="none" stroke="black" d="M834.5,-1157C834.5,-1163 828.5,-1169 822.5,-1169"/>
<polyline fill="none" stroke="black" points="822.5,-1169 681.5,-1169 "/>
<path fill="none" stroke="black" d="M681.5,-1169C675.5,-1169 669.5,-1163 669.5,-1157"/>
<polyline fill="none" stroke="black" points="669.5,-1157 669.5,-967 "/>
<path fill="none" stroke="black" d="M669.5,-967C669.5,-961 675.5,-955 681.5,-955"/>
<text text-anchor="middle" x="752" y="-1152.4" font-family="Times Roman,serif" font-size="14.00">Course</text>
<polyline fill="none" stroke="black" points="669.5,-1143 834.5,-1143 "/>
<text text-anchor="start" x="677.5" y="-1126.4" font-family="Times Roman,serif" font-size="14.00">id :integer</text>
<text text-anchor="start" x="677.5" y="-1108.4" font-family="Times Roman,serif" font-size="14.00">name :string</text>
<text text-anchor="start" x="677.5" y="-1090.4" font-family="Times Roman,serif" font-size="14.00">description :text</text>
<text text-anchor="start" x="677.5" y="-1072.4" font-family="Times Roman,serif" font-size="14.00">price :decimal</text>
<text text-anchor="start" x="677.5" y="-1054.4" font-family="Times Roman,serif" font-size="14.00">slug :string</text>
<text text-anchor="start" x="677.5" y="-1036.4" font-family="Times Roman,serif" font-size="14.00">created_at :datetime</text>
<text text-anchor="start" x="677.5" y="-1018.4" font-family="Times Roman,serif" font-size="14.00">updated_at :datetime</text>
<text text-anchor="start" x="677.5" y="-1000.4" font-family="Times Roman,serif" font-size="14.00">user_id :integer</text>
<text text-anchor="start" x="677.5" y="-982.4" font-family="Times Roman,serif" font-size="14.00">ceu :float</text>
<text text-anchor="start" x="677.5" y="-964.4" font-family="Times Roman,serif" font-size="14.00">released :boolean</text>
</g>
<!-- Course&#45;&gt;Certificate -->
<g id="edge20" class="edge"><title>Course&#45;&gt;Certificate</title>
<path fill="none" stroke="#541106" d="M839.998,-950.184C863.669,-921.491 889.731,-891.093 915,-864 930.868,-846.987 936.674,-844.574 953,-828 953.435,-827.558 953.871,-827.115 954.308,-826.67"/>
<ellipse fill="none" stroke="#541106" cx="837.21" cy="-953.573" rx="4.00002" ry="4.00002"/>
<polygon fill="#541106" stroke="#541106" points="954.455,-826.519 964.657,-822.495 957.944,-822.937 961.433,-819.355 961.433,-819.355 961.433,-819.355 957.944,-822.937 958.21,-816.215 954.455,-826.519 954.455,-826.519"/>
</g>
<!-- Course&#45;&gt;Ceu -->
<g id="edge22" class="edge"><title>Course&#45;&gt;Ceu</title>
<path fill="none" stroke="#2f85ed" d="M701.002,-947.255C682.268,-905.102 661.349,-858.034 643.747,-818.431"/>
<ellipse fill="none" stroke="#2f85ed" cx="702.733" cy="-951.148" rx="4.00002" ry="4.00002"/>
<polygon fill="#2f85ed" stroke="#2f85ed" points="643.642,-818.194 643.693,-807.229 641.611,-813.625 639.581,-809.056 639.581,-809.056 639.581,-809.056 641.611,-813.625 635.468,-810.884 643.642,-818.194 643.642,-818.194"/>
</g>
<!-- Quiz -->
<g id="node10" class="node"><title>Quiz</title>
<polyline fill="none" stroke="black" points="512.5,-415 733.5,-415 "/>
<path fill="none" stroke="black" d="M733.5,-415C739.5,-415 745.5,-421 745.5,-427"/>
<polyline fill="none" stroke="black" points="745.5,-427 745.5,-563 "/>
<path fill="none" stroke="black" d="M745.5,-563C745.5,-569 739.5,-575 733.5,-575"/>
<polyline fill="none" stroke="black" points="733.5,-575 512.5,-575 "/>
<path fill="none" stroke="black" d="M512.5,-575C506.5,-575 500.5,-569 500.5,-563"/>
<polyline fill="none" stroke="black" points="500.5,-563 500.5,-427 "/>
<path fill="none" stroke="black" d="M500.5,-427C500.5,-421 506.5,-415 512.5,-415"/>
<text text-anchor="middle" x="623" y="-558.4" font-family="Times Roman,serif" font-size="14.00">Quiz</text>
<polyline fill="none" stroke="black" points="500.5,-549 745.5,-549 "/>
<text text-anchor="start" x="508.5" y="-532.4" font-family="Times Roman,serif" font-size="14.00">id :integer</text>
<text text-anchor="start" x="508.5" y="-514.4" font-family="Times Roman,serif" font-size="14.00">name :string</text>
<text text-anchor="start" x="508.5" y="-496.4" font-family="Times Roman,serif" font-size="14.00">description :text</text>
<text text-anchor="start" x="508.5" y="-478.4" font-family="Times Roman,serif" font-size="14.00">created_at :datetime</text>
<text text-anchor="start" x="508.5" y="-460.4" font-family="Times Roman,serif" font-size="14.00">updated_at :datetime</text>
<text text-anchor="start" x="508.5" y="-442.4" font-family="Times Roman,serif" font-size="14.00">num_questions_to_show :integer</text>
<text text-anchor="start" x="508.5" y="-424.4" font-family="Times Roman,serif" font-size="14.00">passing_score :integer</text>
</g>
<!-- Course&#45;&gt;Quiz -->
<g id="edge18" class="edge"><title>Course&#45;&gt;Quiz</title>
<path fill="none" stroke="#924ae6" d="M741.248,-944.383C730.568,-837.02 713.197,-686.696 695,-630 690.093,-614.71 683.488,-599.114 676.261,-584.208"/>
<polygon fill="#924ae6" stroke="#924ae6" points="741.278,-944.683 737.782,-955.077 741.769,-949.659 742.261,-954.634 742.261,-954.634 742.261,-954.634 741.769,-949.659 746.739,-954.192 741.278,-944.683 741.278,-944.683"/>
<polygon fill="#924ae6" stroke="#924ae6" points="676.147,-583.977 675.719,-573.019 673.919,-579.501 671.691,-575.025 671.691,-575.025 671.691,-575.025 673.919,-579.501 667.662,-577.03 676.147,-583.977 676.147,-583.977"/>
</g>
<!-- Section -->
<g id="node12" class="node"><title>Section</title>
<polyline fill="none" stroke="black" points="791.5,-649 932.5,-649 "/>
<path fill="none" stroke="black" d="M932.5,-649C938.5,-649 944.5,-655 944.5,-661"/>
<polyline fill="none" stroke="black" points="944.5,-661 944.5,-797 "/>
<path fill="none" stroke="black" d="M944.5,-797C944.5,-803 938.5,-809 932.5,-809"/>
<polyline fill="none" stroke="black" points="932.5,-809 791.5,-809 "/>
<path fill="none" stroke="black" d="M791.5,-809C785.5,-809 779.5,-803 779.5,-797"/>
<polyline fill="none" stroke="black" points="779.5,-797 779.5,-661 "/>
<path fill="none" stroke="black" d="M779.5,-661C779.5,-655 785.5,-649 791.5,-649"/>
<text text-anchor="middle" x="862" y="-792.4" font-family="Times Roman,serif" font-size="14.00">Section</text>
<polyline fill="none" stroke="black" points="779.5,-783 944.5,-783 "/>
<text text-anchor="start" x="787.5" y="-766.4" font-family="Times Roman,serif" font-size="14.00">id :integer</text>
<text text-anchor="start" x="787.5" y="-748.4" font-family="Times Roman,serif" font-size="14.00">sequence :integer</text>
<text text-anchor="start" x="787.5" y="-730.4" font-family="Times Roman,serif" font-size="14.00">course_id :integer</text>
<text text-anchor="start" x="787.5" y="-712.4" font-family="Times Roman,serif" font-size="14.00">video_id :integer</text>
<text text-anchor="start" x="787.5" y="-694.4" font-family="Times Roman,serif" font-size="14.00">quiz_id :integer</text>
<text text-anchor="start" x="787.5" y="-676.4" font-family="Times Roman,serif" font-size="14.00">created_at :datetime</text>
<text text-anchor="start" x="787.5" y="-658.4" font-family="Times Roman,serif" font-size="14.00">updated_at :datetime</text>
</g>
<!-- Course&#45;&gt;Section -->
<g id="edge14" class="edge"><title>Course&#45;&gt;Section</title>
<path fill="none" stroke="#b29399" d="M789.997,-946.974C803.841,-905.063 819.279,-858.327 832.299,-818.912"/>
<ellipse fill="none" stroke="#b29399" cx="788.665" cy="-951.006" rx="4.00001" ry="4.00001"/>
<polygon fill="#b29399" stroke="#b29399" points="832.418,-818.552 839.828,-810.468 833.987,-813.804 835.555,-809.056 835.555,-809.056 835.555,-809.056 833.987,-813.804 831.282,-807.645 832.418,-818.552 832.418,-818.552"/>
</g>
<!-- Video -->
<g id="node14" class="node"><title>Video</title>
<polyline fill="none" stroke="black" points="791.5,-397 932.5,-397 "/>
<path fill="none" stroke="black" d="M932.5,-397C938.5,-397 944.5,-403 944.5,-409"/>
<polyline fill="none" stroke="black" points="944.5,-409 944.5,-581 "/>
<path fill="none" stroke="black" d="M944.5,-581C944.5,-587 938.5,-593 932.5,-593"/>
<polyline fill="none" stroke="black" points="932.5,-593 791.5,-593 "/>
<path fill="none" stroke="black" d="M791.5,-593C785.5,-593 779.5,-587 779.5,-581"/>
<polyline fill="none" stroke="black" points="779.5,-581 779.5,-409 "/>
<path fill="none" stroke="black" d="M779.5,-409C779.5,-403 785.5,-397 791.5,-397"/>
<text text-anchor="middle" x="862" y="-576.4" font-family="Times Roman,serif" font-size="14.00">Video</text>
<polyline fill="none" stroke="black" points="779.5,-567 944.5,-567 "/>
<text text-anchor="start" x="787.5" y="-550.4" font-family="Times Roman,serif" font-size="14.00">id :integer</text>
<text text-anchor="start" x="787.5" y="-532.4" font-family="Times Roman,serif" font-size="14.00">name :string</text>
<text text-anchor="start" x="787.5" y="-514.4" font-family="Times Roman,serif" font-size="14.00">description :text</text>
<text text-anchor="start" x="787.5" y="-496.4" font-family="Times Roman,serif" font-size="14.00">length :float</text>
<text text-anchor="start" x="787.5" y="-478.4" font-family="Times Roman,serif" font-size="14.00">presenter :string</text>
<text text-anchor="start" x="787.5" y="-460.4" font-family="Times Roman,serif" font-size="14.00">url :string</text>
<text text-anchor="start" x="787.5" y="-442.4" font-family="Times Roman,serif" font-size="14.00">created_at :datetime</text>
<text text-anchor="start" x="787.5" y="-424.4" font-family="Times Roman,serif" font-size="14.00">updated_at :datetime</text>
<text text-anchor="start" x="787.5" y="-406.4" font-family="Times Roman,serif" font-size="14.00">slug :string</text>
</g>
<!-- Course&#45;&gt;Video -->
<g id="edge16" class="edge"><title>Course&#45;&gt;Video</title>
<path fill="none" stroke="#a2a518" d="M740.258,-944.708C735.372,-856.024 737.212,-732.461 771,-630 774.087,-620.638 778.022,-611.322 782.516,-602.212"/>
<polygon fill="#a2a518" stroke="#a2a518" points="740.265,-944.82 736.359,-955.067 740.558,-949.812 740.852,-954.803 740.852,-954.803 740.852,-954.803 740.558,-949.812 745.344,-954.539 740.265,-944.82 740.265,-944.82"/>
<polygon fill="#a2a518" stroke="#a2a518" points="782.594,-602.061 791.184,-595.244 784.89,-597.619 787.186,-593.178 787.186,-593.178 787.186,-593.178 784.89,-597.619 783.189,-591.111 782.594,-602.061 782.594,-602.061"/>
</g>
<!-- Message -->
<g id="node8" class="node"><title>Message</title>
<polygon fill="none" stroke="black" points="315.5,-1036 315.5,-1088 390.5,-1088 390.5,-1036 315.5,-1036"/>
<text text-anchor="middle" x="353" y="-1071.4" font-family="Times Roman,serif" font-size="14.00">Message</text>
<polyline fill="none" stroke="black" points="315.5,-1062 390.5,-1062 "/>
<text text-anchor="middle" x="353" y="-1045.4" font-family="Times Roman,serif" font-size="14.00"> </text>
</g>
<!-- Question -->
<g id="node9" class="node"><title>Question</title>
<polyline fill="none" stroke="black" points="505.5,-235 646.5,-235 "/>
<path fill="none" stroke="black" d="M646.5,-235C652.5,-235 658.5,-241 658.5,-247"/>
<polyline fill="none" stroke="black" points="658.5,-247 658.5,-347 "/>
<path fill="none" stroke="black" d="M658.5,-347C658.5,-353 652.5,-359 646.5,-359"/>
<polyline fill="none" stroke="black" points="646.5,-359 505.5,-359 "/>
<path fill="none" stroke="black" d="M505.5,-359C499.5,-359 493.5,-353 493.5,-347"/>
<polyline fill="none" stroke="black" points="493.5,-347 493.5,-247 "/>
<path fill="none" stroke="black" d="M493.5,-247C493.5,-241 499.5,-235 505.5,-235"/>
<text text-anchor="middle" x="576" y="-342.4" font-family="Times Roman,serif" font-size="14.00">Question</text>
<polyline fill="none" stroke="black" points="493.5,-333 658.5,-333 "/>
<text text-anchor="start" x="501.5" y="-316.4" font-family="Times Roman,serif" font-size="14.00">id :integer</text>
<text text-anchor="start" x="501.5" y="-298.4" font-family="Times Roman,serif" font-size="14.00">content :text</text>
<text text-anchor="start" x="501.5" y="-280.4" font-family="Times Roman,serif" font-size="14.00">quiz_id :integer</text>
<text text-anchor="start" x="501.5" y="-262.4" font-family="Times Roman,serif" font-size="14.00">created_at :datetime</text>
<text text-anchor="start" x="501.5" y="-244.4" font-family="Times Roman,serif" font-size="14.00">updated_at :datetime</text>
</g>
<!-- Question&#45;&gt;Answer -->
<g id="edge28" class="edge"><title>Question&#45;&gt;Answer</title>
<path fill="none" stroke="#4ab59d" d="M537.085,-227.583C528.296,-211.906 518.896,-195.138 509.884,-179.063"/>
<ellipse fill="none" stroke="#4ab59d" cx="539.227" cy="-231.406" rx="4.00002" ry="4.00002"/>
<polygon fill="#4ab59d" stroke="#4ab59d" points="509.814,-178.938 508.849,-168.014 507.369,-174.576 504.923,-170.215 504.923,-170.215 504.923,-170.215 507.369,-174.576 500.998,-172.415 509.814,-178.938 509.814,-178.938"/>
</g>
<!-- Question&#45;&gt;Result -->
<g id="edge30" class="edge"><title>Question&#45;&gt;Result</title>
<path fill="none" stroke="#fd6c2d" d="M666.591,-266.181C769.536,-231.158 937.545,-174 1047.95,-136.441"/>
<ellipse fill="none" stroke="#fd6c2d" cx="662.555" cy="-267.553" rx="4.00001" ry="4.00001"/>
<polygon fill="#fd6c2d" stroke="#fd6c2d" points="1047.98,-136.429 1058.9,-137.468 1052.72,-134.818 1057.45,-133.208 1057.45,-133.208 1057.45,-133.208 1052.72,-134.818 1056,-128.948 1047.98,-136.429 1047.98,-136.429"/>
</g>
<!-- Quiz&#45;&gt;Question -->
<g id="edge34" class="edge"><title>Quiz&#45;&gt;Question</title>
<path fill="none" stroke="#a27013" d="M602.083,-406.881C599.065,-394.168 595.99,-381.214 593.06,-368.869"/>
<ellipse fill="none" stroke="#a27013" cx="603.027" cy="-410.859" rx="4.00001" ry="4.00001"/>
<polygon fill="#a27013" stroke="#a27013" points="593.054,-368.845 595.123,-358.076 591.899,-363.98 590.745,-359.115 590.745,-359.115 590.745,-359.115 591.899,-363.98 586.366,-360.155 593.054,-368.845 593.054,-368.845"/>
</g>
<!-- Section&#45;&gt;Attempt -->
<g id="edge44" class="edge"><title>Section&#45;&gt;Attempt</title>
<path fill="none" stroke="#47e78d" d="M938.429,-643.086C943.248,-638.544 948.124,-634.148 953,-630 988.007,-600.219 1029.9,-571.569 1066.67,-548.384"/>
<ellipse fill="none" stroke="#47e78d" cx="935.246" cy="-646.14" rx="4.00002" ry="4.00002"/>
<polygon fill="#47e78d" stroke="#47e78d" points="1066.93,-548.221 1077.8,-546.73 1071.17,-545.568 1075.41,-542.915 1075.41,-542.915 1075.41,-542.915 1071.17,-545.568 1073.02,-539.101 1066.93,-548.221 1066.93,-548.221"/>
</g>
<!-- Section&#45;&gt;Quiz -->
<g id="edge42" class="edge"><title>Section&#45;&gt;Quiz</title>
<path fill="none" stroke="#0c8a02" d="M774.343,-643.177C753.567,-622.835 731.405,-601.137 710.629,-580.796"/>
<ellipse fill="none" stroke="#0c8a02" cx="777.226" cy="-645.999" rx="4.00002" ry="4.00002"/>
<ellipse fill="#0c8a02" stroke="#0c8a02" cx="707.667" cy="-577.896" rx="4.00002" ry="4.00002"/>
</g>
<!-- Section&#45;&gt;Video -->
<g id="edge40" class="edge"><title>Section&#45;&gt;Video</title>
<path fill="none" stroke="#1720a6" d="M862,-640.766C862,-627.934 862,-614.61 862,-601.464"/>
<ellipse fill="none" stroke="#1720a6" cx="862" cy="-644.798" rx="4" ry="4"/>
<ellipse fill="#1720a6" stroke="#1720a6" cx="862" cy="-597.308" rx="4" ry="4"/>
</g>
<!-- User -->
<g id="node13" class="node"><title>User</title>
<polyline fill="none" stroke="black" points="1035.5,-865 1190.5,-865 "/>
<path fill="none" stroke="black" d="M1190.5,-865C1196.5,-865 1202.5,-871 1202.5,-877"/>
<polyline fill="none" stroke="black" points="1202.5,-877 1202.5,-1247 "/>
<path fill="none" stroke="black" d="M1202.5,-1247C1202.5,-1253 1196.5,-1259 1190.5,-1259"/>
<polyline fill="none" stroke="black" points="1190.5,-1259 1035.5,-1259 "/>
<path fill="none" stroke="black" d="M1035.5,-1259C1029.5,-1259 1023.5,-1253 1023.5,-1247"/>
<polyline fill="none" stroke="black" points="1023.5,-1247 1023.5,-877 "/>
<path fill="none" stroke="black" d="M1023.5,-877C1023.5,-871 1029.5,-865 1035.5,-865"/>
<text text-anchor="middle" x="1113" y="-1242.4" font-family="Times Roman,serif" font-size="14.00">User</text>
<polyline fill="none" stroke="black" points="1023.5,-1233 1202.5,-1233 "/>
<text text-anchor="start" x="1031.5" y="-1216.4" font-family="Times Roman,serif" font-size="14.00">id :integer</text>
<text text-anchor="start" x="1031.5" y="-1198.4" font-family="Times Roman,serif" font-size="14.00">last_name :string</text>
<text text-anchor="start" x="1031.5" y="-1180.4" font-family="Times Roman,serif" font-size="14.00">password_digest :string</text>
<text text-anchor="start" x="1031.5" y="-1162.4" font-family="Times Roman,serif" font-size="14.00">email :string</text>
<text text-anchor="start" x="1031.5" y="-1144.4" font-family="Times Roman,serif" font-size="14.00">account :string</text>
<text text-anchor="start" x="1031.5" y="-1126.4" font-family="Times Roman,serif" font-size="14.00">slug :string</text>
<text text-anchor="start" x="1031.5" y="-1108.4" font-family="Times Roman,serif" font-size="14.00">confirmed_at :date</text>
<text text-anchor="start" x="1031.5" y="-1090.4" font-family="Times Roman,serif" font-size="14.00">created_at :datetime</text>
<text text-anchor="start" x="1031.5" y="-1072.4" font-family="Times Roman,serif" font-size="14.00">updated_at :datetime</text>
<text text-anchor="start" x="1031.5" y="-1054.4" font-family="Times Roman,serif" font-size="14.00">token :string</text>
<text text-anchor="start" x="1031.5" y="-1036.4" font-family="Times Roman,serif" font-size="14.00">first_name :string</text>
<text text-anchor="start" x="1031.5" y="-1018.4" font-family="Times Roman,serif" font-size="14.00">title :string</text>
<text text-anchor="start" x="1031.5" y="-1000.4" font-family="Times Roman,serif" font-size="14.00">company :string</text>
<text text-anchor="start" x="1031.5" y="-982.4" font-family="Times Roman,serif" font-size="14.00">address1 :string</text>
<text text-anchor="start" x="1031.5" y="-964.4" font-family="Times Roman,serif" font-size="14.00">address2 :string</text>
<text text-anchor="start" x="1031.5" y="-946.4" font-family="Times Roman,serif" font-size="14.00">city :string</text>
<text text-anchor="start" x="1031.5" y="-928.4" font-family="Times Roman,serif" font-size="14.00">state :string</text>
<text text-anchor="start" x="1031.5" y="-910.4" font-family="Times Roman,serif" font-size="14.00">postal_code :string</text>
<text text-anchor="start" x="1031.5" y="-892.4" font-family="Times Roman,serif" font-size="14.00">country :string</text>
<text text-anchor="start" x="1031.5" y="-874.4" font-family="Times Roman,serif" font-size="14.00">phone :string</text>
</g>
<!-- User&#45;&gt;Attempt -->
<g id="edge50" class="edge"><title>User&#45;&gt;Attempt</title>
<path fill="none" stroke="#8ae3e7" d="M1164.07,-856.583C1165.58,-846.954 1166.91,-837.392 1168,-828 1178.13,-740.586 1171.25,-717.94 1168,-630 1167.68,-621.297 1167.24,-612.286 1166.73,-603.237"/>
<ellipse fill="none" stroke="#8ae3e7" cx="1163.4" cy="-860.737" rx="4.00001" ry="4.00001"/>
<polygon fill="#8ae3e7" stroke="#8ae3e7" points="1166.71,-603.001 1170.61,-592.751 1166.41,-598.01 1166.12,-593.019 1166.12,-593.019 1166.12,-593.019 1166.41,-598.01 1161.62,-593.287 1166.71,-603.001 1166.71,-603.001"/>
</g>
<!-- User&#45;&gt;Certificate -->
<g id="edge48" class="edge"><title>User&#45;&gt;Certificate</title>
<path fill="none" stroke="#1fc7b1" d="M1070.54,-857.085C1069.15,-850.39 1067.78,-843.782 1066.44,-837.309"/>
<ellipse fill="none" stroke="#1fc7b1" cx="1071.35" cy="-861.007" rx="4.00001" ry="4.00001"/>
<polygon fill="#1fc7b1" stroke="#1fc7b1" points="1066.39,-837.046 1068.77,-826.341 1065.37,-832.15 1064.36,-827.254 1064.36,-827.254 1064.36,-827.254 1065.37,-832.15 1059.95,-828.167 1066.39,-837.046 1066.39,-837.046"/>
</g>
<!-- Object -->
<g id="node15" class="node"><title>Object</title>
<ellipse fill="none" stroke="black" cx="311" cy="-1343" rx="43.1335" ry="18.3848"/>
<text text-anchor="middle" x="311" y="-1339.4" font-family="Times Roman,serif" font-size="14.00">Object</text>
</g>
<!-- Object&#45;&gt;Ability -->
<g id="edge2" class="edge"><title>Object&#45;&gt;Ability</title>
<path fill="none" stroke="black" d="M308.112,-1324.13C300.636,-1275.27 280.637,-1144.58 272.03,-1088.34"/>
</g>
<!-- Object&#45;&gt;Message -->
<g id="edge26" class="edge"><title>Object&#45;&gt;Message</title>
<path fill="none" stroke="black" d="M313.821,-1324.13C321.123,-1275.27 340.657,-1144.58 349.063,-1088.34"/>
</g>
<!-- ActiveRecord::Base -->
<g id="node17" class="node"><title>ActiveRecord::Base</title>
<ellipse fill="none" stroke="black" cx="862" cy="-1343" rx="104.151" ry="18.3848"/>
<text text-anchor="middle" x="862" y="-1339.4" font-family="Times Roman,serif" font-size="14.00">ActiveRecord::Base</text>
</g>
<!-- ActiveRecord::Base&#45;&gt;Answer -->
<g id="edge4" class="edge"><title>ActiveRecord::Base&#45;&gt;Answer</title>
<path fill="none" stroke="black" d="M763.415,-1336.9C654.007,-1327.88 487.477,-1306.71 447,-1260 369.613,-1170.69 418,-847.176 418,-729 418,-729 418,-729 418,-495 418,-380.766 437.525,-249.28 451.406,-170.237"/>
</g>
<!-- ActiveRecord::Base&#45;&gt;Attempt -->
<g id="edge8" class="edge"><title>ActiveRecord::Base&#45;&gt;Attempt</title>
<path fill="none" stroke="black" d="M952.98,-1334.02C1045.42,-1322.8 1179.39,-1300.01 1211,-1260 1290.59,-1159.26 1220.17,-776.075 1180.6,-593.227"/>
</g>
<!-- ActiveRecord::Base&#45;&gt;Certificate -->
<g id="edge10" class="edge"><title>ActiveRecord::Base&#45;&gt;Certificate</title>
<path fill="none" stroke="black" d="M865.376,-1324.37C877.381,-1259.6 920.596,-1038.7 982,-864 986.233,-851.956 991.148,-839.522 996.321,-827.299"/>
</g>
<!-- ActiveRecord::Base&#45;&gt;Ceu -->
<g id="edge12" class="edge"><title>ActiveRecord::Base&#45;&gt;Ceu</title>
<path fill="none" stroke="black" d="M783.989,-1330.7C740.818,-1319.67 690.148,-1298.9 661,-1260 561.758,-1127.56 573.2,-921.648 589.223,-809.116"/>
</g>
<!-- ActiveRecord::Base&#45;&gt;Course -->
<g id="edge24" class="edge"><title>ActiveRecord::Base&#45;&gt;Course</title>
<path fill="none" stroke="black" d="M854.612,-1324.13C842.256,-1292.56 816.527,-1226.84 793.925,-1169.1"/>
</g>
<!-- ActiveRecord::Base&#45;&gt;Question -->
<g id="edge32" class="edge"><title>ActiveRecord::Base&#45;&gt;Question</title>
<path fill="none" stroke="black" d="M766.495,-1335.5C666.107,-1325.39 517.944,-1303.42 483,-1260 422.812,-1185.2 457.191,-485.473 492,-396 497.026,-383.081 504.485,-370.655 512.918,-359.232"/>
</g>
<!-- ActiveRecord::Base&#45;&gt;Quiz -->
<g id="edge36" class="edge"><title>ActiveRecord::Base&#45;&gt;Quiz</title>
<path fill="none" stroke="black" d="M785.206,-1330.52C709.629,-1316.6 601.641,-1291.82 574,-1260 481.759,-1153.81 465.848,-762.516 513,-630 519.892,-610.631 530.884,-592.027 543.311,-575.148"/>
</g>
<!-- ActiveRecord::Base&#45;&gt;Result -->
<g id="edge38" class="edge"><title>ActiveRecord::Base&#45;&gt;Result</title>
<path fill="none" stroke="black" d="M956.712,-1335.35C1057.3,-1325.07 1206.73,-1302.91 1243,-1260 1395.51,-1079.55 1268,-965.261 1268,-729 1268,-729 1268,-729 1268,-495 1268,-390.646 1232.1,-276.282 1201.32,-197.403"/>
</g>
<!-- ActiveRecord::Base&#45;&gt;Section -->
<g id="edge46" class="edge"><title>ActiveRecord::Base&#45;&gt;Section</title>
<path fill="none" stroke="black" d="M862,-1324.29C862,-1247.41 862,-953.162 862,-809.23"/>
</g>
<!-- ActiveRecord::Base&#45;&gt;User -->
<g id="edge52" class="edge"><title>ActiveRecord::Base&#45;&gt;User</title>
<path fill="none" stroke="black" d="M906.589,-1326.15C938.536,-1312.29 980.889,-1290.04 1010,-1260 1014.58,-1255.27 1019.01,-1250.29 1023.29,-1245.13"/>
</g>
<!-- ActiveRecord::Base&#45;&gt;Video -->
<g id="edge54" class="edge"><title>ActiveRecord::Base&#45;&gt;Video</title>
<path fill="none" stroke="black" d="M886.868,-1324.74C905.63,-1309.56 930.386,-1286.25 944,-1260 1026.31,-1101.27 895.976,-997.436 1015,-864 1052.06,-822.447 1101.76,-872.673 1135,-828 1161.26,-792.699 1158.21,-667.378 1135,-630 1132.18,-625.459 1023.94,-572.762 944.618,-534.575"/>
</g>
</g>
</svg>
