<?xml version="1.0" encoding="UTF-8" standalone="no"?>
<!DOCTYPE svg PUBLIC "-//W3C//DTD SVG 1.1//EN"
 "http://www.w3.org/Graphics/SVG/1.1/DTD/svg11.dtd">
<!-- Generated by graphviz version 2.26.3 (20100126.1600)
 -->
<!-- Title: models_diagram Pages: 1 -->
<svg width="1174pt" height="1380pt"
 viewBox="0.00 0.00 1173.59 1380.00" xmlns="http://www.w3.org/2000/svg" xmlns:xlink="http://www.w3.org/1999/xlink">
<g id="graph1" class="graph" transform="scale(1 1) rotate(0) translate(4 1376)">
<title>models_diagram</title>
<polygon fill="white" stroke="white" points="-4,5 -4,-1376 1170.59,-1376 1170.59,5 -4,5"/>
<!-- _diagram_info -->
<g id="node1" class="node"><title>_diagram_info</title>
<text text-anchor="start" x="8" y="-1355.8" font-family="Times Roman,serif" font-size="13.00">Models diagram</text>
<text text-anchor="start" x="8" y="-1338.8" font-family="Times Roman,serif" font-size="13.00">Date: Dec 17 2013 &#45; 05:05</text>
<text text-anchor="start" x="8" y="-1321.8" font-family="Times Roman,serif" font-size="13.00">Migration version: 20131216053748</text>
<text text-anchor="start" x="8" y="-1304.8" font-family="Times Roman,serif" font-size="13.00">Generated by RailRoady 1.1.1</text>
<text text-anchor="start" x="8" y="-1287.8" font-family="Times Roman,serif" font-size="13.00">http://railroady.prestonlee.com</text>
</g>
<!-- Ability -->
<g id="node2" class="node"><title>Ability</title>
<polygon fill="none" stroke="black" points="238,-1018 238,-1070 298,-1070 298,-1018 238,-1018"/>
<text text-anchor="middle" x="268" y="-1053.4" font-family="Times Roman,serif" font-size="14.00">Ability</text>
<polyline fill="none" stroke="black" points="238,-1044 298,-1044 "/>
<text text-anchor="middle" x="268" y="-1027.4" font-family="Times Roman,serif" font-size="14.00"> </text>
</g>
<!-- Answer -->
<g id="node3" class="node"><title>Answer</title>
<polyline fill="none" stroke="black" points="524.5,-28 665.5,-28 "/>
<path fill="none" stroke="black" d="M665.5,-28C671.5,-28 677.5,-34 677.5,-40"/>
<polyline fill="none" stroke="black" points="677.5,-40 677.5,-158 "/>
<path fill="none" stroke="black" d="M677.5,-158C677.5,-164 671.5,-170 665.5,-170"/>
<polyline fill="none" stroke="black" points="665.5,-170 524.5,-170 "/>
<path fill="none" stroke="black" d="M524.5,-170C518.5,-170 512.5,-164 512.5,-158"/>
<polyline fill="none" stroke="black" points="512.5,-158 512.5,-40 "/>
<path fill="none" stroke="black" d="M512.5,-40C512.5,-34 518.5,-28 524.5,-28"/>
<text text-anchor="middle" x="595" y="-153.4" font-family="Times Roman,serif" font-size="14.00">Answer</text>
<polyline fill="none" stroke="black" points="512.5,-144 677.5,-144 "/>
<text text-anchor="start" x="520.5" y="-127.4" font-family="Times Roman,serif" font-size="14.00">id :integer</text>
<text text-anchor="start" x="520.5" y="-109.4" font-family="Times Roman,serif" font-size="14.00">content :string</text>
<text text-anchor="start" x="520.5" y="-91.4" font-family="Times Roman,serif" font-size="14.00">question_id :integer</text>
<text text-anchor="start" x="520.5" y="-73.4" font-family="Times Roman,serif" font-size="14.00">created_at :datetime</text>
<text text-anchor="start" x="520.5" y="-55.4" font-family="Times Roman,serif" font-size="14.00">updated_at :datetime</text>
<text text-anchor="start" x="520.5" y="-37.4" font-family="Times Roman,serif" font-size="14.00">correct :boolean</text>
</g>
<!-- Attempt -->
<g id="node4" class="node"><title>Attempt</title>
<polyline fill="none" stroke="black" points="901.5,-397 1042.5,-397 "/>
<path fill="none" stroke="black" d="M1042.5,-397C1048.5,-397 1054.5,-403 1054.5,-409"/>
<polyline fill="none" stroke="black" points="1054.5,-409 1054.5,-581 "/>
<path fill="none" stroke="black" d="M1054.5,-581C1054.5,-587 1048.5,-593 1042.5,-593"/>
<polyline fill="none" stroke="black" points="1042.5,-593 901.5,-593 "/>
<path fill="none" stroke="black" d="M901.5,-593C895.5,-593 889.5,-587 889.5,-581"/>
<polyline fill="none" stroke="black" points="889.5,-581 889.5,-409 "/>
<path fill="none" stroke="black" d="M889.5,-409C889.5,-403 895.5,-397 901.5,-397"/>
<text text-anchor="middle" x="972" y="-576.4" font-family="Times Roman,serif" font-size="14.00">Attempt</text>
<polyline fill="none" stroke="black" points="889.5,-567 1054.5,-567 "/>
<text text-anchor="start" x="897.5" y="-550.4" font-family="Times Roman,serif" font-size="14.00">id :integer</text>
<text text-anchor="start" x="897.5" y="-532.4" font-family="Times Roman,serif" font-size="14.00">user_id :integer</text>
<text text-anchor="start" x="897.5" y="-514.4" font-family="Times Roman,serif" font-size="14.00">section_id :integer</text>
<text text-anchor="start" x="897.5" y="-496.4" font-family="Times Roman,serif" font-size="14.00">status :string</text>
<text text-anchor="start" x="897.5" y="-478.4" font-family="Times Roman,serif" font-size="14.00">start_time :datetime</text>
<text text-anchor="start" x="897.5" y="-460.4" font-family="Times Roman,serif" font-size="14.00">end_time :datetime</text>
<text text-anchor="start" x="897.5" y="-442.4" font-family="Times Roman,serif" font-size="14.00">created_at :datetime</text>
<text text-anchor="start" x="897.5" y="-424.4" font-family="Times Roman,serif" font-size="14.00">updated_at :datetime</text>
<text text-anchor="start" x="897.5" y="-406.4" font-family="Times Roman,serif" font-size="14.00">passed :boolean</text>
</g>
<!-- Result -->
<g id="node10" class="node"><title>Result</title>
<polyline fill="none" stroke="black" points="883.5,-1 1060.5,-1 "/>
<path fill="none" stroke="black" d="M1060.5,-1C1066.5,-1 1072.5,-7 1072.5,-13"/>
<polyline fill="none" stroke="black" points="1072.5,-13 1072.5,-185 "/>
<path fill="none" stroke="black" d="M1072.5,-185C1072.5,-191 1066.5,-197 1060.5,-197"/>
<polyline fill="none" stroke="black" points="1060.5,-197 883.5,-197 "/>
<path fill="none" stroke="black" d="M883.5,-197C877.5,-197 871.5,-191 871.5,-185"/>
<polyline fill="none" stroke="black" points="871.5,-185 871.5,-13 "/>
<path fill="none" stroke="black" d="M871.5,-13C871.5,-7 877.5,-1 883.5,-1"/>
<text text-anchor="middle" x="972" y="-180.4" font-family="Times Roman,serif" font-size="14.00">Result</text>
<polyline fill="none" stroke="black" points="871.5,-171 1072.5,-171 "/>
<text text-anchor="start" x="879.5" y="-154.4" font-family="Times Roman,serif" font-size="14.00">id :integer</text>
<text text-anchor="start" x="879.5" y="-136.4" font-family="Times Roman,serif" font-size="14.00">attempt_id :integer</text>
<text text-anchor="start" x="879.5" y="-118.4" font-family="Times Roman,serif" font-size="14.00">created_at :datetime</text>
<text text-anchor="start" x="879.5" y="-100.4" font-family="Times Roman,serif" font-size="14.00">updated_at :datetime</text>
<text text-anchor="start" x="879.5" y="-82.4" font-family="Times Roman,serif" font-size="14.00">question_id :integer</text>
<text text-anchor="start" x="879.5" y="-64.4" font-family="Times Roman,serif" font-size="14.00">correct_answer_id :integer</text>
<text text-anchor="start" x="879.5" y="-46.4" font-family="Times Roman,serif" font-size="14.00">answer_id :integer</text>
<text text-anchor="start" x="879.5" y="-28.4" font-family="Times Roman,serif" font-size="14.00">next_question :integer</text>
<text text-anchor="start" x="879.5" y="-10.4" font-family="Times Roman,serif" font-size="14.00">prev_question :integer</text>
</g>
<!-- Attempt&#45;&gt;Result -->
<g id="edge6" class="edge"><title>Attempt&#45;&gt;Result</title>
<path fill="none" stroke="#920be8" d="M972,-388.547C972,-332.331 972,-263.491 972,-207.041"/>
<ellipse fill="none" stroke="#920be8" cx="972" cy="-392.858" rx="4" ry="4"/>
<polygon fill="#920be8" stroke="#920be8" points="972,-207.012 976.5,-197.012 972,-202.012 972,-197.012 972,-197.012 972,-197.012 972,-202.012 967.5,-197.012 972,-207.012 972,-207.012"/>
</g>
<!-- Certificate -->
<g id="node5" class="node"><title>Certificate</title>
<polyline fill="none" stroke="black" points="811.5,-631 952.5,-631 "/>
<path fill="none" stroke="black" d="M952.5,-631C958.5,-631 964.5,-637 964.5,-643"/>
<polyline fill="none" stroke="black" points="964.5,-643 964.5,-797 "/>
<path fill="none" stroke="black" d="M964.5,-797C964.5,-803 958.5,-809 952.5,-809"/>
<polyline fill="none" stroke="black" points="952.5,-809 811.5,-809 "/>
<path fill="none" stroke="black" d="M811.5,-809C805.5,-809 799.5,-803 799.5,-797"/>
<polyline fill="none" stroke="black" points="799.5,-797 799.5,-643 "/>
<path fill="none" stroke="black" d="M799.5,-643C799.5,-637 805.5,-631 811.5,-631"/>
<text text-anchor="middle" x="882" y="-792.4" font-family="Times Roman,serif" font-size="14.00">Certificate</text>
<polyline fill="none" stroke="black" points="799.5,-783 964.5,-783 "/>
<text text-anchor="start" x="807.5" y="-766.4" font-family="Times Roman,serif" font-size="14.00">id :integer</text>
<text text-anchor="start" x="807.5" y="-748.4" font-family="Times Roman,serif" font-size="14.00">course_id :integer</text>
<text text-anchor="start" x="807.5" y="-730.4" font-family="Times Roman,serif" font-size="14.00">user_id :integer</text>
<text text-anchor="start" x="807.5" y="-712.4" font-family="Times Roman,serif" font-size="14.00">purchase_date :date</text>
<text text-anchor="start" x="807.5" y="-694.4" font-family="Times Roman,serif" font-size="14.00">purchase_price :float</text>
<text text-anchor="start" x="807.5" y="-676.4" font-family="Times Roman,serif" font-size="14.00">slug :string</text>
<text text-anchor="start" x="807.5" y="-658.4" font-family="Times Roman,serif" font-size="14.00">created_at :datetime</text>
<text text-anchor="start" x="807.5" y="-640.4" font-family="Times Roman,serif" font-size="14.00">updated_at :datetime</text>
</g>
<!-- Course -->
<g id="node6" class="node"><title>Course</title>
<polyline fill="none" stroke="black" points="629.5,-946 770.5,-946 "/>
<path fill="none" stroke="black" d="M770.5,-946C776.5,-946 782.5,-952 782.5,-958"/>
<polyline fill="none" stroke="black" points="782.5,-958 782.5,-1130 "/>
<path fill="none" stroke="black" d="M782.5,-1130C782.5,-1136 776.5,-1142 770.5,-1142"/>
<polyline fill="none" stroke="black" points="770.5,-1142 629.5,-1142 "/>
<path fill="none" stroke="black" d="M629.5,-1142C623.5,-1142 617.5,-1136 617.5,-1130"/>
<polyline fill="none" stroke="black" points="617.5,-1130 617.5,-958 "/>
<path fill="none" stroke="black" d="M617.5,-958C617.5,-952 623.5,-946 629.5,-946"/>
<text text-anchor="middle" x="700" y="-1125.4" font-family="Times Roman,serif" font-size="14.00">Course</text>
<polyline fill="none" stroke="black" points="617.5,-1116 782.5,-1116 "/>
<text text-anchor="start" x="625.5" y="-1099.4" font-family="Times Roman,serif" font-size="14.00">id :integer</text>
<text text-anchor="start" x="625.5" y="-1081.4" font-family="Times Roman,serif" font-size="14.00">name :string</text>
<text text-anchor="start" x="625.5" y="-1063.4" font-family="Times Roman,serif" font-size="14.00">description :text</text>
<text text-anchor="start" x="625.5" y="-1045.4" font-family="Times Roman,serif" font-size="14.00">price :decimal</text>
<text text-anchor="start" x="625.5" y="-1027.4" font-family="Times Roman,serif" font-size="14.00">slug :string</text>
<text text-anchor="start" x="625.5" y="-1009.4" font-family="Times Roman,serif" font-size="14.00">created_at :datetime</text>
<text text-anchor="start" x="625.5" y="-991.4" font-family="Times Roman,serif" font-size="14.00">updated_at :datetime</text>
<text text-anchor="start" x="625.5" y="-973.4" font-family="Times Roman,serif" font-size="14.00">user_id :integer</text>
<text text-anchor="start" x="625.5" y="-955.4" font-family="Times Roman,serif" font-size="14.00">ceu :float</text>
</g>
<!-- Course&#45;&gt;Certificate -->
<g id="edge18" class="edge"><title>Course&#45;&gt;Certificate</title>
<path fill="none" stroke="#16c0fb" d="M747.558,-938.583C762.204,-908.22 778.977,-875.377 796,-846 801.388,-836.701 807.229,-827.185 813.244,-817.753"/>
<ellipse fill="none" stroke="#16c0fb" cx="745.808" cy="-942.228" rx="4.00002" ry="4.00002"/>
<polygon fill="#16c0fb" stroke="#16c0fb" points="813.389,-817.528 822.59,-811.562 816.098,-813.326 818.808,-809.124 818.808,-809.124 818.808,-809.124 816.098,-813.326 815.026,-806.685 813.389,-817.528 813.389,-817.528"/>
</g>
<!-- Quiz -->
<g id="node9" class="node"><title>Quiz</title>
<polyline fill="none" stroke="black" points="639.5,-415 860.5,-415 "/>
<path fill="none" stroke="black" d="M860.5,-415C866.5,-415 872.5,-421 872.5,-427"/>
<polyline fill="none" stroke="black" points="872.5,-427 872.5,-563 "/>
<path fill="none" stroke="black" d="M872.5,-563C872.5,-569 866.5,-575 860.5,-575"/>
<polyline fill="none" stroke="black" points="860.5,-575 639.5,-575 "/>
<path fill="none" stroke="black" d="M639.5,-575C633.5,-575 627.5,-569 627.5,-563"/>
<polyline fill="none" stroke="black" points="627.5,-563 627.5,-427 "/>
<path fill="none" stroke="black" d="M627.5,-427C627.5,-421 633.5,-415 639.5,-415"/>
<text text-anchor="middle" x="750" y="-558.4" font-family="Times Roman,serif" font-size="14.00">Quiz</text>
<polyline fill="none" stroke="black" points="627.5,-549 872.5,-549 "/>
<text text-anchor="start" x="635.5" y="-532.4" font-family="Times Roman,serif" font-size="14.00">id :integer</text>
<text text-anchor="start" x="635.5" y="-514.4" font-family="Times Roman,serif" font-size="14.00">name :string</text>
<text text-anchor="start" x="635.5" y="-496.4" font-family="Times Roman,serif" font-size="14.00">description :text</text>
<text text-anchor="start" x="635.5" y="-478.4" font-family="Times Roman,serif" font-size="14.00">created_at :datetime</text>
<text text-anchor="start" x="635.5" y="-460.4" font-family="Times Roman,serif" font-size="14.00">updated_at :datetime</text>
<text text-anchor="start" x="635.5" y="-442.4" font-family="Times Roman,serif" font-size="14.00">num_questions_to_show :integer</text>
<text text-anchor="start" x="635.5" y="-424.4" font-family="Times Roman,serif" font-size="14.00">passing_score :integer</text>
</g>
<!-- Course&#45;&gt;Quiz -->
<g id="edge16" class="edge"><title>Course&#45;&gt;Quiz</title>
<path fill="none" stroke="#830ff2" d="M729.763,-935.906C739.183,-896.591 748.348,-851.596 753,-810 761.891,-730.496 753.889,-709.995 753,-630 752.84,-615.62 752.585,-600.38 752.289,-585.517"/>
<polygon fill="#830ff2" stroke="#830ff2" points="729.727,-936.057 722.993,-944.711 728.546,-940.915 727.366,-945.774 727.366,-945.774 727.366,-945.774 728.546,-940.915 731.738,-946.837 729.727,-936.057 729.727,-936.057"/>
<polygon fill="#830ff2" stroke="#830ff2" points="752.284,-585.302 756.577,-575.211 752.181,-580.303 752.078,-575.304 752.078,-575.304 752.078,-575.304 752.181,-580.303 747.579,-575.397 752.284,-585.302 752.284,-585.302"/>
</g>
<!-- Section -->
<g id="node11" class="node"><title>Section</title>
<polyline fill="none" stroke="black" points="591.5,-640 732.5,-640 "/>
<path fill="none" stroke="black" d="M732.5,-640C738.5,-640 744.5,-646 744.5,-652"/>
<polyline fill="none" stroke="black" points="744.5,-652 744.5,-788 "/>
<path fill="none" stroke="black" d="M744.5,-788C744.5,-794 738.5,-800 732.5,-800"/>
<polyline fill="none" stroke="black" points="732.5,-800 591.5,-800 "/>
<path fill="none" stroke="black" d="M591.5,-800C585.5,-800 579.5,-794 579.5,-788"/>
<polyline fill="none" stroke="black" points="579.5,-788 579.5,-652 "/>
<path fill="none" stroke="black" d="M579.5,-652C579.5,-646 585.5,-640 591.5,-640"/>
<text text-anchor="middle" x="662" y="-783.4" font-family="Times Roman,serif" font-size="14.00">Section</text>
<polyline fill="none" stroke="black" points="579.5,-774 744.5,-774 "/>
<text text-anchor="start" x="587.5" y="-757.4" font-family="Times Roman,serif" font-size="14.00">id :integer</text>
<text text-anchor="start" x="587.5" y="-739.4" font-family="Times Roman,serif" font-size="14.00">sequence :integer</text>
<text text-anchor="start" x="587.5" y="-721.4" font-family="Times Roman,serif" font-size="14.00">course_id :integer</text>
<text text-anchor="start" x="587.5" y="-703.4" font-family="Times Roman,serif" font-size="14.00">video_id :integer</text>
<text text-anchor="start" x="587.5" y="-685.4" font-family="Times Roman,serif" font-size="14.00">quiz_id :integer</text>
<text text-anchor="start" x="587.5" y="-667.4" font-family="Times Roman,serif" font-size="14.00">created_at :datetime</text>
<text text-anchor="start" x="587.5" y="-649.4" font-family="Times Roman,serif" font-size="14.00">updated_at :datetime</text>
</g>
<!-- Course&#45;&gt;Section -->
<g id="edge12" class="edge"><title>Course&#45;&gt;Section</title>
<path fill="none" stroke="#af581a" d="M687.557,-937.905C682.717,-896.641 677.231,-849.863 672.585,-810.255"/>
<ellipse fill="none" stroke="#af581a" cx="688.03" cy="-941.937" rx="4.00001" ry="4.00001"/>
<polygon fill="#af581a" stroke="#af581a" points="672.557,-810.015 675.862,-799.558 671.975,-805.049 671.392,-800.083 671.392,-800.083 671.392,-800.083 671.975,-805.049 666.923,-800.607 672.557,-810.015 672.557,-810.015"/>
</g>
<!-- Video -->
<g id="node13" class="node"><title>Video</title>
<polyline fill="none" stroke="black" points="457.5,-397 598.5,-397 "/>
<path fill="none" stroke="black" d="M598.5,-397C604.5,-397 610.5,-403 610.5,-409"/>
<polyline fill="none" stroke="black" points="610.5,-409 610.5,-581 "/>
<path fill="none" stroke="black" d="M610.5,-581C610.5,-587 604.5,-593 598.5,-593"/>
<polyline fill="none" stroke="black" points="598.5,-593 457.5,-593 "/>
<path fill="none" stroke="black" d="M457.5,-593C451.5,-593 445.5,-587 445.5,-581"/>
<polyline fill="none" stroke="black" points="445.5,-581 445.5,-409 "/>
<path fill="none" stroke="black" d="M445.5,-409C445.5,-403 451.5,-397 457.5,-397"/>
<text text-anchor="middle" x="528" y="-576.4" font-family="Times Roman,serif" font-size="14.00">Video</text>
<polyline fill="none" stroke="black" points="445.5,-567 610.5,-567 "/>
<text text-anchor="start" x="453.5" y="-550.4" font-family="Times Roman,serif" font-size="14.00">id :integer</text>
<text text-anchor="start" x="453.5" y="-532.4" font-family="Times Roman,serif" font-size="14.00">name :string</text>
<text text-anchor="start" x="453.5" y="-514.4" font-family="Times Roman,serif" font-size="14.00">description :text</text>
<text text-anchor="start" x="453.5" y="-496.4" font-family="Times Roman,serif" font-size="14.00">length :float</text>
<text text-anchor="start" x="453.5" y="-478.4" font-family="Times Roman,serif" font-size="14.00">presenter :string</text>
<text text-anchor="start" x="453.5" y="-460.4" font-family="Times Roman,serif" font-size="14.00">url :string</text>
<text text-anchor="start" x="453.5" y="-442.4" font-family="Times Roman,serif" font-size="14.00">created_at :datetime</text>
<text text-anchor="start" x="453.5" y="-424.4" font-family="Times Roman,serif" font-size="14.00">updated_at :datetime</text>
<text text-anchor="start" x="453.5" y="-406.4" font-family="Times Roman,serif" font-size="14.00">slug :string</text>
</g>
<!-- Course&#45;&gt;Video -->
<g id="edge14" class="edge"><title>Course&#45;&gt;Video</title>
<path fill="none" stroke="#d44201" d="M630.251,-937.125C608.004,-898.481 585.437,-853.603 571,-810 548.937,-743.366 538.183,-665.202 532.947,-603.406"/>
<polygon fill="#d44201" stroke="#d44201" points="630.26,-937.14 631.401,-948.047 632.775,-941.462 635.29,-945.783 635.29,-945.783 635.29,-945.783 632.775,-941.462 639.179,-943.52 630.26,-937.14 630.26,-937.14"/>
<polygon fill="#d44201" stroke="#d44201" points="532.931,-603.21 536.608,-592.879 532.527,-598.226 532.122,-593.242 532.122,-593.242 532.122,-593.242 532.527,-598.226 527.637,-593.606 532.931,-603.21 532.931,-603.21"/>
</g>
<!-- Message -->
<g id="node7" class="node"><title>Message</title>
<polygon fill="none" stroke="black" points="315.5,-1018 315.5,-1070 390.5,-1070 390.5,-1018 315.5,-1018"/>
<text text-anchor="middle" x="353" y="-1053.4" font-family="Times Roman,serif" font-size="14.00">Message</text>
<polyline fill="none" stroke="black" points="315.5,-1044 390.5,-1044 "/>
<text text-anchor="middle" x="353" y="-1027.4" font-family="Times Roman,serif" font-size="14.00"> </text>
</g>
<!-- Question -->
<g id="node8" class="node"><title>Question</title>
<polyline fill="none" stroke="black" points="746.5,-235 887.5,-235 "/>
<path fill="none" stroke="black" d="M887.5,-235C893.5,-235 899.5,-241 899.5,-247"/>
<polyline fill="none" stroke="black" points="899.5,-247 899.5,-347 "/>
<path fill="none" stroke="black" d="M899.5,-347C899.5,-353 893.5,-359 887.5,-359"/>
<polyline fill="none" stroke="black" points="887.5,-359 746.5,-359 "/>
<path fill="none" stroke="black" d="M746.5,-359C740.5,-359 734.5,-353 734.5,-347"/>
<polyline fill="none" stroke="black" points="734.5,-347 734.5,-247 "/>
<path fill="none" stroke="black" d="M734.5,-247C734.5,-241 740.5,-235 746.5,-235"/>
<text text-anchor="middle" x="817" y="-342.4" font-family="Times Roman,serif" font-size="14.00">Question</text>
<polyline fill="none" stroke="black" points="734.5,-333 899.5,-333 "/>
<text text-anchor="start" x="742.5" y="-316.4" font-family="Times Roman,serif" font-size="14.00">id :integer</text>
<text text-anchor="start" x="742.5" y="-298.4" font-family="Times Roman,serif" font-size="14.00">content :text</text>
<text text-anchor="start" x="742.5" y="-280.4" font-family="Times Roman,serif" font-size="14.00">quiz_id :integer</text>
<text text-anchor="start" x="742.5" y="-262.4" font-family="Times Roman,serif" font-size="14.00">created_at :datetime</text>
<text text-anchor="start" x="742.5" y="-244.4" font-family="Times Roman,serif" font-size="14.00">updated_at :datetime</text>
</g>
<!-- Question&#45;&gt;Answer -->
<g id="edge24" class="edge"><title>Question&#45;&gt;Answer</title>
<path fill="none" stroke="#112d48" d="M741.375,-229.551C722.447,-212.669 701.987,-194.421 682.534,-177.071"/>
<ellipse fill="none" stroke="#112d48" cx="744.382" cy="-232.232" rx="4.00002" ry="4.00002"/>
<polygon fill="#112d48" stroke="#112d48" points="682.31,-176.871 677.842,-166.856 678.578,-173.543 674.847,-170.215 674.847,-170.215 674.847,-170.215 678.578,-173.543 671.852,-173.573 682.31,-176.871 682.31,-176.871"/>
</g>
<!-- Question&#45;&gt;Result -->
<g id="edge26" class="edge"><title>Question&#45;&gt;Result</title>
<path fill="none" stroke="#77ed4b" d="M870.751,-228.337C876.674,-220.771 882.802,-212.943 888.977,-205.055"/>
<ellipse fill="none" stroke="#77ed4b" cx="868.083" cy="-231.745" rx="4.00002" ry="4.00002"/>
<polygon fill="#77ed4b" stroke="#77ed4b" points="888.997,-205.029 898.705,-199.929 892.08,-201.092 895.162,-197.155 895.162,-197.155 895.162,-197.155 892.08,-201.092 891.618,-194.381 888.997,-205.029 888.997,-205.029"/>
</g>
<!-- Quiz&#45;&gt;Question -->
<g id="edge30" class="edge"><title>Quiz&#45;&gt;Question</title>
<path fill="none" stroke="#60ad34" d="M779.818,-406.881C784.12,-394.168 788.503,-381.214 792.681,-368.869"/>
<ellipse fill="none" stroke="#60ad34" cx="778.437" cy="-410.962" rx="4.00001" ry="4.00001"/>
<polygon fill="#60ad34" stroke="#60ad34" points="792.776,-368.588 800.244,-360.558 794.379,-363.851 795.981,-359.115 795.981,-359.115 795.981,-359.115 794.379,-363.851 791.719,-357.673 792.776,-368.588 792.776,-368.588"/>
</g>
<!-- Section&#45;&gt;Attempt -->
<g id="edge40" class="edge"><title>Section&#45;&gt;Attempt</title>
<path fill="none" stroke="#6acdb4" d="M751.303,-653.834C764.326,-645.332 777.8,-637.123 791,-630 828.914,-609.541 845.541,-618.467 881,-594 881.087,-593.94 881.174,-593.88 881.261,-593.819"/>
<ellipse fill="none" stroke="#6acdb4" cx="747.876" cy="-656.098" rx="4.00002" ry="4.00002"/>
<polygon fill="#6acdb4" stroke="#6acdb4" points="881.211,-593.856 891.939,-591.582 885.246,-590.903 889.281,-587.951 889.281,-587.951 889.281,-587.951 885.246,-590.903 886.624,-584.319 881.211,-593.856 881.211,-593.856"/>
</g>
<!-- Section&#45;&gt;Quiz -->
<g id="edge38" class="edge"><title>Section&#45;&gt;Quiz</title>
<path fill="none" stroke="#8efaa1" d="M696.497,-631.797C702.763,-615.775 709.299,-599.064 715.564,-583.047"/>
<ellipse fill="none" stroke="#8efaa1" cx="694.854" cy="-635.998" rx="4.00001" ry="4.00001"/>
<ellipse fill="#8efaa1" stroke="#8efaa1" cx="717.158" cy="-578.971" rx="4.00001" ry="4.00001"/>
</g>
<!-- Section&#45;&gt;Video -->
<g id="edge36" class="edge"><title>Section&#45;&gt;Video</title>
<path fill="none" stroke="#221b6e" d="M609.964,-632.626C603.678,-622.071 597.206,-611.204 590.786,-600.425"/>
<ellipse fill="none" stroke="#221b6e" cx="612.144" cy="-636.286" rx="4.00002" ry="4.00002"/>
<ellipse fill="#221b6e" stroke="#221b6e" cx="588.624" cy="-596.794" rx="4.00002" ry="4.00002"/>
</g>
<!-- User -->
<g id="node12" class="node"><title>User</title>
<polyline fill="none" stroke="black" points="849.5,-847 1004.5,-847 "/>
<path fill="none" stroke="black" d="M1004.5,-847C1010.5,-847 1016.5,-853 1016.5,-859"/>
<polyline fill="none" stroke="black" points="1016.5,-859 1016.5,-1229 "/>
<path fill="none" stroke="black" d="M1016.5,-1229C1016.5,-1235 1010.5,-1241 1004.5,-1241"/>
<polyline fill="none" stroke="black" points="1004.5,-1241 849.5,-1241 "/>
<path fill="none" stroke="black" d="M849.5,-1241C843.5,-1241 837.5,-1235 837.5,-1229"/>
<polyline fill="none" stroke="black" points="837.5,-1229 837.5,-859 "/>
<path fill="none" stroke="black" d="M837.5,-859C837.5,-853 843.5,-847 849.5,-847"/>
<text text-anchor="middle" x="927" y="-1224.4" font-family="Times Roman,serif" font-size="14.00">User</text>
<polyline fill="none" stroke="black" points="837.5,-1215 1016.5,-1215 "/>
<text text-anchor="start" x="845.5" y="-1198.4" font-family="Times Roman,serif" font-size="14.00">id :integer</text>
<text text-anchor="start" x="845.5" y="-1180.4" font-family="Times Roman,serif" font-size="14.00">last_name :string</text>
<text text-anchor="start" x="845.5" y="-1162.4" font-family="Times Roman,serif" font-size="14.00">password_digest :string</text>
<text text-anchor="start" x="845.5" y="-1144.4" font-family="Times Roman,serif" font-size="14.00">email :string</text>
<text text-anchor="start" x="845.5" y="-1126.4" font-family="Times Roman,serif" font-size="14.00">account :string</text>
<text text-anchor="start" x="845.5" y="-1108.4" font-family="Times Roman,serif" font-size="14.00">slug :string</text>
<text text-anchor="start" x="845.5" y="-1090.4" font-family="Times Roman,serif" font-size="14.00">confirmed_at :date</text>
<text text-anchor="start" x="845.5" y="-1072.4" font-family="Times Roman,serif" font-size="14.00">created_at :datetime</text>
<text text-anchor="start" x="845.5" y="-1054.4" font-family="Times Roman,serif" font-size="14.00">updated_at :datetime</text>
<text text-anchor="start" x="845.5" y="-1036.4" font-family="Times Roman,serif" font-size="14.00">token :string</text>
<text text-anchor="start" x="845.5" y="-1018.4" font-family="Times Roman,serif" font-size="14.00">first_name :string</text>
<text text-anchor="start" x="845.5" y="-1000.4" font-family="Times Roman,serif" font-size="14.00">title :string</text>
<text text-anchor="start" x="845.5" y="-982.4" font-family="Times Roman,serif" font-size="14.00">company :string</text>
<text text-anchor="start" x="845.5" y="-964.4" font-family="Times Roman,serif" font-size="14.00">address1 :string</text>
<text text-anchor="start" x="845.5" y="-946.4" font-family="Times Roman,serif" font-size="14.00">address2 :string</text>
<text text-anchor="start" x="845.5" y="-928.4" font-family="Times Roman,serif" font-size="14.00">city :string</text>
<text text-anchor="start" x="845.5" y="-910.4" font-family="Times Roman,serif" font-size="14.00">state :string</text>
<text text-anchor="start" x="845.5" y="-892.4" font-family="Times Roman,serif" font-size="14.00">postal_code :string</text>
<text text-anchor="start" x="845.5" y="-874.4" font-family="Times Roman,serif" font-size="14.00">country :string</text>
<text text-anchor="start" x="845.5" y="-856.4" font-family="Times Roman,serif" font-size="14.00">phone :string</text>
</g>
<!-- User&#45;&gt;Attempt -->
<g id="edge46" class="edge"><title>User&#45;&gt;Attempt</title>
<path fill="none" stroke="#f19cef" d="M969.685,-838.692C970.964,-829.017 972.083,-819.417 973,-810 980.752,-730.376 973.296,-709.999 973,-630 972.968,-621.315 972.924,-612.316 972.873,-603.276"/>
<ellipse fill="none" stroke="#f19cef" cx="969.114" cy="-842.872" rx="4.00001" ry="4.00001"/>
<polygon fill="#f19cef" stroke="#f19cef" points="972.871,-603.066 977.312,-593.039 972.842,-598.066 972.812,-593.066 972.812,-593.066 972.812,-593.066 972.842,-598.066 968.312,-593.093 972.871,-603.066 972.871,-603.066"/>
</g>
<!-- User&#45;&gt;Certificate -->
<g id="edge44" class="edge"><title>User&#45;&gt;Certificate</title>
<path fill="none" stroke="#bb934b" d="M898.46,-838.51C897.561,-832.04 896.676,-825.67 895.812,-819.445"/>
<ellipse fill="none" stroke="#bb934b" cx="899.041" cy="-842.697" rx="4.00001" ry="4.00001"/>
<polygon fill="#bb934b" stroke="#bb934b" points="895.753,-819.02 898.834,-808.496 895.065,-814.068 894.377,-809.115 894.377,-809.115 894.377,-809.115 895.065,-814.068 889.92,-809.735 895.753,-819.02 895.753,-819.02"/>
</g>
<!-- Object -->
<g id="node14" class="node"><title>Object</title>
<ellipse fill="none" stroke="black" cx="311" cy="-1325" rx="43.1335" ry="18.3848"/>
<text text-anchor="middle" x="311" y="-1321.4" font-family="Times Roman,serif" font-size="14.00">Object</text>
</g>
<!-- Object&#45;&gt;Ability -->
<g id="edge2" class="edge"><title>Object&#45;&gt;Ability</title>
<path fill="none" stroke="black" d="M308.112,-1306.13C300.636,-1257.27 280.637,-1126.58 272.03,-1070.34"/>
</g>
<!-- Object&#45;&gt;Message -->
<g id="edge22" class="edge"><title>Object&#45;&gt;Message</title>
<path fill="none" stroke="black" d="M313.821,-1306.13C321.123,-1257.27 340.657,-1126.58 349.063,-1070.34"/>
</g>
<!-- ActiveRecord::Base -->
<g id="node16" class="node"><title>ActiveRecord::Base</title>
<ellipse fill="none" stroke="black" cx="755" cy="-1325" rx="104.151" ry="18.3848"/>
<text text-anchor="middle" x="755" y="-1321.4" font-family="Times Roman,serif" font-size="14.00">ActiveRecord::Base</text>
</g>
<!-- ActiveRecord::Base&#45;&gt;Answer -->
<g id="edge4" class="edge"><title>ActiveRecord::Base&#45;&gt;Answer</title>
<path fill="none" stroke="black" d="M670.224,-1314.24C586.498,-1301.7 466.894,-1277.99 438,-1242 365.322,-1151.48 418,-836.085 418,-720 418,-720 418,-720 418,-495 418,-372.818 489.099,-246.442 541.173,-170.268"/>
</g>
<!-- ActiveRecord::Base&#45;&gt;Attempt -->
<g id="edge8" class="edge"><title>ActiveRecord::Base&#45;&gt;Attempt</title>
<path fill="none" stroke="black" d="M830.26,-1312.12C901.736,-1298.16 1001.65,-1273.6 1025,-1242 1099.12,-1141.68 1032.36,-772.1 994.262,-593.245"/>
</g>
<!-- ActiveRecord::Base&#45;&gt;Certificate -->
<g id="edge10" class="edge"><title>ActiveRecord::Base&#45;&gt;Certificate</title>
<path fill="none" stroke="black" d="M765.044,-1306.48C773.463,-1290.04 785.037,-1265.12 791,-1242 835.164,-1070.8 785.785,-1017.45 829,-846 832.074,-833.804 836.147,-821.257 840.674,-809.028"/>
</g>
<!-- ActiveRecord::Base&#45;&gt;Course -->
<g id="edge20" class="edge"><title>ActiveRecord::Base&#45;&gt;Course</title>
<path fill="none" stroke="black" d="M751.306,-1306.13C744.803,-1272.9 730.891,-1201.82 719.192,-1142.06"/>
</g>
<!-- ActiveRecord::Base&#45;&gt;Question -->
<g id="edge28" class="edge"><title>ActiveRecord::Base&#45;&gt;Question</title>
<path fill="none" stroke="black" d="M836.937,-1313.49C916.287,-1300.48 1028.4,-1276.51 1055,-1242 1112.38,-1167.54 1115.62,-473.897 1063,-396 1026.73,-342.305 955.98,-317.728 899.629,-306.481"/>
</g>
<!-- ActiveRecord::Base&#45;&gt;Quiz -->
<g id="edge32" class="edge"><title>ActiveRecord::Base&#45;&gt;Quiz</title>
<path fill="none" stroke="black" d="M686.369,-1311.01C648.163,-1299.37 603.659,-1278.56 580,-1242 475.661,-1080.78 573,-1002.03 571,-810 570.167,-730.004 535.223,-701.554 571,-630 582.926,-606.149 597.696,-610.039 619,-594 627.199,-587.827 635.682,-581.433 644.208,-575.002"/>
</g>
<!-- ActiveRecord::Base&#45;&gt;Result -->
<g id="edge34" class="edge"><title>ActiveRecord::Base&#45;&gt;Result</title>
<path fill="none" stroke="black" d="M843.031,-1315.08C931.685,-1303.12 1059.7,-1279.76 1091,-1242 1239.27,-1063.1 1120,-952.358 1120,-720 1120,-720 1120,-720 1120,-495 1120,-388.394 1072.36,-275.28 1031.13,-197.361"/>
</g>
<!-- ActiveRecord::Base&#45;&gt;Section -->
<g id="edge42" class="edge"><title>ActiveRecord::Base&#45;&gt;Section</title>
<path fill="none" stroke="black" d="M699.781,-1309.14C667.147,-1296.61 628.501,-1275.52 609,-1242 564.746,-1165.94 591.596,-932.262 609,-846 612.074,-830.763 617.045,-815.074 622.74,-800.163"/>
</g>
<!-- ActiveRecord::Base&#45;&gt;User -->
<g id="edge48" class="edge"><title>ActiveRecord::Base&#45;&gt;User</title>
<path fill="none" stroke="black" d="M772.396,-1306.46C787.145,-1290.21 808.337,-1265.57 824,-1242 828.504,-1235.22 832.963,-1228.23 837.352,-1221.09"/>
</g>
<!-- ActiveRecord::Base&#45;&gt;Video -->
<g id="edge50" class="edge"><title>ActiveRecord::Base&#45;&gt;Video</title>
<path fill="none" stroke="black" d="M691.014,-1310.38C630.559,-1295.13 546.329,-1269.61 527,-1242 390.322,-1046.79 450.367,-746.96 495.146,-593.269"/>
</g>
</g>
</svg>
