<?xml version="1.0" encoding="UTF-8" standalone="no"?>
<!DOCTYPE svg PUBLIC "-//W3C//DTD SVG 1.1//EN"
 "http://www.w3.org/Graphics/SVG/1.1/DTD/svg11.dtd">
<!-- Generated by graphviz version 2.26.3 (20100126.1600)
 -->
<!-- Title: models_diagram Pages: 1 -->
<svg width="1276pt" height="472pt"
 viewBox="0.00 0.00 1276.00 472.00" xmlns="http://www.w3.org/2000/svg" xmlns:xlink="http://www.w3.org/1999/xlink">
<g id="graph1" class="graph" transform="scale(1 1) rotate(0) translate(4 468)">
<title>models_diagram</title>
<polygon fill="white" stroke="white" points="-4,5 -4,-468 1273,-468 1273,5 -4,5"/>
<!-- _diagram_info -->
<g id="node1" class="node"><title>_diagram_info</title>
<text text-anchor="start" x="8" y="-447.8" font-family="Times Roman,serif" font-size="13.00">Models diagram</text>
<text text-anchor="start" x="8" y="-430.8" font-family="Times Roman,serif" font-size="13.00">Date: Feb 16 2014 &#45; 18:02</text>
<text text-anchor="start" x="8" y="-413.8" font-family="Times Roman,serif" font-size="13.00">Migration version: 20140216170221</text>
<text text-anchor="start" x="8" y="-396.8" font-family="Times Roman,serif" font-size="13.00">Generated by RailRoady 1.1.1</text>
<text text-anchor="start" x="8" y="-379.8" font-family="Times Roman,serif" font-size="13.00">http://railroady.prestonlee.com</text>
</g>
<!-- Ability -->
<g id="node2" class="node"><title>Ability</title>
<polygon fill="none" stroke="black" points="298,-333 238,-333 238,-297 298,-297 298,-333"/>
<text text-anchor="middle" x="268" y="-311.4" font-family="Times Roman,serif" font-size="14.00">Ability</text>
</g>
<!-- Answer -->
<g id="node3" class="node"><title>Answer</title>
<ellipse fill="none" stroke="black" cx="461" cy="-19" rx="48.7904" ry="18.3848"/>
<text text-anchor="middle" x="461" y="-15.4" font-family="Times Roman,serif" font-size="14.00">Answer</text>
</g>
<!-- Attempt -->
<g id="node4" class="node"><title>Attempt</title>
<ellipse fill="none" stroke="black" cx="1058" cy="-167" rx="51.8276" ry="18.3848"/>
<text text-anchor="middle" x="1058" y="-163.4" font-family="Times Roman,serif" font-size="14.00">Attempt</text>
</g>
<!-- Result -->
<g id="node12" class="node"><title>Result</title>
<ellipse fill="none" stroke="black" cx="1058" cy="-19" rx="41.2167" ry="18.3848"/>
<text text-anchor="middle" x="1058" y="-15.4" font-family="Times Roman,serif" font-size="14.00">Result</text>
</g>
<!-- Attempt&#45;&gt;Result -->
<g id="edge6" class="edge"><title>Attempt&#45;&gt;Result</title>
<path fill="none" stroke="#364332" d="M1058,-140.006C1058,-113.917 1058,-74.5269 1058,-47.8341"/>
<ellipse fill="none" stroke="#364332" cx="1058" cy="-144.256" rx="4" ry="4"/>
<polygon fill="#364332" stroke="#364332" points="1058,-47.5921 1062.5,-37.5921 1058,-42.5921 1058,-37.5921 1058,-37.5921 1058,-37.5921 1058,-42.5921 1053.5,-37.5922 1058,-47.5921 1058,-47.5921"/>
</g>
<!-- Certificate -->
<g id="node5" class="node"><title>Certificate</title>
<ellipse fill="none" stroke="black" cx="892" cy="-241" rx="62.2254" ry="18.3848"/>
<text text-anchor="middle" x="892" y="-237.4" font-family="Times Roman,serif" font-size="14.00">Certificate</text>
</g>
<!-- Ceu -->
<g id="node6" class="node"><title>Ceu</title>
<ellipse fill="none" stroke="black" cx="553" cy="-241" rx="31.1127" ry="18.3848"/>
<text text-anchor="middle" x="553" y="-237.4" font-family="Times Roman,serif" font-size="14.00">Ceu</text>
</g>
<!-- Course -->
<g id="node7" class="node"><title>Course</title>
<ellipse fill="none" stroke="black" cx="661" cy="-315" rx="45.9619" ry="18.3848"/>
<text text-anchor="middle" x="661" y="-311.4" font-family="Times Roman,serif" font-size="14.00">Course</text>
</g>
<!-- Course&#45;&gt;Certificate -->
<g id="edge20" class="edge"><title>Course&#45;&gt;Certificate</title>
<path fill="none" stroke="#78c763" d="M704.861,-300.949C743.246,-288.653 799.075,-270.768 839.76,-257.735"/>
<ellipse fill="none" stroke="#78c763" cx="700.903" cy="-302.217" rx="4.00001" ry="4.00001"/>
<polygon fill="#78c763" stroke="#78c763" points="839.973,-257.667 850.869,-258.901 844.735,-256.141 849.497,-254.616 849.497,-254.616 849.497,-254.616 844.735,-256.141 848.124,-250.33 839.973,-257.667 839.973,-257.667"/>
</g>
<!-- Course&#45;&gt;Ceu -->
<g id="edge22" class="edge"><title>Course&#45;&gt;Ceu</title>
<path fill="none" stroke="#d2d229" d="M630.56,-294.143C615.305,-283.691 596.93,-271.1 581.894,-260.798"/>
<ellipse fill="none" stroke="#d2d229" cx="634.266" cy="-296.682" rx="4.00002" ry="4.00002"/>
<polygon fill="#d2d229" stroke="#d2d229" points="581.726,-260.683 576.02,-251.318 577.601,-257.857 573.477,-255.03 573.477,-255.03 573.477,-255.03 577.601,-257.857 570.933,-258.743 581.726,-260.683 581.726,-260.683"/>
</g>
<!-- Quiz -->
<g id="node11" class="node"><title>Quiz</title>
<ellipse fill="none" stroke="black" cx="565" cy="-167" rx="34.1461" ry="18.3848"/>
<text text-anchor="middle" x="565" y="-163.4" font-family="Times Roman,serif" font-size="14.00">Quiz</text>
</g>
<!-- Course&#45;&gt;Quiz -->
<g id="edge18" class="edge"><title>Course&#45;&gt;Quiz</title>
<path fill="none" stroke="#fce35d" d="M643.593,-288.164C626.129,-261.241 599.402,-220.037 582.062,-193.304"/>
<polygon fill="#fce35d" stroke="#fce35d" points="643.787,-288.463 645.453,-299.301 646.508,-292.657 649.229,-296.852 649.229,-296.852 649.229,-296.852 646.508,-292.657 653.004,-294.403 643.787,-288.463 643.787,-288.463"/>
<polygon fill="#fce35d" stroke="#fce35d" points="582.01,-193.223 580.343,-182.385 579.289,-189.029 576.568,-184.834 576.568,-184.834 576.568,-184.834 579.289,-189.029 572.793,-187.283 582.01,-193.223 582.01,-193.223"/>
</g>
<!-- Section -->
<g id="node13" class="node"><title>Section</title>
<ellipse fill="none" stroke="black" cx="726" cy="-241" rx="48.0833" ry="18.3848"/>
<text text-anchor="middle" x="726" y="-237.4" font-family="Times Roman,serif" font-size="14.00">Section</text>
</g>
<!-- Course&#45;&gt;Section -->
<g id="edge14" class="edge"><title>Course&#45;&gt;Section</title>
<path fill="none" stroke="#99636f" d="M681.697,-291.438C688.696,-283.47 696.539,-274.54 703.66,-266.433"/>
<ellipse fill="none" stroke="#99636f" cx="679.044" cy="-294.458" rx="4.00002" ry="4.00002"/>
<polygon fill="#99636f" stroke="#99636f" points="703.882,-266.181 713.862,-261.637 707.181,-262.424 710.481,-258.668 710.481,-258.668 710.481,-258.668 707.181,-262.424 707.1,-255.698 703.882,-266.181 703.882,-266.181"/>
</g>
<!-- Video -->
<g id="node16" class="node"><title>Video</title>
<ellipse fill="none" stroke="black" cx="726" cy="-167" rx="38.8909" ry="18.3848"/>
<text text-anchor="middle" x="726" y="-163.4" font-family="Times Roman,serif" font-size="14.00">Video</text>
</g>
<!-- Course&#45;&gt;Video -->
<g id="edge16" class="edge"><title>Course&#45;&gt;Video</title>
<path fill="none" stroke="#b9f453" d="M658.379,-285.993C657.855,-266.921 659.518,-241.905 669,-222 675.079,-209.238 685.467,-197.857 695.723,-188.805"/>
<polygon fill="#b9f453" stroke="#b9f453" points="658.388,-286.19 654.383,-296.398 658.633,-291.184 658.877,-296.178 658.877,-296.178 658.877,-296.178 658.633,-291.184 663.372,-295.958 658.388,-286.19 658.388,-286.19"/>
<polygon fill="#b9f453" stroke="#b9f453" points="695.784,-188.754 706.347,-185.81 699.625,-185.554 703.466,-182.353 703.466,-182.353 703.466,-182.353 699.625,-185.554 700.586,-178.896 695.784,-188.754 695.784,-188.754"/>
</g>
<!-- Log -->
<g id="node8" class="node"><title>Log</title>
<ellipse fill="none" stroke="black" cx="1001" cy="-241" rx="28.9914" ry="18.3848"/>
<text text-anchor="middle" x="1001" y="-237.4" font-family="Times Roman,serif" font-size="14.00">Log</text>
</g>
<!-- Message -->
<g id="node9" class="node"><title>Message</title>
<polygon fill="none" stroke="black" points="390,-333 316,-333 316,-297 390,-297 390,-333"/>
<text text-anchor="middle" x="353" y="-311.4" font-family="Times Roman,serif" font-size="14.00">Message</text>
</g>
<!-- Question -->
<g id="node10" class="node"><title>Question</title>
<ellipse fill="none" stroke="black" cx="534" cy="-93" rx="55.8614" ry="18.3848"/>
<text text-anchor="middle" x="534" y="-89.4" font-family="Times Roman,serif" font-size="14.00">Question</text>
</g>
<!-- Question&#45;&gt;Answer -->
<g id="edge30" class="edge"><title>Question&#45;&gt;Answer</title>
<path fill="none" stroke="#c20d89" d="M510.682,-69.3623C502.623,-61.1931 493.574,-52.0201 485.429,-43.7632"/>
<ellipse fill="none" stroke="#c20d89" cx="513.52" cy="-72.239" rx="4.00002" ry="4.00002"/>
<polygon fill="#c20d89" stroke="#c20d89" points="485.279,-43.6121 481.46,-33.3327 481.768,-40.0525 478.257,-36.493 478.257,-36.493 478.257,-36.493 481.768,-40.0525 475.053,-39.6533 485.279,-43.6121 485.279,-43.6121"/>
</g>
<!-- Question&#45;&gt;Result -->
<g id="edge32" class="edge"><title>Question&#45;&gt;Result</title>
<path fill="none" stroke="#745d92" d="M593.9,-84.5408C698.416,-69.7809 912.147,-39.5976 1008.71,-25.9613"/>
<ellipse fill="none" stroke="#745d92" cx="589.638" cy="-85.1427" rx="4.00001" ry="4.00001"/>
<polygon fill="#745d92" stroke="#745d92" points="1008.88,-25.9366 1019.41,-28.994 1013.83,-25.2374 1018.78,-24.5382 1018.78,-24.5382 1018.78,-24.5382 1013.83,-25.2374 1018.15,-20.0824 1008.88,-25.9366 1008.88,-25.9366"/>
</g>
<!-- Quiz&#45;&gt;Question -->
<g id="edge36" class="edge"><title>Quiz&#45;&gt;Question</title>
<path fill="none" stroke="#8d6390" d="M554.165,-141.136C551.399,-134.534 548.415,-127.41 545.612,-120.72"/>
<ellipse fill="none" stroke="#8d6390" cx="555.792" cy="-145.019" rx="4.00002" ry="4.00002"/>
<polygon fill="#8d6390" stroke="#8d6390" points="545.546,-120.562 545.833,-109.599 543.614,-115.95 541.682,-111.338 541.682,-111.338 541.682,-111.338 543.614,-115.95 537.532,-113.077 545.546,-120.562 545.546,-120.562"/>
</g>
<!-- Section&#45;&gt;Attempt -->
<g id="edge46" class="edge"><title>Section&#45;&gt;Attempt</title>
<path fill="none" stroke="#a4dd87" d="M775.733,-229.915C837.041,-216.25 940.849,-193.112 1004.04,-179.028"/>
<ellipse fill="none" stroke="#a4dd87" cx="771.616" cy="-230.833" rx="4.00001" ry="4.00001"/>
<polygon fill="#a4dd87" stroke="#a4dd87" points="1004.06,-179.023 1014.8,-181.24 1008.94,-177.935 1013.82,-176.848 1013.82,-176.848 1013.82,-176.848 1008.94,-177.935 1012.84,-172.455 1004.06,-179.023 1004.06,-179.023"/>
</g>
<!-- Section&#45;&gt;Quiz -->
<g id="edge44" class="edge"><title>Section&#45;&gt;Quiz</title>
<path fill="none" stroke="#9c3fca" d="M687.629,-223.363C660.51,-210.899 624.51,-194.352 598.538,-182.415"/>
<ellipse fill="none" stroke="#9c3fca" cx="691.323" cy="-225.062" rx="4.00002" ry="4.00002"/>
<ellipse fill="#9c3fca" stroke="#9c3fca" cx="594.793" cy="-180.694" rx="4.00002" ry="4.00002"/>
</g>
<!-- Section&#45;&gt;Video -->
<g id="edge42" class="edge"><title>Section&#45;&gt;Video</title>
<path fill="none" stroke="#8f57ef" d="M726,-214.309C726,-207.635 726,-200.476 726,-193.797"/>
<ellipse fill="none" stroke="#8f57ef" cx="726" cy="-218.327" rx="4" ry="4"/>
<ellipse fill="#8f57ef" stroke="#8f57ef" cx="726" cy="-189.667" rx="4" ry="4"/>
</g>
<!-- Stat -->
<g id="node14" class="node"><title>Stat</title>
<ellipse fill="none" stroke="black" cx="1081" cy="-315" rx="32.0265" ry="18.3848"/>
<text text-anchor="middle" x="1081" y="-311.4" font-family="Times Roman,serif" font-size="14.00">Stat</text>
</g>
<!-- User -->
<g id="node15" class="node"><title>User</title>
<ellipse fill="none" stroke="black" cx="997" cy="-315" rx="33.9411" ry="18.3848"/>
<text text-anchor="middle" x="997" y="-311.4" font-family="Times Roman,serif" font-size="14.00">User</text>
</g>
<!-- User&#45;&gt;Attempt -->
<g id="edge54" class="edge"><title>User&#45;&gt;Attempt</title>
<path fill="none" stroke="#78476a" d="M1018.01,-292.32C1025.68,-282.934 1033.75,-271.552 1039,-260 1048.28,-239.591 1053.06,-214.607 1055.51,-195.676"/>
<ellipse fill="none" stroke="#78476a" cx="1015.39" cy="-295.422" rx="4.00002" ry="4.00002"/>
<polygon fill="#78476a" stroke="#78476a" points="1055.53,-195.514 1061.14,-186.092 1056.1,-190.546 1056.67,-185.579 1056.67,-185.579 1056.67,-185.579 1056.1,-190.546 1052.2,-185.066 1055.53,-195.514 1055.53,-195.514"/>
</g>
<!-- User&#45;&gt;Certificate -->
<g id="edge52" class="edge"><title>User&#45;&gt;Certificate</title>
<path fill="none" stroke="#d3f90c" d="M969.23,-295.429C955.592,-285.817 939.068,-274.171 924.809,-264.123"/>
<ellipse fill="none" stroke="#d3f90c" cx="972.734" cy="-297.899" rx="4.00002" ry="4.00002"/>
<polygon fill="#d3f90c" stroke="#d3f90c" points="924.444,-263.866 918.863,-254.427 920.357,-260.985 916.27,-258.105 916.27,-258.105 916.27,-258.105 920.357,-260.985 913.678,-261.783 924.444,-263.866 924.444,-263.866"/>
</g>
<!-- User&#45;&gt;Log -->
<g id="edge56" class="edge"><title>User&#45;&gt;Log</title>
<path fill="none" stroke="#61b4c8" d="M998.443,-288.309C998.763,-282.377 999.105,-276.061 999.43,-270.04"/>
<ellipse fill="none" stroke="#61b4c8" cx="998.225" cy="-292.333" rx="4" ry="4"/>
<polygon fill="#61b4c8" stroke="#61b4c8" points="999.451,-269.653 1004.48,-259.91 999.721,-264.66 999.991,-259.667 999.991,-259.667 999.991,-259.667 999.721,-264.66 995.498,-259.424 999.451,-269.653 999.451,-269.653"/>
</g>
<!-- Summary -->
<g id="node48" class="node"><title>Summary</title>
<ellipse fill="none" stroke="black" cx="1144" cy="-241" rx="58.1882" ry="18.3848"/>
<text text-anchor="middle" x="1144" y="-237.4" font-family="Times Roman,serif" font-size="14.00">Summary</text>
</g>
<!-- User&#45;&gt;Summary -->
<g id="edge58" class="edge"><title>User&#45;&gt;Summary</title>
<path fill="none" stroke="#ecde74" d="M1029.67,-298.554C1051.61,-287.51 1080.66,-272.887 1103.98,-261.145"/>
<ellipse fill="none" stroke="#ecde74" cx="1025.84" cy="-300.48" rx="4.00002" ry="4.00002"/>
<polygon fill="#ecde74" stroke="#ecde74" points="1104.01,-261.133 1114.96,-260.656 1108.47,-258.884 1112.94,-256.636 1112.94,-256.636 1112.94,-256.636 1108.47,-258.884 1110.92,-252.617 1104.01,-261.133 1104.01,-261.133"/>
</g>
<!-- Object -->
<g id="node17" class="node"><title>Object</title>
<ellipse fill="none" stroke="black" cx="311" cy="-417" rx="43.1335" ry="18.3848"/>
<text text-anchor="middle" x="311" y="-413.4" font-family="Times Roman,serif" font-size="14.00">Object</text>
</g>
<!-- Object&#45;&gt;Ability -->
<g id="edge2" class="edge"><title>Object&#45;&gt;Ability</title>
<path fill="none" stroke="black" d="M303.312,-398.764C295.486,-380.198 283.424,-351.586 275.621,-333.078"/>
</g>
<!-- Object&#45;&gt;Message -->
<g id="edge28" class="edge"><title>Object&#45;&gt;Message</title>
<path fill="none" stroke="black" d="M318.509,-398.764C326.154,-380.198 337.935,-351.586 345.556,-333.078"/>
</g>
<!-- ActiveRecord::Base -->
<g id="node19" class="node"><title>ActiveRecord::Base</title>
<ellipse fill="none" stroke="black" cx="802" cy="-417" rx="104.151" ry="18.3848"/>
<text text-anchor="middle" x="802" y="-413.4" font-family="Times Roman,serif" font-size="14.00">ActiveRecord::Base</text>
</g>
<!-- ActiveRecord::Base&#45;&gt;Answer -->
<g id="edge4" class="edge"><title>ActiveRecord::Base&#45;&gt;Answer</title>
<path fill="none" stroke="black" d="M712.468,-407.461C647.875,-397.241 560.82,-376.342 495,-334 449.87,-304.968 418,-294.662 418,-241 418,-241 418,-241 418,-167 418,-118.57 439.495,-64.6388 452.09,-37.1953"/>
</g>
<!-- ActiveRecord::Base&#45;&gt;Attempt -->
<g id="edge8" class="edge"><title>ActiveRecord::Base&#45;&gt;Attempt</title>
<path fill="none" stroke="black" d="M884.784,-405.78C951.59,-394.363 1046.54,-372.685 1122,-334 1167.78,-310.533 1189.15,-306.574 1211,-260 1218.17,-244.71 1220.71,-235.815 1211,-222 1198.13,-203.701 1142.55,-186.978 1102.08,-176.894"/>
</g>
<!-- ActiveRecord::Base&#45;&gt;Certificate -->
<g id="edge10" class="edge"><title>ActiveRecord::Base&#45;&gt;Certificate</title>
<path fill="none" stroke="black" d="M811.461,-398.498C828.747,-364.695 865.239,-293.333 882.53,-259.519"/>
</g>
<!-- ActiveRecord::Base&#45;&gt;Ceu -->
<g id="edge12" class="edge"><title>ActiveRecord::Base&#45;&gt;Ceu</title>
<path fill="none" stroke="black" d="M740.206,-402.086C698.482,-389.509 644.251,-368.004 606,-334 582.805,-313.38 567.318,-280.087 559.353,-259.429"/>
</g>
<!-- ActiveRecord::Base&#45;&gt;Course -->
<g id="edge24" class="edge"><title>ActiveRecord::Base&#45;&gt;Course</title>
<path fill="none" stroke="black" d="M777.117,-398.999C750.711,-379.897 709.343,-349.971 683.77,-331.472"/>
</g>
<!-- ActiveRecord::Base&#45;&gt;Log -->
<g id="edge26" class="edge"><title>ActiveRecord::Base&#45;&gt;Log</title>
<path fill="none" stroke="black" d="M822.547,-398.828C861.971,-363.96 947.548,-288.274 984.002,-256.033"/>
</g>
<!-- ActiveRecord::Base&#45;&gt;Question -->
<g id="edge34" class="edge"><title>ActiveRecord::Base&#45;&gt;Question</title>
<path fill="none" stroke="black" d="M729.414,-403.632C656.813,-388.864 551.894,-363.262 523,-334 463.113,-273.351 505.388,-156.836 525.246,-111.598"/>
</g>
<!-- ActiveRecord::Base&#45;&gt;Quiz -->
<g id="edge38" class="edge"><title>ActiveRecord::Base&#45;&gt;Quiz</title>
<path fill="none" stroke="black" d="M734.803,-402.866C686.57,-390.398 621.749,-368.7 573,-334 526.994,-301.253 492.123,-274.47 513,-222 519.413,-205.883 533.037,-191.764 544.732,-181.867"/>
</g>
<!-- ActiveRecord::Base&#45;&gt;Result -->
<g id="edge40" class="edge"><title>ActiveRecord::Base&#45;&gt;Result</title>
<path fill="none" stroke="black" d="M896.546,-409.248C973.366,-399.82 1082.6,-379.124 1168,-334 1221.66,-305.646 1268,-301.694 1268,-241 1268,-241 1268,-241 1268,-167 1268,-83.3696 1155.35,-42.8513 1095.06,-27.1554"/>
</g>
<!-- ActiveRecord::Base&#45;&gt;Section -->
<g id="edge48" class="edge"><title>ActiveRecord::Base&#45;&gt;Section</title>
<path fill="none" stroke="black" d="M794.01,-398.498C779.376,-364.607 748.437,-292.96 733.883,-259.255"/>
</g>
<!-- ActiveRecord::Base&#45;&gt;Stat -->
<g id="edge50" class="edge"><title>ActiveRecord::Base&#45;&gt;Stat</title>
<path fill="none" stroke="black" d="M853.145,-400.78C901.71,-385 976.522,-359.704 1040,-334 1045.24,-331.88 1050.77,-329.449 1056.02,-327.051"/>
</g>
<!-- ActiveRecord::Base&#45;&gt;User -->
<g id="edge60" class="edge"><title>ActiveRecord::Base&#45;&gt;User</title>
<path fill="none" stroke="black" d="M835.522,-399.466C874.397,-379.131 937.567,-346.088 972.251,-327.945"/>
</g>
<!-- ActiveRecord::Base&#45;&gt;Video -->
<g id="edge62" class="edge"><title>ActiveRecord::Base&#45;&gt;Video</title>
<path fill="none" stroke="black" d="M804.277,-398.403C807.839,-362.344 811.64,-281.26 783,-222 775.281,-206.028 760.868,-192.187 748.467,-182.385"/>
</g>
</g>
</svg>
